0
SECTION
2
HEADER
9
$INSUNITS
70
4
0
ENDSEC
0
SECTION
2
TABLES
0
TABLE
2
LTYPE
0
LTYPE
72
65
70
64
2
CONTINUOUS
3
______
73
0
40
0
0
ENDTAB
0
TABLE
2
LAYER
0
ENDTAB
0
ENDSEC
0
SECTION
2
ENTITIES
0
LINE
8
0
10
124.068
20
-102.78
11
124.111
21
-102.779
0
LINE
8
0
10
124.111
20
-102.779
11
124.155
21
-102.777
0
LINE
8
0
10
124.155
20
-102.777
11
124.198
21
-102.775
0
LINE
8
0
10
124.198
20
-102.775
11
124.242
21
-102.771
0
LINE
8
0
10
124.242
20
-102.771
11
124.285
21
-102.767
0
LINE
8
0
10
124.285
20
-102.767
11
124.329
21
-102.762
0
LINE
8
0
10
124.329
20
-102.762
11
124.371
21
-102.756
0
LINE
8
0
10
124.371
20
-102.756
11
124.414
21
-102.75
0
LINE
8
0
10
124.414
20
-102.75
11
124.458
21
-102.743
0
LINE
8
0
10
124.458
20
-102.743
11
124.5
21
-102.735
0
LINE
8
0
10
124.5
20
-102.735
11
124.544
21
-102.726
0
LINE
8
0
10
124.544
20
-102.726
11
124.587
21
-102.717
0
LINE
8
0
10
124.587
20
-102.717
11
124.628
21
-102.707
0
LINE
8
0
10
124.628
20
-102.707
11
124.671
21
-102.695
0
LINE
8
0
10
124.671
20
-102.695
11
124.713
21
-102.684
0
LINE
8
0
10
124.713
20
-102.684
11
124.754
21
-102.672
0
LINE
8
0
10
124.754
20
-102.672
11
124.796
21
-102.658
0
LINE
8
0
10
124.796
20
-102.658
11
124.838
21
-102.644
0
LINE
8
0
10
124.838
20
-102.644
11
124.879
21
-102.63
0
LINE
8
0
10
124.879
20
-102.63
11
124.919
21
-102.615
0
LINE
8
0
10
124.919
20
-102.615
11
124.96
21
-102.599
0
LINE
8
0
10
124.96
20
-102.599
11
125
21
-102.582
0
LINE
8
0
10
125
20
-102.582
11
125.04
21
-102.565
0
LINE
8
0
10
125.04
20
-102.565
11
125.08
21
-102.546
0
LINE
8
0
10
125.08
20
-102.546
11
125.121
21
-102.527
0
LINE
8
0
10
125.121
20
-102.527
11
125.158
21
-102.508
0
LINE
8
0
10
125.158
20
-102.508
11
125.197
21
-102.488
0
LINE
8
0
10
125.197
20
-102.488
11
125.236
21
-102.467
0
LINE
8
0
10
125.236
20
-102.467
11
125.273
21
-102.446
0
LINE
8
0
10
125.273
20
-102.446
11
125.312
21
-102.423
0
LINE
8
0
10
125.312
20
-102.423
11
125.348
21
-102.401
0
LINE
8
0
10
125.348
20
-102.401
11
125.385
21
-102.377
0
LINE
8
0
10
125.385
20
-102.377
11
125.421
21
-102.353
0
LINE
8
0
10
125.421
20
-102.353
11
125.458
21
-102.329
0
LINE
8
0
10
125.458
20
-102.329
11
125.493
21
-102.303
0
LINE
8
0
10
125.493
20
-102.303
11
125.528
21
-102.277
0
LINE
8
0
10
125.528
20
-102.277
11
125.563
21
-102.25
0
LINE
8
0
10
125.563
20
-102.25
11
125.597
21
-102.224
0
LINE
8
0
10
125.597
20
-102.224
11
125.63
21
-102.196
0
LINE
8
0
10
125.63
20
-102.196
11
125.664
21
-102.167
0
LINE
8
0
10
125.664
20
-102.167
11
125.696
21
-102.139
0
LINE
8
0
10
125.696
20
-102.139
11
125.729
21
-102.109
0
LINE
8
0
10
125.729
20
-102.109
11
125.76
21
-102.079
0
LINE
8
0
10
125.76
20
-102.079
11
125.791
21
-102.049
0
LINE
8
0
10
125.791
20
-102.049
11
125.822
21
-102.017
0
LINE
8
0
10
125.822
20
-102.017
11
125.852
21
-101.986
0
LINE
8
0
10
125.852
20
-101.986
11
125.881
21
-101.954
0
LINE
8
0
10
125.881
20
-101.954
11
125.91
21
-101.921
0
LINE
8
0
10
125.91
20
-101.921
11
125.939
21
-101.887
0
LINE
8
0
10
125.939
20
-101.887
11
125.967
21
-101.854
0
LINE
8
0
10
125.967
20
-101.854
11
125.994
21
-101.82
0
LINE
8
0
10
125.994
20
-101.82
11
126.02
21
-101.785
0
LINE
8
0
10
126.02
20
-101.785
11
126.046
21
-101.75
0
LINE
8
0
10
126.046
20
-101.75
11
126.072
21
-101.714
0
LINE
8
0
10
126.072
20
-101.714
11
126.096
21
-101.679
0
LINE
8
0
10
126.096
20
-101.679
11
126.12
21
-101.642
0
LINE
8
0
10
126.12
20
-101.642
11
126.144
21
-101.605
0
LINE
8
0
10
126.144
20
-101.605
11
126.167
21
-101.568
0
LINE
8
0
10
126.167
20
-101.568
11
126.189
21
-101.531
0
LINE
8
0
10
126.189
20
-101.531
11
142.531
21
-73.2105
0
LINE
8
0
10
142.531
20
-73.2105
11
142.552
21
-73.1721
0
LINE
8
0
10
142.552
20
-73.1721
11
142.573
21
-73.1334
0
LINE
8
0
10
142.573
20
-73.1334
11
142.594
21
-73.0947
0
LINE
8
0
10
142.594
20
-73.0947
11
142.613
21
-73.0561
0
LINE
8
0
10
142.613
20
-73.0561
11
142.632
21
-73.0165
0
LINE
8
0
10
142.632
20
-73.0165
11
142.65
21
-72.9766
0
LINE
8
0
10
142.65
20
-72.9766
11
142.667
21
-72.9367
0
LINE
8
0
10
142.667
20
-72.9367
11
142.684
21
-72.8966
0
LINE
8
0
10
142.684
20
-72.8966
11
142.7
21
-72.8563
0
LINE
8
0
10
142.7
20
-72.8563
11
142.715
21
-72.8143
0
LINE
8
0
10
142.715
20
-72.8143
11
142.729
21
-72.7742
0
LINE
8
0
10
142.729
20
-72.7742
11
142.744
21
-72.7322
0
LINE
8
0
10
142.744
20
-72.7322
11
142.756
21
-72.691
0
LINE
8
0
10
142.756
20
-72.691
11
142.769
21
-72.6489
0
LINE
8
0
10
142.769
20
-72.6489
11
142.78
21
-72.6077
0
LINE
8
0
10
142.78
20
-72.6077
11
142.792
21
-72.5638
0
LINE
8
0
10
142.792
20
-72.5638
11
142.802
21
-72.5225
0
LINE
8
0
10
142.802
20
-72.5225
11
142.811
21
-72.4793
0
LINE
8
0
10
142.811
20
-72.4793
11
142.82
21
-72.4373
0
LINE
8
0
10
142.82
20
-72.4373
11
142.828
21
-72.3941
0
LINE
8
0
10
142.828
20
-72.3941
11
142.835
21
-72.3507
0
LINE
8
0
10
142.835
20
-72.3507
11
142.841
21
-72.3082
0
LINE
8
0
10
142.841
20
-72.3082
11
142.847
21
-72.2641
0
LINE
8
0
10
142.847
20
-72.2641
11
142.852
21
-72.2216
0
LINE
8
0
10
142.852
20
-72.2216
11
142.856
21
-72.1776
0
LINE
8
0
10
142.856
20
-72.1776
11
142.86
21
-72.1339
0
LINE
8
0
10
142.86
20
-72.1339
11
142.862
21
-72.091
0
LINE
8
0
10
142.862
20
-72.091
11
142.864
21
-72.047
0
LINE
8
0
10
142.864
20
-72.047
11
142.865
21
-72.0037
0
LINE
8
0
10
142.865
20
-72.0037
11
142.866
21
-71.9603
0
LINE
8
0
10
142.866
20
-71.9603
11
142.866
21
-13.7033
0
LINE
8
0
10
142.866
20
-13.7033
11
142.865
21
-13.6585
0
LINE
8
0
10
142.865
20
-13.6585
11
142.864
21
-13.6153
0
LINE
8
0
10
142.864
20
-13.6153
11
142.862
21
-13.5712
0
LINE
8
0
10
142.862
20
-13.5712
11
142.859
21
-13.5276
0
LINE
8
0
10
142.859
20
-13.5276
11
142.856
21
-13.4847
0
LINE
8
0
10
142.856
20
-13.4847
11
142.852
21
-13.4415
0
LINE
8
0
10
142.852
20
-13.4415
11
142.847
21
-13.3976
0
LINE
8
0
10
142.847
20
-13.3976
11
142.841
21
-13.3544
0
LINE
8
0
10
142.841
20
-13.3544
11
142.835
21
-13.3111
0
LINE
8
0
10
142.835
20
-13.3111
11
142.828
21
-13.2685
0
LINE
8
0
10
142.828
20
-13.2685
11
142.82
21
-13.2253
0
LINE
8
0
10
142.82
20
-13.2253
11
142.811
21
-13.1827
0
LINE
8
0
10
142.811
20
-13.1827
11
142.801
21
-13.1395
0
LINE
8
0
10
142.801
20
-13.1395
11
142.791
21
-13.0979
0
LINE
8
0
10
142.791
20
-13.0979
11
142.78
21
-13.0556
0
LINE
8
0
10
142.78
20
-13.0556
11
142.769
21
-13.0128
0
LINE
8
0
10
142.769
20
-13.0128
11
142.756
21
-12.9718
0
LINE
8
0
10
142.756
20
-12.9718
11
142.743
21
-12.93
0
LINE
8
0
10
142.743
20
-12.93
11
142.729
21
-12.8882
0
LINE
8
0
10
142.729
20
-12.8882
11
142.715
21
-12.8473
0
LINE
8
0
10
142.715
20
-12.8473
11
142.7
21
-12.8064
0
LINE
8
0
10
142.7
20
-12.8064
11
142.684
21
-12.7663
0
LINE
8
0
10
142.684
20
-12.7663
11
142.667
21
-12.7255
0
LINE
8
0
10
142.667
20
-12.7255
11
142.649
21
-12.6852
0
LINE
8
0
10
142.649
20
-12.6852
11
142.632
21
-12.6462
0
LINE
8
0
10
142.632
20
-12.6462
11
142.612
21
-12.6056
0
LINE
8
0
10
142.612
20
-12.6056
11
142.593
21
-12.5679
0
LINE
8
0
10
142.593
20
-12.5679
11
142.573
21
-12.5286
0
LINE
8
0
10
142.573
20
-12.5286
11
142.552
21
-12.4904
0
LINE
8
0
10
142.552
20
-12.4904
11
142.531
21
-12.4527
0
LINE
8
0
10
142.531
20
-12.4527
11
142.508
21
-12.4145
0
LINE
8
0
10
142.508
20
-12.4145
11
142.486
21
-12.3778
0
LINE
8
0
10
142.486
20
-12.3778
11
142.462
21
-12.3411
0
LINE
8
0
10
142.462
20
-12.3411
11
142.438
21
-12.3037
0
LINE
8
0
10
142.438
20
-12.3037
11
142.414
21
-12.2689
0
LINE
8
0
10
142.414
20
-12.2689
11
142.388
21
-12.2326
0
LINE
8
0
10
142.388
20
-12.2326
11
142.363
21
-12.1985
0
LINE
8
0
10
142.363
20
-12.1985
11
142.336
21
-12.1632
0
LINE
8
0
10
142.336
20
-12.1632
11
142.308
21
-12.129
0
LINE
8
0
10
142.308
20
-12.129
11
142.281
21
-12.0954
0
LINE
8
0
10
142.281
20
-12.0954
11
142.252
21
-12.0622
0
LINE
8
0
10
142.252
20
-12.0622
11
142.223
21
-12.0294
0
LINE
8
0
10
142.223
20
-12.0294
11
142.194
21
-11.9972
0
LINE
8
0
10
142.194
20
-11.9972
11
142.164
21
-11.9661
0
LINE
8
0
10
142.164
20
-11.9661
11
142.133
21
-11.9346
0
LINE
8
0
10
142.133
20
-11.9346
11
142.102
21
-11.9037
0
LINE
8
0
10
142.102
20
-11.9037
11
142.071
21
-11.8742
0
LINE
8
0
10
142.071
20
-11.8742
11
142.039
21
-11.8447
0
LINE
8
0
10
142.039
20
-11.8447
11
142.006
21
-11.8157
0
LINE
8
0
10
142.006
20
-11.8157
11
141.973
21
-11.7873
0
LINE
8
0
10
141.973
20
-11.7873
11
141.939
21
-11.7596
0
LINE
8
0
10
141.939
20
-11.7596
11
141.905
21
-11.7324
0
LINE
8
0
10
141.905
20
-11.7324
11
141.87
21
-11.7053
0
LINE
8
0
10
141.87
20
-11.7053
11
141.835
21
-11.6801
0
LINE
8
0
10
141.835
20
-11.6801
11
141.799
21
-11.6542
0
LINE
8
0
10
141.799
20
-11.6542
11
141.764
21
-11.6302
0
LINE
8
0
10
141.764
20
-11.6302
11
141.727
21
-11.6055
0
LINE
8
0
10
141.727
20
-11.6055
11
141.69
21
-11.5822
0
LINE
8
0
10
141.69
20
-11.5822
11
141.654
21
-11.5597
0
LINE
8
0
10
141.654
20
-11.5597
11
141.615
21
-11.5371
0
LINE
8
0
10
141.615
20
-11.5371
11
141.578
21
-11.5158
0
LINE
8
0
10
141.578
20
-11.5158
11
141.539
21
-11.4951
0
LINE
8
0
10
141.539
20
-11.4951
11
141.5
21
-11.4746
0
LINE
8
0
10
141.5
20
-11.4746
11
141.462
21
-11.4558
0
LINE
8
0
10
141.462
20
-11.4558
11
141.422
21
-11.4365
0
LINE
8
0
10
141.422
20
-11.4365
11
141.383
21
-11.4187
0
LINE
8
0
10
141.383
20
-11.4187
11
141.343
21
-11.4012
0
LINE
8
0
10
141.343
20
-11.4012
11
141.302
21
-11.3843
0
LINE
8
0
10
141.302
20
-11.3843
11
141.262
21
-11.3684
0
LINE
8
0
10
141.262
20
-11.3684
11
141.221
21
-11.3532
0
LINE
8
0
10
141.221
20
-11.3532
11
141.18
21
-11.3387
0
LINE
8
0
10
141.18
20
-11.3387
11
141.138
21
-11.3247
0
LINE
8
0
10
141.138
20
-11.3247
11
141.096
21
-11.3115
0
LINE
8
0
10
141.096
20
-11.3115
11
141.055
21
-11.2994
0
LINE
8
0
10
141.055
20
-11.2994
11
141.012
21
-11.2875
0
LINE
8
0
10
141.012
20
-11.2875
11
140.97
21
-11.2766
0
LINE
8
0
10
140.97
20
-11.2766
11
140.929
21
-11.2666
0
LINE
8
0
10
140.929
20
-11.2666
11
140.885
21
-11.257
0
LINE
8
0
10
140.885
20
-11.257
11
140.843
21
-11.2483
0
LINE
8
0
10
140.843
20
-11.2483
11
140.799
21
-11.2403
0
LINE
8
0
10
140.799
20
-11.2403
11
140.757
21
-11.2332
0
LINE
8
0
10
140.757
20
-11.2332
11
140.704
21
-11.2254
0
LINE
8
0
10
140.704
20
-11.2254
11
111.801
21
-7.28827
0
LINE
8
0
10
111.801
20
-7.28827
11
111.776
21
-7.285
0
LINE
8
0
10
111.776
20
-7.285
11
73.7964
21
-2.53943
0
LINE
8
0
10
73.7964
20
-2.53943
11
73.7537
21
-2.53447
0
LINE
8
0
10
73.7537
20
-2.53447
11
73.7097
21
-2.53015
0
LINE
8
0
10
73.7097
20
-2.53015
11
73.6656
21
-2.5266
0
LINE
8
0
10
73.6656
20
-2.5266
11
73.6224
21
-2.52385
0
LINE
8
0
10
73.6224
20
-2.52385
11
73.5787
21
-2.52184
0
LINE
8
0
10
73.5787
20
-2.52184
11
73.535
21
-2.5206
0
LINE
8
0
10
73.535
20
-2.5206
11
73.4872
21
-2.52014
0
LINE
8
0
10
73.4872
20
-2.52014
11
21.7447
21
-2.52014
0
LINE
8
0
10
21.7447
20
-2.52014
11
21.6999
21
-2.52054
0
LINE
8
0
10
21.6999
20
-2.52054
11
21.6567
21
-2.52167
0
LINE
8
0
10
21.6567
20
-2.52167
11
21.6126
21
-2.52359
0
LINE
8
0
10
21.6126
20
-2.52359
11
21.569
21
-2.52626
0
LINE
8
0
10
21.569
20
-2.52626
11
21.5264
21
-2.5296
0
LINE
8
0
10
21.5264
20
-2.5296
11
21.4827
21
-2.53383
0
LINE
8
0
10
21.4827
20
-2.53383
11
21.4333
21
-2.53949
0
LINE
8
0
10
21.4333
20
-2.53949
11
4.70992
21
-4.62991
0
LINE
8
0
10
4.70992
20
-4.62991
11
4.66716
21
-4.63565
0
LINE
8
0
10
4.66716
20
-4.63565
11
4.62312
21
-4.64232
0
LINE
8
0
10
4.62312
20
-4.64232
11
4.5804
21
-4.64957
0
LINE
8
0
10
4.5804
20
-4.64957
11
4.53822
21
-4.65749
0
LINE
8
0
10
4.53822
20
-4.65749
11
4.49527
21
-4.66631
0
LINE
8
0
10
4.49527
20
-4.66631
11
4.4527
21
-4.67586
0
LINE
8
0
10
4.4527
20
-4.67586
11
4.40977
21
-4.68626
0
LINE
8
0
10
4.40977
20
-4.68626
11
4.36815
21
-4.69713
0
LINE
8
0
10
4.36815
20
-4.69713
11
4.32584
21
-4.70895
0
LINE
8
0
10
4.32584
20
-4.70895
11
4.2834
21
-4.72162
0
LINE
8
0
10
4.2834
20
-4.72162
11
4.24251
21
-4.73462
0
LINE
8
0
10
4.24251
20
-4.73462
11
4.20096
21
-4.74861
0
LINE
8
0
10
4.20096
20
-4.74861
11
4.15968
21
-4.76334
0
LINE
8
0
10
4.15968
20
-4.76334
11
4.1189
21
-4.77869
0
LINE
8
0
10
4.1189
20
-4.77869
11
4.07921
21
-4.7944
0
LINE
8
0
10
4.07921
20
-4.7944
11
4.03796
21
-4.81161
0
LINE
8
0
10
4.03796
20
-4.81161
11
3.99829
21
-4.82895
0
LINE
8
0
10
3.99829
20
-4.82895
11
3.95847
21
-4.84721
0
LINE
8
0
10
3.95847
20
-4.84721
11
3.92006
21
-4.86565
0
LINE
8
0
10
3.92006
20
-4.86565
11
3.87991
21
-4.88576
0
LINE
8
0
10
3.87991
20
-4.88576
11
3.84184
21
-4.90569
0
LINE
8
0
10
3.84184
20
-4.90569
11
3.80345
21
-4.92664
0
LINE
8
0
10
3.80345
20
-4.92664
11
3.76509
21
-4.94846
0
LINE
8
0
10
3.76509
20
-4.94846
11
3.72786
21
-4.97049
0
LINE
8
0
10
3.72786
20
-4.97049
11
3.69122
21
-4.99306
0
LINE
8
0
10
3.69122
20
-4.99306
11
3.65396
21
-5.01691
0
LINE
8
0
10
3.65396
20
-5.01691
11
3.61755
21
-5.04112
0
LINE
8
0
10
3.61755
20
-5.04112
11
3.58186
21
-5.06577
0
LINE
8
0
10
3.58186
20
-5.06577
11
3.54619
21
-5.09132
0
LINE
8
0
10
3.54619
20
-5.09132
11
3.51111
21
-5.1174
0
LINE
8
0
10
3.51111
20
-5.1174
11
3.4765
21
-5.14409
0
LINE
8
0
10
3.4765
20
-5.14409
11
3.44289
21
-5.17094
0
LINE
8
0
10
3.44289
20
-5.17094
11
3.40852
21
-5.19937
0
LINE
8
0
10
3.40852
20
-5.19937
11
3.37602
21
-5.22726
0
LINE
8
0
10
3.37602
20
-5.22726
11
3.34323
21
-5.25641
0
LINE
8
0
10
3.34323
20
-5.25641
11
3.31104
21
-5.28604
0
LINE
8
0
10
3.31104
20
-5.28604
11
3.28006
21
-5.31557
0
LINE
8
0
10
3.28006
20
-5.31557
11
3.24858
21
-5.34665
0
LINE
8
0
10
3.24858
20
-5.34665
11
3.21774
21
-5.37816
0
LINE
8
0
10
3.21774
20
-5.37816
11
3.18816
21
-5.40945
0
LINE
8
0
10
3.18816
20
-5.40945
11
3.15848
21
-5.442
0
LINE
8
0
10
3.15848
20
-5.442
11
3.12996
21
-5.47438
0
LINE
8
0
10
3.12996
20
-5.47438
11
3.10146
21
-5.50792
0
LINE
8
0
10
3.10146
20
-5.50792
11
3.07379
21
-5.54161
0
LINE
8
0
10
3.07379
20
-5.54161
11
3.04649
21
-5.57608
0
LINE
8
0
10
3.04649
20
-5.57608
11
3.02075
21
-5.60977
0
LINE
8
0
10
3.02075
20
-5.60977
11
2.99402
21
-5.64609
0
LINE
8
0
10
2.99402
20
-5.64609
11
2.96944
21
-5.68068
0
LINE
8
0
10
2.96944
20
-5.68068
11
2.9444
21
-5.71729
0
LINE
8
0
10
2.9444
20
-5.71729
11
2.92044
21
-5.75365
0
LINE
8
0
10
2.92044
20
-5.75365
11
2.89738
21
-5.79004
0
LINE
8
0
10
2.89738
20
-5.79004
11
2.87405
21
-5.82829
0
LINE
8
0
10
2.87405
20
-5.82829
11
2.85248
21
-5.86511
0
LINE
8
0
10
2.85248
20
-5.86511
11
2.83109
21
-5.90312
0
LINE
8
0
10
2.83109
20
-5.90312
11
2.81013
21
-5.94188
0
LINE
8
0
10
2.81013
20
-5.94188
11
2.79012
21
-5.98058
0
LINE
8
0
10
2.79012
20
-5.98058
11
2.77087
21
-6.01935
0
LINE
8
0
10
2.77087
20
-6.01935
11
2.75214
21
-6.05887
0
LINE
8
0
10
2.75214
20
-6.05887
11
2.73404
21
-6.0988
0
LINE
8
0
10
2.73404
20
-6.0988
11
2.71674
21
-6.13885
0
LINE
8
0
10
2.71674
20
-6.13885
11
2.69994
21
-6.17966
0
LINE
8
0
10
2.69994
20
-6.17966
11
2.6844
21
-6.21933
0
LINE
8
0
10
2.6844
20
-6.21933
11
2.66896
21
-6.26093
0
LINE
8
0
10
2.66896
20
-6.26093
11
2.6545
21
-6.30202
0
LINE
8
0
10
2.6545
20
-6.30202
11
2.6411
21
-6.34242
0
LINE
8
0
10
2.6411
20
-6.34242
11
2.62753
21
-6.38573
0
LINE
8
0
10
2.62753
20
-6.38573
11
2.61559
21
-6.42641
0
LINE
8
0
10
2.61559
20
-6.42641
11
2.6039
21
-6.46892
0
LINE
8
0
10
2.6039
20
-6.46892
11
2.59308
21
-6.51111
0
LINE
8
0
10
2.59308
20
-6.51111
11
2.58304
21
-6.55334
0
LINE
8
0
10
2.58304
20
-6.55334
11
2.57368
21
-6.59595
0
LINE
8
0
10
2.57368
20
-6.59595
11
2.565
21
-6.63911
0
LINE
8
0
10
2.565
20
-6.63911
11
2.5571
21
-6.6823
0
LINE
8
0
10
2.5571
20
-6.6823
11
2.55011
21
-6.72466
0
LINE
8
0
10
2.55011
20
-6.72466
11
2.54376
21
-6.76768
0
LINE
8
0
10
2.54376
20
-6.76768
11
2.53807
21
-6.81171
0
LINE
8
0
10
2.53807
20
-6.81171
11
2.53331
21
-6.85443
0
LINE
8
0
10
2.53331
20
-6.85443
11
2.52919
21
-6.8981
0
LINE
8
0
10
2.52919
20
-6.8981
11
2.52585
21
-6.94197
0
LINE
8
0
10
2.52585
20
-6.94197
11
2.52328
21
-6.98503
0
LINE
8
0
10
2.52328
20
-6.98503
11
2.5215
21
-7.02841
0
LINE
8
0
10
2.5215
20
-7.02841
11
2.52043
21
-7.07253
0
LINE
8
0
10
2.52043
20
-7.07253
11
2.52014
21
-7.11119
0
LINE
8
0
10
2.52014
20
-7.11119
11
2.52014
21
-73.577
0
LINE
8
0
10
2.52014
20
-73.577
11
2.52054
21
-73.6217
0
LINE
8
0
10
2.52054
20
-73.6217
11
2.52167
21
-73.665
0
LINE
8
0
10
2.52167
20
-73.665
11
2.52359
21
-73.7091
0
LINE
8
0
10
2.52359
20
-73.7091
11
2.52626
21
-73.7527
0
LINE
8
0
10
2.52626
20
-73.7527
11
2.52962
21
-73.7955
0
LINE
8
0
10
2.52962
20
-73.7955
11
2.5338
21
-73.8388
0
LINE
8
0
10
2.5338
20
-73.8388
11
2.53879
21
-73.8827
0
LINE
8
0
10
2.53879
20
-73.8827
11
2.54446
21
-73.9258
0
LINE
8
0
10
2.54446
20
-73.9258
11
2.55095
21
-73.9692
0
LINE
8
0
10
2.55095
20
-73.9692
11
2.55807
21
-74.0118
0
LINE
8
0
10
2.55807
20
-74.0118
11
2.56609
21
-74.055
0
LINE
8
0
10
2.56609
20
-74.055
11
2.57475
21
-74.0976
0
LINE
8
0
10
2.57475
20
-74.0976
11
2.58434
21
-74.1408
0
LINE
8
0
10
2.58434
20
-74.1408
11
2.59433
21
-74.1824
0
LINE
8
0
10
2.59433
20
-74.1824
11
2.60526
21
-74.2246
0
LINE
8
0
10
2.60526
20
-74.2246
11
2.61713
21
-74.2674
0
LINE
8
0
10
2.61713
20
-74.2674
11
2.62926
21
-74.3084
0
LINE
8
0
10
2.62926
20
-74.3084
11
2.64246
21
-74.3503
0
LINE
8
0
10
2.64246
20
-74.3503
11
2.65642
21
-74.392
0
LINE
8
0
10
2.65642
20
-74.392
11
2.67091
21
-74.433
0
LINE
8
0
10
2.67091
20
-74.433
11
2.68619
21
-74.4738
0
LINE
8
0
10
2.68619
20
-74.4738
11
2.70203
21
-74.514
0
LINE
8
0
10
2.70203
20
-74.514
11
2.71892
21
-74.5548
0
LINE
8
0
10
2.71892
20
-74.5548
11
2.73642
21
-74.595
0
LINE
8
0
10
2.73642
20
-74.595
11
2.75421
21
-74.6341
0
LINE
8
0
10
2.75421
20
-74.6341
11
2.77356
21
-74.6746
0
LINE
8
0
10
2.77356
20
-74.6746
11
2.79237
21
-74.7124
0
LINE
8
0
10
2.79237
20
-74.7124
11
2.81284
21
-74.7517
0
LINE
8
0
10
2.81284
20
-74.7517
11
2.83359
21
-74.7899
0
LINE
8
0
10
2.83359
20
-74.7899
11
2.85489
21
-74.8276
0
LINE
8
0
10
2.85489
20
-74.8276
11
2.87741
21
-74.8658
0
LINE
8
0
10
2.87741
20
-74.8658
11
2.89992
21
-74.9025
0
LINE
8
0
10
2.89992
20
-74.9025
11
2.92325
21
-74.9391
0
LINE
8
0
10
2.92325
20
-74.9391
11
2.948
21
-74.9765
0
LINE
8
0
10
2.948
20
-74.9765
11
2.97194
21
-75.0114
0
LINE
8
0
10
2.97194
20
-75.0114
11
2.99786
21
-75.0477
0
LINE
8
0
10
2.99786
20
-75.0477
11
3.02309
21
-75.0818
0
LINE
8
0
10
3.02309
20
-75.0818
11
3.05014
21
-75.1171
0
LINE
8
0
10
3.05014
20
-75.1171
11
3.07735
21
-75.1513
0
LINE
8
0
10
3.07735
20
-75.1513
11
3.10507
21
-75.1849
0
LINE
8
0
10
3.10507
20
-75.1849
11
3.13342
21
-75.2181
0
LINE
8
0
10
3.13342
20
-75.2181
11
3.16241
21
-75.2509
0
LINE
8
0
10
3.16241
20
-75.2509
11
3.19193
21
-75.2831
0
LINE
8
0
10
3.19193
20
-75.2831
11
3.22144
21
-75.3142
0
LINE
8
0
10
3.22144
20
-75.3142
11
3.25238
21
-75.3456
0
LINE
8
0
10
3.25238
20
-75.3456
11
3.28384
21
-75.3766
0
LINE
8
0
10
3.28384
20
-75.3766
11
3.31496
21
-75.4061
0
LINE
8
0
10
3.31496
20
-75.4061
11
3.34717
21
-75.4356
0
LINE
8
0
10
3.34717
20
-75.4356
11
3.37993
21
-75.4646
0
LINE
8
0
10
3.37993
20
-75.4646
11
3.41313
21
-75.493
0
LINE
8
0
10
3.41313
20
-75.493
11
3.44676
21
-75.5207
0
LINE
8
0
10
3.44676
20
-75.5207
11
3.48096
21
-75.5479
0
LINE
8
0
10
3.48096
20
-75.5479
11
3.51622
21
-75.5749
0
LINE
8
0
10
3.51622
20
-75.5749
11
3.55031
21
-75.6002
0
LINE
8
0
10
3.55031
20
-75.6002
11
3.58665
21
-75.6261
0
LINE
8
0
10
3.58665
20
-75.6261
11
3.62148
21
-75.65
0
LINE
8
0
10
3.62148
20
-75.65
11
3.65887
21
-75.6748
0
LINE
8
0
10
3.65887
20
-75.6748
11
3.69551
21
-75.6981
0
LINE
8
0
10
3.69551
20
-75.6981
11
3.73224
21
-75.7206
0
LINE
8
0
10
3.73224
20
-75.7206
11
3.77046
21
-75.7431
0
LINE
8
0
10
3.77046
20
-75.7431
11
3.80811
21
-75.7644
0
LINE
8
0
10
3.80811
20
-75.7644
11
3.84633
21
-75.7852
0
LINE
8
0
10
3.84633
20
-75.7852
11
3.88564
21
-75.8056
0
LINE
8
0
10
3.88564
20
-75.8056
11
3.92339
21
-75.8245
0
LINE
8
0
10
3.92339
20
-75.8245
11
3.96396
21
-75.8438
0
LINE
8
0
10
3.96396
20
-75.8438
11
4.00298
21
-75.8616
0
LINE
8
0
10
4.00298
20
-75.8616
11
4.04323
21
-75.8791
0
LINE
8
0
10
4.04323
20
-75.8791
11
4.084
21
-75.896
0
LINE
8
0
10
4.084
20
-75.896
11
4.12419
21
-75.9118
0
LINE
8
0
10
4.12419
20
-75.9118
11
4.16507
21
-75.9271
0
LINE
8
0
10
4.16507
20
-75.9271
11
4.20598
21
-75.9416
0
LINE
8
0
10
4.20598
20
-75.9416
11
4.24776
21
-75.9556
0
LINE
8
0
10
4.24776
20
-75.9556
11
4.2896
21
-75.9688
0
LINE
8
0
10
4.2896
20
-75.9688
11
4.33058
21
-75.9809
0
LINE
8
0
10
4.33058
20
-75.9809
11
4.37338
21
-75.9928
0
LINE
8
0
10
4.37338
20
-75.9928
11
4.41562
21
-76.0037
0
LINE
8
0
10
4.41562
20
-76.0037
11
4.45723
21
-76.0137
0
LINE
8
0
10
4.45723
20
-76.0137
11
4.50043
21
-76.0233
0
LINE
8
0
10
4.50043
20
-76.0233
11
4.54301
21
-76.0319
0
LINE
8
0
10
4.54301
20
-76.0319
11
4.58623
21
-76.0399
0
LINE
8
0
10
4.58623
20
-76.0399
11
4.62881
21
-76.0471
0
LINE
8
0
10
4.62881
20
-76.0471
11
4.6722
21
-76.0536
0
LINE
8
0
10
4.6722
20
-76.0536
11
4.7153
21
-76.0592
0
LINE
8
0
10
4.7153
20
-76.0592
11
4.75922
21
-76.0642
0
LINE
8
0
10
4.75922
20
-76.0642
11
4.80249
21
-76.0684
0
LINE
8
0
10
4.80249
20
-76.0684
11
4.84532
21
-76.0718
0
LINE
8
0
10
4.84532
20
-76.0718
11
4.88922
21
-76.0744
0
LINE
8
0
10
4.88922
20
-76.0744
11
4.93335
21
-76.0764
0
LINE
8
0
10
4.93335
20
-76.0764
11
4.99664
21
-76.0778
0
LINE
8
0
10
4.99664
20
-76.0778
11
65.1581
21
-76.6487
0
LINE
8
0
10
65.1581
20
-76.6487
11
66.0306
21
-76.6646
0
LINE
8
0
10
66.0306
20
-76.6646
11
66.9027
21
-76.6957
0
LINE
8
0
10
66.9027
20
-76.6957
11
67.7741
21
-76.7421
0
LINE
8
0
10
67.7741
20
-76.7421
11
68.6446
21
-76.8036
0
LINE
8
0
10
68.6446
20
-76.8036
11
69.5139
21
-76.8803
0
LINE
8
0
10
69.5139
20
-76.8803
11
70.3817
21
-76.9722
0
LINE
8
0
10
70.3817
20
-76.9722
11
71.2478
21
-77.0792
0
LINE
8
0
10
71.2478
20
-77.0792
11
72.1118
21
-77.2013
0
LINE
8
0
10
72.1118
20
-77.2013
11
72.9736
21
-77.3385
0
LINE
8
0
10
72.9736
20
-77.3385
11
73.8329
21
-77.4907
0
LINE
8
0
10
73.8329
20
-77.4907
11
74.6894
21
-77.6579
0
LINE
8
0
10
74.6894
20
-77.6579
11
75.5428
21
-77.8399
0
LINE
8
0
10
75.5428
20
-77.8399
11
76.393
21
-78.0369
0
LINE
8
0
10
76.393
20
-78.0369
11
77.2395
21
-78.2487
0
LINE
8
0
10
77.2395
20
-78.2487
11
78.0823
21
-78.4752
0
LINE
8
0
10
78.0823
20
-78.4752
11
78.921
21
-78.7163
0
LINE
8
0
10
78.921
20
-78.7163
11
79.7553
21
-78.9721
0
LINE
8
0
10
79.7553
20
-78.9721
11
80.585
21
-79.2424
0
LINE
8
0
10
80.585
20
-79.2424
11
81.4099
21
-79.5271
0
LINE
8
0
10
81.4099
20
-79.5271
11
82.2297
21
-79.8262
0
LINE
8
0
10
82.2297
20
-79.8262
11
83.0442
21
-80.1396
0
LINE
8
0
10
83.0442
20
-80.1396
11
83.853
21
-80.4671
0
LINE
8
0
10
83.853
20
-80.4671
11
84.6561
21
-80.8087
0
LINE
8
0
10
84.6561
20
-80.8087
11
85.453
21
-81.1642
0
LINE
8
0
10
85.453
20
-81.1642
11
86.2436
21
-81.5336
0
LINE
8
0
10
86.2436
20
-81.5336
11
87.0276
21
-81.9168
0
LINE
8
0
10
87.0276
20
-81.9168
11
87.8049
21
-82.3136
0
LINE
8
0
10
87.8049
20
-82.3136
11
88.5751
21
-82.7238
0
LINE
8
0
10
88.5751
20
-82.7238
11
89.6799
21
-83.343
0
LINE
8
0
10
89.6799
20
-83.343
11
122.774
21
-102.446
0
LINE
8
0
10
122.774
20
-102.446
11
122.811
21
-102.467
0
LINE
8
0
10
122.811
20
-102.467
11
122.85
21
-102.488
0
LINE
8
0
10
122.85
20
-102.488
11
122.889
21
-102.508
0
LINE
8
0
10
122.889
20
-102.508
11
122.928
21
-102.528
0
LINE
8
0
10
122.928
20
-102.528
11
122.967
21
-102.547
0
LINE
8
0
10
122.967
20
-102.547
11
123.006
21
-102.564
0
LINE
8
0
10
123.006
20
-102.564
11
123.047
21
-102.582
0
LINE
8
0
10
123.047
20
-102.582
11
123.087
21
-102.599
0
LINE
8
0
10
123.087
20
-102.599
11
123.127
21
-102.615
0
LINE
8
0
10
123.127
20
-102.615
11
123.168
21
-102.63
0
LINE
8
0
10
123.168
20
-102.63
11
123.21
21
-102.645
0
LINE
8
0
10
123.21
20
-102.645
11
123.251
21
-102.658
0
LINE
8
0
10
123.251
20
-102.658
11
123.293
21
-102.672
0
LINE
8
0
10
123.293
20
-102.672
11
123.335
21
-102.684
0
LINE
8
0
10
123.335
20
-102.684
11
123.376
21
-102.695
0
LINE
8
0
10
123.376
20
-102.695
11
123.419
21
-102.707
0
LINE
8
0
10
123.419
20
-102.707
11
123.461
21
-102.717
0
LINE
8
0
10
123.461
20
-102.717
11
123.504
21
-102.726
0
LINE
8
0
10
123.504
20
-102.726
11
123.547
21
-102.735
0
LINE
8
0
10
123.547
20
-102.735
11
123.59
21
-102.743
0
LINE
8
0
10
123.59
20
-102.743
11
123.633
21
-102.75
0
LINE
8
0
10
123.633
20
-102.75
11
123.675
21
-102.756
0
LINE
8
0
10
123.675
20
-102.756
11
123.719
21
-102.762
0
LINE
8
0
10
123.719
20
-102.762
11
123.763
21
-102.767
0
LINE
8
0
10
123.763
20
-102.767
11
123.805
21
-102.771
0
LINE
8
0
10
123.805
20
-102.771
11
123.849
21
-102.775
0
LINE
8
0
10
123.849
20
-102.775
11
123.893
21
-102.777
0
LINE
8
0
10
123.893
20
-102.777
11
123.936
21
-102.779
0
LINE
8
0
10
123.936
20
-102.779
11
123.98
21
-102.78
0
LINE
8
0
10
123.98
20
-102.78
11
124.024
21
-102.781
0
LINE
8
0
10
124.024
20
-102.781
11
124.068
21
-102.78
0
ENDSEC
0
EOF