M48
; DRILL file {KiCad (5.1.9)-1} date 08/27/21 08:53:57
; FORMAT={-:-/ absolute / metric / decimal}
; #@! TF.CreationDate,2021-08-27T08:53:57-07:00
; #@! TF.GenerationSoftware,Kicad,Pcbnew,(5.1.9)-1
; #@! TF.FileFunction,Plated,1,2,PTH
FMAT,2
METRIC
T1C0.400
T2C0.991
T3C1.000
T4C1.100
%
G90
G05
T1
X150.019Y-105.966
X150.019Y-114.301
X150.019Y-125.016
X150.019Y-133.351
X150.019Y-144.066
X150.019Y-152.401
X150.019Y-163.116
X157.461Y-111.026
X161.984Y-135.573
X161.984Y-97.473
X161.984Y-116.523
X161.984Y-154.623
X169.069Y-103.585
X169.069Y-122.635
X169.069Y-141.685
X169.069Y-160.735
X169.07Y-111.919
X169.07Y-130.969
X169.07Y-150.019
X176.511Y-110.554
X181.034Y-137.954
X181.034Y-99.854
X181.034Y-118.904
X181.034Y-157.004
X188.119Y-105.966
X188.119Y-114.301
X188.119Y-125.016
X188.119Y-133.351
X188.119Y-144.066
X188.119Y-152.401
X188.119Y-163.116
X195.562Y-111.026
X200.084Y-135.573
X200.084Y-97.473
X200.084Y-116.523
X200.084Y-154.623
X207.169Y-111.919
X207.169Y-130.969
X207.169Y-150.019
X207.17Y-103.585
X207.17Y-122.635
X207.17Y-141.685
X207.17Y-160.735
X214.612Y-127.695
X219.134Y-137.954
X219.134Y-99.854
X219.134Y-118.904
X219.134Y-157.004
X226.219Y-114.301
X226.219Y-133.351
X226.219Y-152.401
X226.22Y-105.966
X226.22Y-125.016
X226.22Y-144.066
X226.22Y-163.116
X233.662Y-131.862
X238.184Y-140.335
X238.184Y-102.235
X238.184Y-121.285
X242.569Y-167.411
X245.269Y-108.347
X245.269Y-116.682
X245.269Y-127.397
X245.269Y-135.732
X245.269Y-146.448
X251.849Y-172.769
X252.354Y-102.235
X252.712Y-132.457
X255.175Y-121.285
X255.876Y-136.813
X259.067Y-176.936
X266.596Y-173.103
X267.795Y-147.638
X268.32Y-105.093
X268.32Y-107.633
X268.32Y-110.173
X268.32Y-112.713
X268.32Y-115.253
X268.32Y-117.793
X268.32Y-120.333
X268.32Y-122.873
X268.32Y-125.413
X268.32Y-127.953
X268.32Y-130.493
X268.32Y-133.033
X268.347Y-182.294
X268.985Y-147.638
X269.082Y-137.404
X269.082Y-141.204
X269.844Y-105.093
X269.844Y-107.633
X269.844Y-110.173
X269.844Y-112.713
X269.844Y-115.253
X269.844Y-117.793
X269.844Y-120.333
X269.844Y-122.873
X269.844Y-125.413
X269.844Y-127.953
X269.844Y-130.493
X269.844Y-133.033
T2
X146.209Y-107.394
X146.209Y-126.444
X146.209Y-145.494
X146.209Y-164.544
X153.829Y-107.394
X153.829Y-126.444
X153.829Y-145.494
X153.829Y-164.544
X165.259Y-105.013
X165.259Y-124.063
X165.259Y-143.113
X165.259Y-162.163
X172.879Y-105.013
X172.879Y-124.063
X172.879Y-143.113
X172.879Y-162.163
X184.309Y-107.394
X184.309Y-126.444
X184.309Y-145.494
X184.309Y-164.544
X191.929Y-107.394
X191.929Y-126.444
X191.929Y-145.494
X191.929Y-164.544
X203.359Y-105.013
X203.359Y-124.063
X203.359Y-143.113
X203.359Y-162.163
X210.979Y-105.013
X210.979Y-124.063
X210.979Y-143.113
X210.979Y-162.163
X222.409Y-107.394
X222.409Y-126.444
X222.409Y-145.494
X222.409Y-164.544
X230.029Y-107.394
X230.029Y-126.444
X230.029Y-145.494
X230.029Y-164.544
X241.459Y-109.775
X241.459Y-128.825
X241.459Y-147.875
X249.079Y-109.775
X249.079Y-128.825
X249.079Y-147.875
X251.181Y-176.783
X254.991Y-170.184
X267.679Y-186.308
X271.489Y-179.709
T4
X261.462Y-105.093
X261.462Y-105.093
X261.462Y-107.633
X261.462Y-110.173
X261.462Y-112.713
X261.462Y-115.253
X261.462Y-117.793
X261.462Y-120.333
X261.462Y-122.873
X261.462Y-125.413
X261.462Y-127.953
X261.462Y-130.493
X261.462Y-133.033
X276.702Y-105.093
X276.702Y-105.093
X276.702Y-107.633
X276.702Y-110.173
X276.702Y-112.713
X276.702Y-115.253
X276.702Y-117.793
X276.702Y-120.333
X276.702Y-122.873
X276.702Y-125.413
X276.702Y-127.953
X276.702Y-130.493
X276.702Y-133.033
T3
X270.032Y-145.538G85X272.032Y-145.538
G05
X270.032Y-149.738G85X272.032Y-149.738
G05
X275.532Y-145.538G85X276.032Y-145.538
G05
X276.032Y-149.738G85X275.532Y-149.738
G05
X278.532Y-145.538G85X279.032Y-145.538
G05
X279.032Y-149.738G85X278.532Y-149.738
G05
T0
M30
