%TF.GenerationSoftware,KiCad,Pcbnew,(5.1.9)-1*%
%TF.CreationDate,2021-08-27T08:52:58-07:00*%
%TF.ProjectId,small,736d616c-6c2e-46b6-9963-61645f706362,VERSION_HERE*%
%TF.SameCoordinates,Original*%
%TF.FileFunction,Soldermask,Bot*%
%TF.FilePolarity,Negative*%
%FSLAX46Y46*%
G04 Gerber Fmt 4.6, Leading zero omitted, Abs format (unit mm)*
G04 Created by KiCad (PCBNEW (5.1.9)-1) date 2021-08-27 08:52:58*
%MOMM*%
%LPD*%
G01*
G04 APERTURE LIST*
%ADD10C,0.100000*%
%ADD11C,0.250000*%
%ADD12O,3.700000X1.700000*%
%ADD13C,1.200000*%
%ADD14O,2.200000X1.700000*%
%ADD15R,1.700000X1.000000*%
%ADD16R,1.600000X1.600000*%
%ADD17C,1.600000*%
%ADD18R,0.900000X1.200000*%
%ADD19C,1.905000*%
%ADD20R,1.778000X1.778000*%
%ADD21C,4.750000*%
%ADD22C,2.500000*%
%ADD23C,3.987800*%
%ADD24C,1.701800*%
%ADD25C,3.000000*%
%ADD26R,2.550000X2.500000*%
G04 APERTURE END LIST*
D10*
%TO.C,MCU1*%
G36*
X264001840Y-104584880D02*
G01*
X264001840Y-105600880D01*
X262985840Y-105600880D01*
X262985840Y-104584880D01*
X264001840Y-104584880D01*
G37*
X264001840Y-104584880D02*
X264001840Y-105600880D01*
X262985840Y-105600880D01*
X262985840Y-104584880D01*
X264001840Y-104584880D01*
G36*
X264001840Y-107124880D02*
G01*
X264001840Y-108140880D01*
X262985840Y-108140880D01*
X262985840Y-107124880D01*
X264001840Y-107124880D01*
G37*
X264001840Y-107124880D02*
X264001840Y-108140880D01*
X262985840Y-108140880D01*
X262985840Y-107124880D01*
X264001840Y-107124880D01*
G36*
X264001840Y-109664880D02*
G01*
X264001840Y-110680880D01*
X262985840Y-110680880D01*
X262985840Y-109664880D01*
X264001840Y-109664880D01*
G37*
X264001840Y-109664880D02*
X264001840Y-110680880D01*
X262985840Y-110680880D01*
X262985840Y-109664880D01*
X264001840Y-109664880D01*
G36*
X264001840Y-112204880D02*
G01*
X264001840Y-113220880D01*
X262985840Y-113220880D01*
X262985840Y-112204880D01*
X264001840Y-112204880D01*
G37*
X264001840Y-112204880D02*
X264001840Y-113220880D01*
X262985840Y-113220880D01*
X262985840Y-112204880D01*
X264001840Y-112204880D01*
G36*
X264001840Y-114744880D02*
G01*
X264001840Y-115760880D01*
X262985840Y-115760880D01*
X262985840Y-114744880D01*
X264001840Y-114744880D01*
G37*
X264001840Y-114744880D02*
X264001840Y-115760880D01*
X262985840Y-115760880D01*
X262985840Y-114744880D01*
X264001840Y-114744880D01*
G36*
X264001840Y-117284880D02*
G01*
X264001840Y-118300880D01*
X262985840Y-118300880D01*
X262985840Y-117284880D01*
X264001840Y-117284880D01*
G37*
X264001840Y-117284880D02*
X264001840Y-118300880D01*
X262985840Y-118300880D01*
X262985840Y-117284880D01*
X264001840Y-117284880D01*
G36*
X264001840Y-119824880D02*
G01*
X264001840Y-120840880D01*
X262985840Y-120840880D01*
X262985840Y-119824880D01*
X264001840Y-119824880D01*
G37*
X264001840Y-119824880D02*
X264001840Y-120840880D01*
X262985840Y-120840880D01*
X262985840Y-119824880D01*
X264001840Y-119824880D01*
G36*
X264001840Y-122364880D02*
G01*
X264001840Y-123380880D01*
X262985840Y-123380880D01*
X262985840Y-122364880D01*
X264001840Y-122364880D01*
G37*
X264001840Y-122364880D02*
X264001840Y-123380880D01*
X262985840Y-123380880D01*
X262985840Y-122364880D01*
X264001840Y-122364880D01*
G36*
X264001840Y-124904880D02*
G01*
X264001840Y-125920880D01*
X262985840Y-125920880D01*
X262985840Y-124904880D01*
X264001840Y-124904880D01*
G37*
X264001840Y-124904880D02*
X264001840Y-125920880D01*
X262985840Y-125920880D01*
X262985840Y-124904880D01*
X264001840Y-124904880D01*
G36*
X264001840Y-127444880D02*
G01*
X264001840Y-128460880D01*
X262985840Y-128460880D01*
X262985840Y-127444880D01*
X264001840Y-127444880D01*
G37*
X264001840Y-127444880D02*
X264001840Y-128460880D01*
X262985840Y-128460880D01*
X262985840Y-127444880D01*
X264001840Y-127444880D01*
G36*
X264001840Y-129984880D02*
G01*
X264001840Y-131000880D01*
X262985840Y-131000880D01*
X262985840Y-129984880D01*
X264001840Y-129984880D01*
G37*
X264001840Y-129984880D02*
X264001840Y-131000880D01*
X262985840Y-131000880D01*
X262985840Y-129984880D01*
X264001840Y-129984880D01*
G36*
X264001840Y-132524880D02*
G01*
X264001840Y-133540880D01*
X262985840Y-133540880D01*
X262985840Y-132524880D01*
X264001840Y-132524880D01*
G37*
X264001840Y-132524880D02*
X264001840Y-133540880D01*
X262985840Y-133540880D01*
X262985840Y-132524880D01*
X264001840Y-132524880D01*
G36*
X274161840Y-105600880D02*
G01*
X274161840Y-104584880D01*
X275177840Y-104584880D01*
X275177840Y-105600880D01*
X274161840Y-105600880D01*
G37*
X274161840Y-105600880D02*
X274161840Y-104584880D01*
X275177840Y-104584880D01*
X275177840Y-105600880D01*
X274161840Y-105600880D01*
G36*
X274161840Y-108140880D02*
G01*
X274161840Y-107124880D01*
X275177840Y-107124880D01*
X275177840Y-108140880D01*
X274161840Y-108140880D01*
G37*
X274161840Y-108140880D02*
X274161840Y-107124880D01*
X275177840Y-107124880D01*
X275177840Y-108140880D01*
X274161840Y-108140880D01*
G36*
X274161840Y-110680880D02*
G01*
X274161840Y-109664880D01*
X275177840Y-109664880D01*
X275177840Y-110680880D01*
X274161840Y-110680880D01*
G37*
X274161840Y-110680880D02*
X274161840Y-109664880D01*
X275177840Y-109664880D01*
X275177840Y-110680880D01*
X274161840Y-110680880D01*
G36*
X274161840Y-113220880D02*
G01*
X274161840Y-112204880D01*
X275177840Y-112204880D01*
X275177840Y-113220880D01*
X274161840Y-113220880D01*
G37*
X274161840Y-113220880D02*
X274161840Y-112204880D01*
X275177840Y-112204880D01*
X275177840Y-113220880D01*
X274161840Y-113220880D01*
G36*
X274161840Y-115760880D02*
G01*
X274161840Y-114744880D01*
X275177840Y-114744880D01*
X275177840Y-115760880D01*
X274161840Y-115760880D01*
G37*
X274161840Y-115760880D02*
X274161840Y-114744880D01*
X275177840Y-114744880D01*
X275177840Y-115760880D01*
X274161840Y-115760880D01*
G36*
X274161840Y-118300880D02*
G01*
X274161840Y-117284880D01*
X275177840Y-117284880D01*
X275177840Y-118300880D01*
X274161840Y-118300880D01*
G37*
X274161840Y-118300880D02*
X274161840Y-117284880D01*
X275177840Y-117284880D01*
X275177840Y-118300880D01*
X274161840Y-118300880D01*
G36*
X274161840Y-120840880D02*
G01*
X274161840Y-119824880D01*
X275177840Y-119824880D01*
X275177840Y-120840880D01*
X274161840Y-120840880D01*
G37*
X274161840Y-120840880D02*
X274161840Y-119824880D01*
X275177840Y-119824880D01*
X275177840Y-120840880D01*
X274161840Y-120840880D01*
G36*
X274161840Y-123380880D02*
G01*
X274161840Y-122364880D01*
X275177840Y-122364880D01*
X275177840Y-123380880D01*
X274161840Y-123380880D01*
G37*
X274161840Y-123380880D02*
X274161840Y-122364880D01*
X275177840Y-122364880D01*
X275177840Y-123380880D01*
X274161840Y-123380880D01*
G36*
X274161840Y-125920880D02*
G01*
X274161840Y-124904880D01*
X275177840Y-124904880D01*
X275177840Y-125920880D01*
X274161840Y-125920880D01*
G37*
X274161840Y-125920880D02*
X274161840Y-124904880D01*
X275177840Y-124904880D01*
X275177840Y-125920880D01*
X274161840Y-125920880D01*
G36*
X274161840Y-128460880D02*
G01*
X274161840Y-127444880D01*
X275177840Y-127444880D01*
X275177840Y-128460880D01*
X274161840Y-128460880D01*
G37*
X274161840Y-128460880D02*
X274161840Y-127444880D01*
X275177840Y-127444880D01*
X275177840Y-128460880D01*
X274161840Y-128460880D01*
G36*
X274161840Y-131000880D02*
G01*
X274161840Y-129984880D01*
X275177840Y-129984880D01*
X275177840Y-131000880D01*
X274161840Y-131000880D01*
G37*
X274161840Y-131000880D02*
X274161840Y-129984880D01*
X275177840Y-129984880D01*
X275177840Y-131000880D01*
X274161840Y-131000880D01*
G36*
X274161840Y-133540880D02*
G01*
X274161840Y-132524880D01*
X275177840Y-132524880D01*
X275177840Y-133540880D01*
X274161840Y-133540880D01*
G37*
X274161840Y-133540880D02*
X274161840Y-132524880D01*
X275177840Y-132524880D01*
X275177840Y-133540880D01*
X274161840Y-133540880D01*
D11*
X269968840Y-105092880D02*
G75*
G03*
X269968840Y-105092880I-125000J0D01*
G01*
X268444840Y-105092880D02*
G75*
G03*
X268444840Y-105092880I-125000J0D01*
G01*
X268444840Y-107632880D02*
G75*
G03*
X268444840Y-107632880I-125000J0D01*
G01*
X269968840Y-107632880D02*
G75*
G03*
X269968840Y-107632880I-125000J0D01*
G01*
X269968840Y-110172880D02*
G75*
G03*
X269968840Y-110172880I-125000J0D01*
G01*
X268444840Y-110172880D02*
G75*
G03*
X268444840Y-110172880I-125000J0D01*
G01*
X269968840Y-112712880D02*
G75*
G03*
X269968840Y-112712880I-125000J0D01*
G01*
X268444840Y-112712880D02*
G75*
G03*
X268444840Y-112712880I-125000J0D01*
G01*
X269968840Y-115252880D02*
G75*
G03*
X269968840Y-115252880I-125000J0D01*
G01*
X268444840Y-115252880D02*
G75*
G03*
X268444840Y-115252880I-125000J0D01*
G01*
X269968840Y-117792880D02*
G75*
G03*
X269968840Y-117792880I-125000J0D01*
G01*
X268444840Y-117792880D02*
G75*
G03*
X268444840Y-117792880I-125000J0D01*
G01*
X269968840Y-120332880D02*
G75*
G03*
X269968840Y-120332880I-125000J0D01*
G01*
X268444840Y-120332880D02*
G75*
G03*
X268444840Y-120332880I-125000J0D01*
G01*
X269968840Y-122872880D02*
G75*
G03*
X269968840Y-122872880I-125000J0D01*
G01*
X268444840Y-122872880D02*
G75*
G03*
X268444840Y-122872880I-125000J0D01*
G01*
X269968840Y-125412880D02*
G75*
G03*
X269968840Y-125412880I-125000J0D01*
G01*
X268444840Y-125412880D02*
G75*
G03*
X268444840Y-125412880I-125000J0D01*
G01*
X269968840Y-127952880D02*
G75*
G03*
X269968840Y-127952880I-125000J0D01*
G01*
X268444840Y-127952880D02*
G75*
G03*
X268444840Y-127952880I-125000J0D01*
G01*
X269968840Y-130492880D02*
G75*
G03*
X269968840Y-130492880I-125000J0D01*
G01*
X268444840Y-130492880D02*
G75*
G03*
X268444840Y-130492880I-125000J0D01*
G01*
X269968840Y-133032880D02*
G75*
G03*
X269968840Y-133032880I-125000J0D01*
G01*
X268444840Y-133032880D02*
G75*
G03*
X268444840Y-133032880I-125000J0D01*
G01*
%TD*%
D10*
%TO.C,TRRS1*%
G36*
X272381840Y-150739880D02*
G01*
X271781840Y-151339880D01*
X271181840Y-150739880D01*
X271181840Y-150439880D01*
X272381840Y-150439880D01*
X272381840Y-150739880D01*
G37*
G36*
X269681840Y-144535880D02*
G01*
X270281840Y-143935880D01*
X270881840Y-144535880D01*
X270881840Y-144835880D01*
X269681840Y-144835880D01*
X269681840Y-144535880D01*
G37*
D12*
X271031840Y-149737880D03*
D10*
G36*
X272381840Y-152205880D02*
G01*
X271181840Y-152205880D01*
X271181840Y-150955880D01*
X271781840Y-151555880D01*
X272381840Y-150955880D01*
X272381840Y-152205880D01*
G37*
G36*
X269681840Y-143069880D02*
G01*
X270881840Y-143069880D01*
X270881840Y-144319880D01*
X270281840Y-143719880D01*
X269681840Y-144319880D01*
X269681840Y-143069880D01*
G37*
D13*
X280581840Y-147637880D03*
X273581840Y-147637880D03*
D12*
X271031840Y-145537880D03*
D14*
X275781840Y-149737880D03*
X278781840Y-149737880D03*
D13*
X273581840Y-147637880D03*
X280581840Y-147637880D03*
%TD*%
D15*
%TO.C,REF\u002A\u002A*%
X272232380Y-137403710D03*
X265932380Y-137403710D03*
X272232380Y-141203710D03*
X265932380Y-141203710D03*
%TD*%
D10*
%TO.C,MCU1*%
G36*
X275123840Y-133632880D02*
G01*
X274523840Y-133032880D01*
X275123840Y-132432880D01*
X275323840Y-132432880D01*
X275323840Y-133632880D01*
X275123840Y-133632880D01*
G37*
G36*
X273657840Y-133632880D02*
G01*
X273657840Y-132432880D01*
X274907840Y-132432880D01*
X274307840Y-133032880D01*
X274907840Y-133632880D01*
X273657840Y-133632880D01*
G37*
G36*
X275123840Y-131092880D02*
G01*
X274523840Y-130492880D01*
X275123840Y-129892880D01*
X275323840Y-129892880D01*
X275323840Y-131092880D01*
X275123840Y-131092880D01*
G37*
G36*
X273657840Y-131092880D02*
G01*
X273657840Y-129892880D01*
X274907840Y-129892880D01*
X274307840Y-130492880D01*
X274907840Y-131092880D01*
X273657840Y-131092880D01*
G37*
G36*
X275123840Y-128552880D02*
G01*
X274523840Y-127952880D01*
X275123840Y-127352880D01*
X275323840Y-127352880D01*
X275323840Y-128552880D01*
X275123840Y-128552880D01*
G37*
G36*
X273657840Y-128552880D02*
G01*
X273657840Y-127352880D01*
X274907840Y-127352880D01*
X274307840Y-127952880D01*
X274907840Y-128552880D01*
X273657840Y-128552880D01*
G37*
G36*
X275123840Y-126012880D02*
G01*
X274523840Y-125412880D01*
X275123840Y-124812880D01*
X275323840Y-124812880D01*
X275323840Y-126012880D01*
X275123840Y-126012880D01*
G37*
G36*
X273657840Y-126012880D02*
G01*
X273657840Y-124812880D01*
X274907840Y-124812880D01*
X274307840Y-125412880D01*
X274907840Y-126012880D01*
X273657840Y-126012880D01*
G37*
G36*
X275123840Y-123472880D02*
G01*
X274523840Y-122872880D01*
X275123840Y-122272880D01*
X275323840Y-122272880D01*
X275323840Y-123472880D01*
X275123840Y-123472880D01*
G37*
G36*
X273657840Y-123472880D02*
G01*
X273657840Y-122272880D01*
X274907840Y-122272880D01*
X274307840Y-122872880D01*
X274907840Y-123472880D01*
X273657840Y-123472880D01*
G37*
G36*
X275123840Y-120932880D02*
G01*
X274523840Y-120332880D01*
X275123840Y-119732880D01*
X275323840Y-119732880D01*
X275323840Y-120932880D01*
X275123840Y-120932880D01*
G37*
G36*
X273657840Y-120932880D02*
G01*
X273657840Y-119732880D01*
X274907840Y-119732880D01*
X274307840Y-120332880D01*
X274907840Y-120932880D01*
X273657840Y-120932880D01*
G37*
G36*
X275123840Y-118392880D02*
G01*
X274523840Y-117792880D01*
X275123840Y-117192880D01*
X275323840Y-117192880D01*
X275323840Y-118392880D01*
X275123840Y-118392880D01*
G37*
G36*
X273657840Y-118392880D02*
G01*
X273657840Y-117192880D01*
X274907840Y-117192880D01*
X274307840Y-117792880D01*
X274907840Y-118392880D01*
X273657840Y-118392880D01*
G37*
G36*
X275123840Y-115852880D02*
G01*
X274523840Y-115252880D01*
X275123840Y-114652880D01*
X275323840Y-114652880D01*
X275323840Y-115852880D01*
X275123840Y-115852880D01*
G37*
G36*
X273657840Y-115852880D02*
G01*
X273657840Y-114652880D01*
X274907840Y-114652880D01*
X274307840Y-115252880D01*
X274907840Y-115852880D01*
X273657840Y-115852880D01*
G37*
G36*
X275123840Y-113312880D02*
G01*
X274523840Y-112712880D01*
X275123840Y-112112880D01*
X275323840Y-112112880D01*
X275323840Y-113312880D01*
X275123840Y-113312880D01*
G37*
G36*
X273657840Y-113312880D02*
G01*
X273657840Y-112112880D01*
X274907840Y-112112880D01*
X274307840Y-112712880D01*
X274907840Y-113312880D01*
X273657840Y-113312880D01*
G37*
G36*
X275123840Y-110772880D02*
G01*
X274523840Y-110172880D01*
X275123840Y-109572880D01*
X275323840Y-109572880D01*
X275323840Y-110772880D01*
X275123840Y-110772880D01*
G37*
G36*
X273657840Y-110772880D02*
G01*
X273657840Y-109572880D01*
X274907840Y-109572880D01*
X274307840Y-110172880D01*
X274907840Y-110772880D01*
X273657840Y-110772880D01*
G37*
G36*
X275123840Y-108232880D02*
G01*
X274523840Y-107632880D01*
X275123840Y-107032880D01*
X275323840Y-107032880D01*
X275323840Y-108232880D01*
X275123840Y-108232880D01*
G37*
G36*
X273657840Y-108232880D02*
G01*
X273657840Y-107032880D01*
X274907840Y-107032880D01*
X274307840Y-107632880D01*
X274907840Y-108232880D01*
X273657840Y-108232880D01*
G37*
G36*
X273657840Y-105692880D02*
G01*
X273657840Y-104492880D01*
X274907840Y-104492880D01*
X274307840Y-105092880D01*
X274907840Y-105692880D01*
X273657840Y-105692880D01*
G37*
G36*
X275123840Y-105692880D02*
G01*
X274523840Y-105092880D01*
X275123840Y-104492880D01*
X275323840Y-104492880D01*
X275323840Y-105692880D01*
X275123840Y-105692880D01*
G37*
G36*
X264505840Y-132432880D02*
G01*
X264505840Y-133632880D01*
X263255840Y-133632880D01*
X263855840Y-133032880D01*
X263255840Y-132432880D01*
X264505840Y-132432880D01*
G37*
G36*
X263039840Y-132432880D02*
G01*
X263639840Y-133032880D01*
X263039840Y-133632880D01*
X262839840Y-133632880D01*
X262839840Y-132432880D01*
X263039840Y-132432880D01*
G37*
G36*
X264505840Y-129892880D02*
G01*
X264505840Y-131092880D01*
X263255840Y-131092880D01*
X263855840Y-130492880D01*
X263255840Y-129892880D01*
X264505840Y-129892880D01*
G37*
G36*
X263039840Y-129892880D02*
G01*
X263639840Y-130492880D01*
X263039840Y-131092880D01*
X262839840Y-131092880D01*
X262839840Y-129892880D01*
X263039840Y-129892880D01*
G37*
G36*
X264505840Y-127352880D02*
G01*
X264505840Y-128552880D01*
X263255840Y-128552880D01*
X263855840Y-127952880D01*
X263255840Y-127352880D01*
X264505840Y-127352880D01*
G37*
G36*
X263039840Y-127352880D02*
G01*
X263639840Y-127952880D01*
X263039840Y-128552880D01*
X262839840Y-128552880D01*
X262839840Y-127352880D01*
X263039840Y-127352880D01*
G37*
G36*
X264505840Y-124812880D02*
G01*
X264505840Y-126012880D01*
X263255840Y-126012880D01*
X263855840Y-125412880D01*
X263255840Y-124812880D01*
X264505840Y-124812880D01*
G37*
G36*
X263039840Y-124812880D02*
G01*
X263639840Y-125412880D01*
X263039840Y-126012880D01*
X262839840Y-126012880D01*
X262839840Y-124812880D01*
X263039840Y-124812880D01*
G37*
G36*
X264505840Y-122272880D02*
G01*
X264505840Y-123472880D01*
X263255840Y-123472880D01*
X263855840Y-122872880D01*
X263255840Y-122272880D01*
X264505840Y-122272880D01*
G37*
G36*
X263039840Y-122272880D02*
G01*
X263639840Y-122872880D01*
X263039840Y-123472880D01*
X262839840Y-123472880D01*
X262839840Y-122272880D01*
X263039840Y-122272880D01*
G37*
G36*
X264505840Y-119732880D02*
G01*
X264505840Y-120932880D01*
X263255840Y-120932880D01*
X263855840Y-120332880D01*
X263255840Y-119732880D01*
X264505840Y-119732880D01*
G37*
G36*
X263039840Y-119732880D02*
G01*
X263639840Y-120332880D01*
X263039840Y-120932880D01*
X262839840Y-120932880D01*
X262839840Y-119732880D01*
X263039840Y-119732880D01*
G37*
G36*
X264505840Y-117192880D02*
G01*
X264505840Y-118392880D01*
X263255840Y-118392880D01*
X263855840Y-117792880D01*
X263255840Y-117192880D01*
X264505840Y-117192880D01*
G37*
G36*
X263039840Y-117192880D02*
G01*
X263639840Y-117792880D01*
X263039840Y-118392880D01*
X262839840Y-118392880D01*
X262839840Y-117192880D01*
X263039840Y-117192880D01*
G37*
G36*
X264505840Y-114652880D02*
G01*
X264505840Y-115852880D01*
X263255840Y-115852880D01*
X263855840Y-115252880D01*
X263255840Y-114652880D01*
X264505840Y-114652880D01*
G37*
G36*
X263039840Y-114652880D02*
G01*
X263639840Y-115252880D01*
X263039840Y-115852880D01*
X262839840Y-115852880D01*
X262839840Y-114652880D01*
X263039840Y-114652880D01*
G37*
G36*
X264505840Y-112112880D02*
G01*
X264505840Y-113312880D01*
X263255840Y-113312880D01*
X263855840Y-112712880D01*
X263255840Y-112112880D01*
X264505840Y-112112880D01*
G37*
G36*
X263039840Y-112112880D02*
G01*
X263639840Y-112712880D01*
X263039840Y-113312880D01*
X262839840Y-113312880D01*
X262839840Y-112112880D01*
X263039840Y-112112880D01*
G37*
G36*
X264505840Y-109572880D02*
G01*
X264505840Y-110772880D01*
X263255840Y-110772880D01*
X263855840Y-110172880D01*
X263255840Y-109572880D01*
X264505840Y-109572880D01*
G37*
G36*
X263039840Y-109572880D02*
G01*
X263639840Y-110172880D01*
X263039840Y-110772880D01*
X262839840Y-110772880D01*
X262839840Y-109572880D01*
X263039840Y-109572880D01*
G37*
G36*
X264505840Y-107032880D02*
G01*
X264505840Y-108232880D01*
X263255840Y-108232880D01*
X263855840Y-107632880D01*
X263255840Y-107032880D01*
X264505840Y-107032880D01*
G37*
G36*
X263039840Y-107032880D02*
G01*
X263639840Y-107632880D01*
X263039840Y-108232880D01*
X262839840Y-108232880D01*
X262839840Y-107032880D01*
X263039840Y-107032880D01*
G37*
G36*
X263039840Y-104492880D02*
G01*
X263639840Y-105092880D01*
X263039840Y-105692880D01*
X262839840Y-105692880D01*
X262839840Y-104492880D01*
X263039840Y-104492880D01*
G37*
G36*
X264505840Y-104492880D02*
G01*
X264505840Y-105692880D01*
X263255840Y-105692880D01*
X263855840Y-105092880D01*
X263255840Y-104492880D01*
X264505840Y-104492880D01*
G37*
D16*
X276701840Y-105092880D03*
D17*
X276701840Y-105092880D03*
X276701840Y-107632880D03*
X276701840Y-110172880D03*
X276701840Y-112712880D03*
X276701840Y-115252880D03*
X276701840Y-117792880D03*
X276701840Y-120332880D03*
X276701840Y-122872880D03*
X276701840Y-125412880D03*
X276701840Y-127952880D03*
X276701840Y-130492880D03*
X276701840Y-133032880D03*
X261461840Y-133032880D03*
X261461840Y-130492880D03*
X261461840Y-127952880D03*
X261461840Y-125412880D03*
X261461840Y-122872880D03*
X261461840Y-120332880D03*
X261461840Y-117792880D03*
X261461840Y-115252880D03*
X261461840Y-112712880D03*
X261461840Y-110172880D03*
X261461840Y-107632880D03*
X261461840Y-105092880D03*
%TD*%
D18*
%TO.C,D7*%
X148369340Y-107394130D03*
X151669340Y-107394130D03*
D19*
X146209340Y-107394130D03*
D20*
X153829340Y-107394130D03*
%TD*%
D18*
%TO.C,D1*%
X148369340Y-164544130D03*
X151669340Y-164544130D03*
D19*
X146209340Y-164544130D03*
D20*
X153829340Y-164544130D03*
%TD*%
D18*
%TO.C,D3*%
X148369340Y-145494130D03*
X151669340Y-145494130D03*
D19*
X146209340Y-145494130D03*
D20*
X153829340Y-145494130D03*
%TD*%
D18*
%TO.C,D5*%
X148369340Y-126444130D03*
X151669340Y-126444130D03*
D19*
X146209340Y-126444130D03*
D20*
X153829340Y-126444130D03*
%TD*%
D18*
%TO.C,D9*%
X167419340Y-162162880D03*
X170719340Y-162162880D03*
D19*
X165259340Y-162162880D03*
D20*
X172879340Y-162162880D03*
%TD*%
D18*
%TO.C,D11*%
X167419340Y-143112880D03*
X170719340Y-143112880D03*
D19*
X165259340Y-143112880D03*
D20*
X172879340Y-143112880D03*
%TD*%
D18*
%TO.C,D13*%
X167419340Y-124062880D03*
X170719340Y-124062880D03*
D19*
X165259340Y-124062880D03*
D20*
X172879340Y-124062880D03*
%TD*%
D18*
%TO.C,D15*%
X167419340Y-105012880D03*
X170719340Y-105012880D03*
D19*
X165259340Y-105012880D03*
D20*
X172879340Y-105012880D03*
%TD*%
D18*
%TO.C,D17*%
X186469340Y-164544130D03*
X189769340Y-164544130D03*
D19*
X184309340Y-164544130D03*
D20*
X191929340Y-164544130D03*
%TD*%
D18*
%TO.C,D19*%
X186469340Y-145494130D03*
X189769340Y-145494130D03*
D19*
X184309340Y-145494130D03*
D20*
X191929340Y-145494130D03*
%TD*%
D18*
%TO.C,D21*%
X186469340Y-126444130D03*
X189769340Y-126444130D03*
D19*
X184309340Y-126444130D03*
D20*
X191929340Y-126444130D03*
%TD*%
D18*
%TO.C,D23*%
X186469340Y-107394130D03*
X189769340Y-107394130D03*
D19*
X184309340Y-107394130D03*
D20*
X191929340Y-107394130D03*
%TD*%
D18*
%TO.C,D25*%
X205519340Y-162162880D03*
X208819340Y-162162880D03*
D19*
X203359340Y-162162880D03*
D20*
X210979340Y-162162880D03*
%TD*%
D18*
%TO.C,D27*%
X205519340Y-143112880D03*
X208819340Y-143112880D03*
D19*
X203359340Y-143112880D03*
D20*
X210979340Y-143112880D03*
%TD*%
D18*
%TO.C,D29*%
X205519340Y-124062880D03*
X208819340Y-124062880D03*
D19*
X203359340Y-124062880D03*
D20*
X210979340Y-124062880D03*
%TD*%
D18*
%TO.C,D31*%
X205519340Y-105012880D03*
X208819340Y-105012880D03*
D19*
X203359340Y-105012880D03*
D20*
X210979340Y-105012880D03*
%TD*%
D18*
%TO.C,D33*%
X224569340Y-164544130D03*
X227869340Y-164544130D03*
D19*
X222409340Y-164544130D03*
D20*
X230029340Y-164544130D03*
%TD*%
D18*
%TO.C,D35*%
X224569340Y-145494130D03*
X227869340Y-145494130D03*
D19*
X222409340Y-145494130D03*
D20*
X230029340Y-145494130D03*
%TD*%
D18*
%TO.C,D37*%
X224569340Y-126444130D03*
X227869340Y-126444130D03*
D19*
X222409340Y-126444130D03*
D20*
X230029340Y-126444130D03*
%TD*%
D18*
%TO.C,D39*%
X224569340Y-107394130D03*
X227869340Y-107394130D03*
D19*
X222409340Y-107394130D03*
D20*
X230029340Y-107394130D03*
%TD*%
D18*
%TO.C,D41*%
X243619340Y-147875380D03*
X246919340Y-147875380D03*
D19*
X241459340Y-147875380D03*
D20*
X249079340Y-147875380D03*
%TD*%
D18*
%TO.C,D43*%
X243619340Y-128825380D03*
X246919340Y-128825380D03*
D19*
X241459340Y-128825380D03*
D20*
X249079340Y-128825380D03*
%TD*%
D18*
%TO.C,D45*%
X243619340Y-109775380D03*
X246919340Y-109775380D03*
D19*
X241459340Y-109775380D03*
D20*
X249079340Y-109775380D03*
%TD*%
D10*
%TO.C,D47*%
G36*
X268464028Y-183747523D02*
G01*
X269503258Y-184347523D01*
X269053258Y-185126945D01*
X268014028Y-184526945D01*
X268464028Y-183747523D01*
G37*
G36*
X270114028Y-180889639D02*
G01*
X271153258Y-181489639D01*
X270703258Y-182269061D01*
X269664028Y-181669061D01*
X270114028Y-180889639D01*
G37*
D19*
X267678643Y-186307849D03*
D10*
G36*
X271163246Y-178494338D02*
G01*
X272703040Y-179383338D01*
X271814040Y-180923132D01*
X270274246Y-180034132D01*
X271163246Y-178494338D01*
G37*
%TD*%
%TO.C,D49*%
G36*
X251966244Y-174222523D02*
G01*
X253005474Y-174822523D01*
X252555474Y-175601945D01*
X251516244Y-175001945D01*
X251966244Y-174222523D01*
G37*
G36*
X253616244Y-171364639D02*
G01*
X254655474Y-171964639D01*
X254205474Y-172744061D01*
X253166244Y-172144061D01*
X253616244Y-171364639D01*
G37*
D19*
X251180859Y-176782849D03*
D10*
G36*
X254665462Y-168969338D02*
G01*
X256205256Y-169858338D01*
X255316256Y-171398132D01*
X253776462Y-170509132D01*
X254665462Y-168969338D01*
G37*
%TD*%
D21*
%TO.C,Ref\u002A\u002A*%
X273844900Y-157163160D03*
%TD*%
D22*
%TO.C,REF\u002A\u002A*%
X264319860Y-147638120D03*
%TD*%
%TO.C,REF\u002A\u002A*%
X257005014Y-175746162D03*
%TD*%
%TO.C,REF\u002A\u002A*%
X235744740Y-104775440D03*
%TD*%
%TO.C,REF\u002A\u002A*%
X216694660Y-157163160D03*
%TD*%
%TO.C,REF\u002A\u002A*%
X197644580Y-128588040D03*
%TD*%
%TO.C,REF\u002A\u002A*%
X159544420Y-157163160D03*
%TD*%
%TO.C,REF\u002A\u002A*%
X159544420Y-102394180D03*
%TD*%
D23*
%TO.C,S1*%
X150019340Y-159544130D03*
D24*
X155099340Y-159544130D03*
X144939340Y-159544130D03*
D25*
X152559340Y-154464130D03*
X146209340Y-157004130D03*
D26*
X142934340Y-157004130D03*
X155861340Y-154464130D03*
D25*
X147479340Y-154464130D03*
X153829340Y-157004130D03*
%TD*%
D23*
%TO.C,S2*%
X150019340Y-140494130D03*
D24*
X155099340Y-140494130D03*
X144939340Y-140494130D03*
D25*
X152559340Y-135414130D03*
X146209340Y-137954130D03*
D26*
X142934340Y-137954130D03*
X155861340Y-135414130D03*
D25*
X147479340Y-135414130D03*
X153829340Y-137954130D03*
%TD*%
D23*
%TO.C,S3*%
X150019340Y-121444130D03*
D24*
X155099340Y-121444130D03*
X144939340Y-121444130D03*
D25*
X152559340Y-116364130D03*
X146209340Y-118904130D03*
D26*
X142934340Y-118904130D03*
X155861340Y-116364130D03*
D25*
X147479340Y-116364130D03*
X153829340Y-118904130D03*
%TD*%
D23*
%TO.C,S4*%
X150019340Y-102394130D03*
D24*
X155099340Y-102394130D03*
X144939340Y-102394130D03*
D25*
X152559340Y-97314130D03*
X146209340Y-99854130D03*
D26*
X142934340Y-99854130D03*
X155861340Y-97314130D03*
D25*
X147479340Y-97314130D03*
X153829340Y-99854130D03*
%TD*%
D23*
%TO.C,S5*%
X169069340Y-157162880D03*
D24*
X174149340Y-157162880D03*
X163989340Y-157162880D03*
D25*
X171609340Y-152082880D03*
X165259340Y-154622880D03*
D26*
X161984340Y-154622880D03*
X174911340Y-152082880D03*
D25*
X166529340Y-152082880D03*
X172879340Y-154622880D03*
%TD*%
D23*
%TO.C,S6*%
X169069340Y-138112880D03*
D24*
X174149340Y-138112880D03*
X163989340Y-138112880D03*
D25*
X171609340Y-133032880D03*
X165259340Y-135572880D03*
D26*
X161984340Y-135572880D03*
X174911340Y-133032880D03*
D25*
X166529340Y-133032880D03*
X172879340Y-135572880D03*
%TD*%
D23*
%TO.C,S7*%
X169069340Y-119063000D03*
D24*
X174149340Y-119063000D03*
X163989340Y-119063000D03*
D25*
X171609340Y-113983000D03*
X165259340Y-116523000D03*
D26*
X161984340Y-116523000D03*
X174911340Y-113983000D03*
D25*
X166529340Y-113983000D03*
X172879340Y-116523000D03*
%TD*%
D23*
%TO.C,S8*%
X169069340Y-100012880D03*
D24*
X174149340Y-100012880D03*
X163989340Y-100012880D03*
D25*
X171609340Y-94932880D03*
X165259340Y-97472880D03*
D26*
X161984340Y-97472880D03*
X174911340Y-94932880D03*
D25*
X166529340Y-94932880D03*
X172879340Y-97472880D03*
%TD*%
D23*
%TO.C,S9*%
X188119340Y-159544130D03*
D24*
X193199340Y-159544130D03*
X183039340Y-159544130D03*
D25*
X190659340Y-154464130D03*
X184309340Y-157004130D03*
D26*
X181034340Y-157004130D03*
X193961340Y-154464130D03*
D25*
X185579340Y-154464130D03*
X191929340Y-157004130D03*
%TD*%
D23*
%TO.C,S10*%
X188119340Y-140494130D03*
D24*
X193199340Y-140494130D03*
X183039340Y-140494130D03*
D25*
X190659340Y-135414130D03*
X184309340Y-137954130D03*
D26*
X181034340Y-137954130D03*
X193961340Y-135414130D03*
D25*
X185579340Y-135414130D03*
X191929340Y-137954130D03*
%TD*%
D23*
%TO.C,S11*%
X188119340Y-121444130D03*
D24*
X193199340Y-121444130D03*
X183039340Y-121444130D03*
D25*
X190659340Y-116364130D03*
X184309340Y-118904130D03*
D26*
X181034340Y-118904130D03*
X193961340Y-116364130D03*
D25*
X185579340Y-116364130D03*
X191929340Y-118904130D03*
%TD*%
D23*
%TO.C,S12*%
X188119340Y-102394130D03*
D24*
X193199340Y-102394130D03*
X183039340Y-102394130D03*
D25*
X190659340Y-97314130D03*
X184309340Y-99854130D03*
D26*
X181034340Y-99854130D03*
X193961340Y-97314130D03*
D25*
X185579340Y-97314130D03*
X191929340Y-99854130D03*
%TD*%
D23*
%TO.C,S13*%
X207169340Y-157162880D03*
D24*
X212249340Y-157162880D03*
X202089340Y-157162880D03*
D25*
X209709340Y-152082880D03*
X203359340Y-154622880D03*
D26*
X200084340Y-154622880D03*
X213011340Y-152082880D03*
D25*
X204629340Y-152082880D03*
X210979340Y-154622880D03*
%TD*%
D23*
%TO.C,S14*%
X207169340Y-138112880D03*
D24*
X212249340Y-138112880D03*
X202089340Y-138112880D03*
D25*
X209709340Y-133032880D03*
X203359340Y-135572880D03*
D26*
X200084340Y-135572880D03*
X213011340Y-133032880D03*
D25*
X204629340Y-133032880D03*
X210979340Y-135572880D03*
%TD*%
D23*
%TO.C,S15*%
X207169340Y-119062880D03*
D24*
X212249340Y-119062880D03*
X202089340Y-119062880D03*
D25*
X209709340Y-113982880D03*
X203359340Y-116522880D03*
D26*
X200084340Y-116522880D03*
X213011340Y-113982880D03*
D25*
X204629340Y-113982880D03*
X210979340Y-116522880D03*
%TD*%
D23*
%TO.C,S16*%
X207169340Y-100012880D03*
D24*
X212249340Y-100012880D03*
X202089340Y-100012880D03*
D25*
X209709340Y-94932880D03*
X203359340Y-97472880D03*
D26*
X200084340Y-97472880D03*
X213011340Y-94932880D03*
D25*
X204629340Y-94932880D03*
X210979340Y-97472880D03*
%TD*%
D23*
%TO.C,S17*%
X226219340Y-159544130D03*
D24*
X231299340Y-159544130D03*
X221139340Y-159544130D03*
D25*
X228759340Y-154464130D03*
X222409340Y-157004130D03*
D26*
X219134340Y-157004130D03*
X232061340Y-154464130D03*
D25*
X223679340Y-154464130D03*
X230029340Y-157004130D03*
%TD*%
D23*
%TO.C,S18*%
X226219340Y-140494130D03*
D24*
X231299340Y-140494130D03*
X221139340Y-140494130D03*
D25*
X228759340Y-135414130D03*
X222409340Y-137954130D03*
D26*
X219134340Y-137954130D03*
X232061340Y-135414130D03*
D25*
X223679340Y-135414130D03*
X230029340Y-137954130D03*
%TD*%
D23*
%TO.C,S19*%
X226219340Y-121444130D03*
D24*
X231299340Y-121444130D03*
X221139340Y-121444130D03*
D25*
X228759340Y-116364130D03*
X222409340Y-118904130D03*
D26*
X219134340Y-118904130D03*
X232061340Y-116364130D03*
D25*
X223679340Y-116364130D03*
X230029340Y-118904130D03*
%TD*%
D23*
%TO.C,S20*%
X226219340Y-102394130D03*
D24*
X231299340Y-102394130D03*
X221139340Y-102394130D03*
D25*
X228759340Y-97314130D03*
X222409340Y-99854130D03*
D26*
X219134340Y-99854130D03*
X232061340Y-97314130D03*
D25*
X223679340Y-97314130D03*
X230029340Y-99854130D03*
%TD*%
D23*
%TO.C,S21*%
X245269340Y-142875380D03*
D24*
X250349340Y-142875380D03*
X240189340Y-142875380D03*
D25*
X247809340Y-137795380D03*
X241459340Y-140335380D03*
D26*
X238184340Y-140335380D03*
X251111340Y-137795380D03*
D25*
X242729340Y-137795380D03*
X249079340Y-140335380D03*
%TD*%
D23*
%TO.C,S22*%
X245269340Y-123825380D03*
D24*
X250349340Y-123825380D03*
X240189340Y-123825380D03*
D25*
X247809340Y-118745380D03*
X241459340Y-121285380D03*
D26*
X238184340Y-121285380D03*
X251111340Y-118745380D03*
D25*
X242729340Y-118745380D03*
X249079340Y-121285380D03*
%TD*%
D23*
%TO.C,S23*%
X245269340Y-104775380D03*
D24*
X250349340Y-104775380D03*
X240189340Y-104775380D03*
D25*
X247809340Y-99695380D03*
X241459340Y-102235380D03*
D26*
X238184340Y-102235380D03*
X251111340Y-99695380D03*
D25*
X242729340Y-99695380D03*
X249079340Y-102235380D03*
%TD*%
D23*
%TO.C,S24*%
X265253516Y-180508292D03*
D24*
X267793516Y-176108883D03*
X262713516Y-184907701D03*
D25*
X262124107Y-175768587D03*
X261148811Y-182537849D03*
D26*
X259511311Y-185374082D03*
X263775107Y-172908972D03*
D25*
X259584107Y-180167997D03*
X264958811Y-175938735D03*
%TD*%
D23*
%TO.C,S25*%
X248755732Y-170983292D03*
D24*
X251295732Y-166583883D03*
X246215732Y-175382701D03*
D25*
X245626323Y-166243587D03*
X244651027Y-173012849D03*
D26*
X243013527Y-175849082D03*
X247277323Y-163383972D03*
D25*
X243086323Y-170642997D03*
X248461027Y-166413735D03*
%TD*%
M02*
