M48
; DRILL file {KiCad (5.1.9)-1} date 08/27/21 08:53:57
; FORMAT={-:-/ absolute / metric / decimal}
; #@! TF.CreationDate,2021-08-27T08:53:57-07:00
; #@! TF.GenerationSoftware,Kicad,Pcbnew,(5.1.9)-1
; #@! TF.FileFunction,NonPlated,1,2,NPTH
FMAT,2
METRIC
T1C1.200
T2C1.702
T3C2.500
T4C3.000
T5C3.988
T6C4.750
%
G90
G05
T1
X273.582Y-147.638
X273.582Y-147.638
X280.582Y-147.638
X280.582Y-147.638
T2
X144.939Y-102.394
X144.939Y-121.444
X144.939Y-140.494
X144.939Y-159.544
X155.099Y-102.394
X155.099Y-121.444
X155.099Y-140.494
X155.099Y-159.544
X163.989Y-100.013
X163.989Y-119.063
X163.989Y-138.113
X163.989Y-157.163
X174.149Y-100.013
X174.149Y-119.063
X174.149Y-138.113
X174.149Y-157.163
X183.039Y-102.394
X183.039Y-121.444
X183.039Y-140.494
X183.039Y-159.544
X193.199Y-102.394
X193.199Y-121.444
X193.199Y-140.494
X193.199Y-159.544
X202.089Y-100.013
X202.089Y-119.063
X202.089Y-138.113
X202.089Y-157.163
X212.249Y-100.013
X212.249Y-119.063
X212.249Y-138.113
X212.249Y-157.163
X221.139Y-102.394
X221.139Y-121.444
X221.139Y-140.494
X221.139Y-159.544
X231.299Y-102.394
X231.299Y-121.444
X231.299Y-140.494
X231.299Y-159.544
X240.189Y-104.775
X240.189Y-123.825
X240.189Y-142.875
X246.216Y-175.383
X250.349Y-104.775
X250.349Y-123.825
X250.349Y-142.875
X251.296Y-166.584
X262.714Y-184.908
X267.794Y-176.109
T3
X159.544Y-102.394
X159.544Y-157.163
X197.645Y-128.588
X216.695Y-157.163
X235.745Y-104.775
X257.005Y-175.746
X264.32Y-147.638
T4
X146.209Y-99.854
X146.209Y-118.904
X146.209Y-137.954
X146.209Y-157.004
X147.479Y-97.314
X147.479Y-116.364
X147.479Y-135.414
X147.479Y-154.464
X152.559Y-97.314
X152.559Y-116.364
X152.559Y-135.414
X152.559Y-154.464
X153.829Y-99.854
X153.829Y-118.904
X153.829Y-137.954
X153.829Y-157.004
X165.259Y-97.473
X165.259Y-116.523
X165.259Y-135.573
X165.259Y-154.623
X166.529Y-94.933
X166.529Y-113.983
X166.529Y-133.033
X166.529Y-152.083
X171.609Y-94.933
X171.609Y-113.983
X171.609Y-133.033
X171.609Y-152.083
X172.879Y-97.473
X172.879Y-116.523
X172.879Y-135.573
X172.879Y-154.623
X184.309Y-99.854
X184.309Y-118.904
X184.309Y-137.954
X184.309Y-157.004
X185.579Y-97.314
X185.579Y-116.364
X185.579Y-135.414
X185.579Y-154.464
X190.659Y-97.314
X190.659Y-116.364
X190.659Y-135.414
X190.659Y-154.464
X191.929Y-99.854
X191.929Y-118.904
X191.929Y-137.954
X191.929Y-157.004
X203.359Y-97.473
X203.359Y-116.523
X203.359Y-135.573
X203.359Y-154.623
X204.629Y-94.933
X204.629Y-113.983
X204.629Y-133.033
X204.629Y-152.083
X209.709Y-94.933
X209.709Y-113.983
X209.709Y-133.033
X209.709Y-152.083
X210.979Y-97.473
X210.979Y-116.523
X210.979Y-135.573
X210.979Y-154.623
X222.409Y-99.854
X222.409Y-118.904
X222.409Y-137.954
X222.409Y-157.004
X223.679Y-97.314
X223.679Y-116.364
X223.679Y-135.414
X223.679Y-154.464
X228.759Y-97.314
X228.759Y-116.364
X228.759Y-135.414
X228.759Y-154.464
X230.029Y-99.854
X230.029Y-118.904
X230.029Y-137.954
X230.029Y-157.004
X241.459Y-102.235
X241.459Y-121.285
X241.459Y-140.335
X242.729Y-99.695
X242.729Y-118.745
X242.729Y-137.795
X243.086Y-170.643
X244.651Y-173.013
X245.626Y-166.244
X247.809Y-99.695
X247.809Y-118.745
X247.809Y-137.795
X248.461Y-166.414
X249.079Y-102.235
X249.079Y-121.285
X249.079Y-140.335
X259.584Y-180.168
X261.149Y-182.538
X262.124Y-175.769
X264.959Y-175.939
T5
X150.019Y-102.394
X150.019Y-121.444
X150.019Y-140.494
X150.019Y-159.544
X169.069Y-100.013
X169.069Y-119.063
X169.069Y-138.113
X169.069Y-157.163
X188.119Y-102.394
X188.119Y-121.444
X188.119Y-140.494
X188.119Y-159.544
X207.169Y-100.013
X207.169Y-119.063
X207.169Y-138.113
X207.169Y-157.163
X226.219Y-102.394
X226.219Y-121.444
X226.219Y-140.494
X226.219Y-159.544
X245.269Y-104.775
X245.269Y-123.825
X245.269Y-142.875
X248.756Y-170.983
X265.254Y-180.508
T6
X273.845Y-157.163
T0
M30
