%FSLAX45Y45*%
G04 Gerber Fmt 4.5, Leading zero omitted, Abs format (unit mm)*
G04 Created by KiCad (PCBNEW (5.1.9)-1) date 2021-08-27 08:54:17*
%MOMM*%
%LPD*%
G01*
G04 APERTURE LIST*
%TA.AperFunction,Profile*%
%ADD10C,0.150000*%
%TD*%
%ADD11C,0.200000*%
%ADD12C,0.300000*%
G04 APERTURE END LIST*
D10*
X26545438Y-19308693D02*
X26549438Y-19306993D01*
X26529038Y-19314593D02*
X26533238Y-19313193D01*
X26576738Y-19293393D02*
X26580638Y-19291093D01*
X26569138Y-19297593D02*
X26573038Y-19295493D01*
X26557438Y-19303393D02*
X26561538Y-19301493D01*
X26508138Y-19320493D02*
X26512238Y-19319493D01*
X26541338Y-19310293D02*
X26545438Y-19308693D01*
X26533238Y-19313193D02*
X26537338Y-19311793D01*
X26512238Y-19319493D02*
X26516538Y-19318293D01*
X26524838Y-19315993D02*
X26529038Y-19314593D01*
X26580638Y-19291093D02*
X26584238Y-19288893D01*
X26573038Y-19295493D02*
X26576738Y-19293393D01*
X26503838Y-19321393D02*
X26508138Y-19320493D01*
X26565238Y-19299593D02*
X26569138Y-19297593D01*
X26561538Y-19301493D02*
X26565238Y-19299593D01*
X26490838Y-19323793D02*
X26495238Y-19323093D01*
X26516538Y-19318293D02*
X26520738Y-19317193D01*
X26549438Y-19306993D02*
X26553438Y-19305293D01*
X26520738Y-19317193D02*
X26524838Y-19315993D01*
X26495238Y-19323093D02*
X26499438Y-19322293D01*
X26553438Y-19305293D02*
X26557438Y-19303393D01*
X26499438Y-19322293D02*
X26503838Y-19321393D01*
X26537338Y-19311793D02*
X26541338Y-19310293D01*
X28214838Y-10204763D02*
X28210938Y-10202503D01*
X28187738Y-10190663D02*
X28183738Y-10188913D01*
X28218438Y-10207013D02*
X28214838Y-10204763D01*
X28199438Y-10196253D02*
X28195638Y-10194373D01*
X28150638Y-10177543D02*
X28146438Y-10176453D01*
X28195638Y-10194373D02*
X28191638Y-10192443D01*
X28154938Y-10178733D02*
X28150638Y-10177543D01*
X28210938Y-10202503D02*
X28207238Y-10200373D01*
X28167438Y-10182663D02*
X28163238Y-10181263D01*
X28159038Y-10179943D02*
X28154938Y-10178733D01*
X28163238Y-10181263D02*
X28159038Y-10179943D01*
X28171538Y-10184113D02*
X28167438Y-10182663D01*
X28207238Y-10200373D02*
X28203338Y-10198303D01*
X28229338Y-10214213D02*
X28225838Y-10211813D01*
X28222138Y-10209343D02*
X28218438Y-10207013D01*
X28191638Y-10192443D02*
X28187738Y-10190663D01*
X28142338Y-10175453D02*
X28137938Y-10174493D01*
X28203338Y-10198303D02*
X28199438Y-10196253D01*
X28179638Y-10187223D02*
X28175638Y-10185633D01*
X28225838Y-10211813D02*
X28222138Y-10209343D01*
X28146438Y-10176453D02*
X28142338Y-10175453D01*
X28175638Y-10185633D02*
X28171538Y-10184113D01*
X28183738Y-10188913D02*
X28179638Y-10187223D01*
X28236438Y-10219323D02*
X28232938Y-10216803D01*
X28246738Y-10227523D02*
X28243338Y-10224753D01*
X28265838Y-10245403D02*
X28262738Y-10242253D01*
X28290838Y-10275683D02*
X28288238Y-10272053D01*
X28271738Y-10251733D02*
X28268838Y-10248513D01*
X28288238Y-10272053D02*
X28285738Y-10268643D01*
X28268838Y-10248513D02*
X28265838Y-10245403D01*
X28285738Y-10268643D02*
X28283038Y-10265113D01*
X28243338Y-10224753D02*
X28239938Y-10222033D01*
X28250038Y-10230363D02*
X28246738Y-10227523D01*
X28280238Y-10261693D02*
X28277538Y-10258333D01*
X28259638Y-10239163D02*
X28256538Y-10236213D01*
X28256538Y-10236213D02*
X28253338Y-10233263D01*
X28298038Y-10286573D02*
X28295638Y-10282903D01*
X28283038Y-10265113D02*
X28280238Y-10261693D01*
X28253338Y-10233263D02*
X28250038Y-10230363D01*
X28277538Y-10258333D02*
X28274638Y-10255013D01*
X28295638Y-10282903D02*
X28293238Y-10279163D01*
X28293238Y-10279163D02*
X28290838Y-10275683D01*
X28239938Y-10222033D02*
X28236438Y-10219323D01*
X28262738Y-10242253D02*
X28259638Y-10239163D01*
X28232938Y-10216803D02*
X28229338Y-10214213D01*
X28274638Y-10255013D02*
X28271738Y-10251733D01*
X14304533Y-16445713D02*
X14305245Y-16449973D01*
X14303884Y-16441373D02*
X14304533Y-16445713D01*
X14390751Y-16598093D02*
X14394114Y-16600863D01*
X14318057Y-16496173D02*
X14319641Y-16500193D01*
X14337179Y-16535373D02*
X14339430Y-16539043D01*
X14306047Y-16454293D02*
X14306913Y-16458553D01*
X14305245Y-16449973D02*
X14306047Y-16454293D01*
X14384155Y-16592353D02*
X14387431Y-16595253D01*
X14380934Y-16589403D02*
X14384155Y-16592353D01*
X14316529Y-16492093D02*
X14318057Y-16496173D01*
X14323080Y-16508293D02*
X14324859Y-16512203D01*
X14368631Y-16577103D02*
X14371582Y-16580213D01*
X14365679Y-16573883D02*
X14368631Y-16577103D01*
X14357173Y-16563923D02*
X14359945Y-16567283D01*
X14309964Y-16471253D02*
X14311151Y-16475533D01*
X14313684Y-16483823D02*
X14315080Y-16487993D01*
X14346632Y-16549933D02*
X14349224Y-16553563D01*
X14319641Y-16500193D02*
X14321330Y-16504273D01*
X14308871Y-16467033D02*
X14309964Y-16471253D01*
X14339430Y-16539043D02*
X14341763Y-16542703D01*
X14359945Y-16567283D02*
X14362780Y-16570603D01*
X14341763Y-16542703D02*
X14344238Y-16546443D01*
X14332797Y-16527783D02*
X14334927Y-16531553D01*
X14401060Y-16606283D02*
X14404469Y-16608813D01*
X14324859Y-16512203D02*
X14326794Y-16516253D01*
X14321330Y-16504273D02*
X14323080Y-16508293D01*
X14394114Y-16600863D02*
X14397534Y-16603583D01*
X14328675Y-16520033D02*
X14330722Y-16523963D01*
X14377822Y-16586453D02*
X14380934Y-16589403D01*
X14387431Y-16595253D02*
X14390751Y-16598093D01*
X14312364Y-16479633D02*
X14313684Y-16483823D01*
X14397534Y-16603583D02*
X14401060Y-16606283D01*
X14306913Y-16458553D02*
X14307872Y-16462873D01*
X14374676Y-16583353D02*
X14377822Y-16586453D01*
X14311151Y-16475533D02*
X14312364Y-16479633D01*
X14371582Y-16580213D02*
X14374676Y-16583353D01*
X14362780Y-16570603D02*
X14365679Y-16573883D01*
X14351747Y-16556973D02*
X14354452Y-16560503D01*
X14334927Y-16531553D02*
X14337179Y-16535373D01*
X14349224Y-16553563D02*
X14351747Y-16556973D01*
X14315080Y-16487993D02*
X14316529Y-16492093D01*
X14307872Y-16462873D02*
X14308871Y-16467033D01*
X14344238Y-16546443D02*
X14346632Y-16549933D01*
X14326794Y-16516253D02*
X14328675Y-16520033D01*
X14354452Y-16560503D02*
X14357173Y-16563923D01*
X14330722Y-16523963D02*
X14332797Y-16527783D01*
X14302064Y-16424063D02*
X14302400Y-16428343D01*
X14301588Y-9751634D02*
X14301481Y-9756046D01*
X14319432Y-9666759D02*
X14317878Y-9670726D01*
X14301766Y-9747296D02*
X14301588Y-9751634D01*
X14305938Y-9712704D02*
X14305148Y-9717023D01*
X14346382Y-9616861D02*
X14343878Y-9620522D01*
X14317878Y-9670726D02*
X14316334Y-9674886D01*
X14343878Y-9620522D02*
X14341482Y-9624158D01*
X14351513Y-9609770D02*
X14348840Y-9613402D01*
X14303245Y-9729964D02*
X14302769Y-9734236D01*
X14301605Y-16415293D02*
X14301797Y-16419703D01*
X14301452Y-9759912D02*
X14301452Y-16406493D01*
X14302769Y-9734236D02*
X14302357Y-9738603D01*
X14314888Y-9678995D02*
X14313548Y-9683035D01*
X14322842Y-9658673D02*
X14321112Y-9662678D01*
X14303317Y-16437063D02*
X14303884Y-16441373D01*
X14304449Y-9721259D02*
X14303814Y-9725561D01*
X14301452Y-16406493D02*
X14301492Y-16410963D01*
X14302400Y-16428343D02*
X14302818Y-16432673D01*
X14302357Y-9738603D02*
X14302023Y-9742990D01*
X14301797Y-16419703D02*
X14302064Y-16424063D01*
X14308746Y-9699904D02*
X14307742Y-9704127D01*
X14316334Y-9674886D02*
X14314888Y-9678995D01*
X14301492Y-16410963D02*
X14301605Y-16415293D01*
X14312191Y-9687366D02*
X14310997Y-9691434D01*
X14301481Y-9756046D02*
X14301452Y-9759912D01*
X14305148Y-9717023D02*
X14304449Y-9721259D01*
X14334686Y-9635304D02*
X14332547Y-9639105D01*
X14306806Y-9708388D02*
X14305938Y-9712704D01*
X14309828Y-9695685D02*
X14308746Y-9699904D01*
X14339176Y-9627797D02*
X14336843Y-9631622D01*
X14310997Y-9691434D02*
X14309828Y-9695685D01*
X14326525Y-9650728D02*
X14324652Y-9654680D01*
X14328450Y-9646851D02*
X14326525Y-9650728D01*
X14330451Y-9642981D02*
X14328450Y-9646851D01*
X14332547Y-9639105D02*
X14330451Y-9642981D01*
X14348840Y-9613402D02*
X14346382Y-9616861D01*
X14341482Y-9624158D02*
X14339176Y-9627797D01*
X14303814Y-9725561D02*
X14303245Y-9729964D01*
X14336843Y-9631622D02*
X14334686Y-9635304D01*
X14321112Y-9662678D02*
X14319432Y-9666759D01*
X14302023Y-9742990D02*
X14301766Y-9747296D01*
X14302818Y-16432673D02*
X14303317Y-16437063D01*
X14324652Y-9654680D02*
X14322842Y-9658673D01*
X14313548Y-9683035D02*
X14312191Y-9687366D01*
X14307742Y-9704127D02*
X14306806Y-9708388D01*
X14465406Y-9525127D02*
X14461328Y-9526662D01*
X14461328Y-9526662D02*
X14457359Y-9528233D01*
X14477778Y-9520955D02*
X14473689Y-9522255D01*
X14354087Y-9606401D02*
X14351513Y-9609770D01*
X14356817Y-9602954D02*
X14354087Y-9606401D01*
X14359584Y-9599585D02*
X14356817Y-9602954D01*
X14377444Y-9580350D02*
X14374296Y-9583458D01*
X14511750Y-9513025D02*
X14507478Y-9513750D01*
X14404057Y-9557925D02*
X14400549Y-9560533D01*
X14490415Y-9517419D02*
X14486253Y-9518506D01*
X14383761Y-9574434D02*
X14380542Y-9577397D01*
X14457359Y-9528233D02*
X14453234Y-9529954D01*
X14469534Y-9523654D02*
X14465406Y-9525127D01*
X14449267Y-9531688D02*
X14445285Y-9533514D01*
X14362434Y-9596231D02*
X14359584Y-9599585D01*
X14400549Y-9560533D02*
X14397088Y-9563202D01*
X14486253Y-9518506D02*
X14482022Y-9519688D01*
X14390290Y-9568730D02*
X14387040Y-9571519D01*
X14365286Y-9592993D02*
X14362434Y-9596231D01*
X14371212Y-9586609D02*
X14368254Y-9589738D01*
X14507478Y-9513750D02*
X14503260Y-9514542D01*
X14397088Y-9563202D02*
X14393727Y-9565887D01*
X14407624Y-9555370D02*
X14404057Y-9557925D01*
X14418560Y-9548099D02*
X14414834Y-9550484D01*
X14482022Y-9519688D02*
X14477778Y-9520955D01*
X14441444Y-9535358D02*
X14437429Y-9537369D01*
X14473689Y-9522255D02*
X14469534Y-9523654D01*
X14494708Y-9516379D02*
X14490415Y-9517419D01*
X14516154Y-9512358D02*
X14511750Y-9513025D01*
X14498965Y-9515424D02*
X14494708Y-9516379D01*
X14503260Y-9514542D02*
X14498965Y-9515424D01*
X14520430Y-9511784D02*
X14516154Y-9512358D01*
X14368254Y-9589738D02*
X14365286Y-9592993D01*
X14445285Y-9533514D02*
X14441444Y-9535358D01*
X14374296Y-9583458D02*
X14371212Y-9586609D01*
X14393727Y-9565887D02*
X14390290Y-9568730D01*
X14414834Y-9550484D02*
X14411193Y-9552905D01*
X14422224Y-9545842D02*
X14418560Y-9548099D01*
X14437429Y-9537369D02*
X14433622Y-9539362D01*
X14429783Y-9541457D02*
X14425947Y-9543639D01*
X14433622Y-9539362D02*
X14429783Y-9541457D01*
X14411193Y-9552905D02*
X14407624Y-9555370D01*
X14380542Y-9577397D02*
X14377444Y-9580350D01*
X14425947Y-9543639D02*
X14422224Y-9545842D01*
X14387040Y-9571519D02*
X14383761Y-9574434D01*
X14453234Y-9529954D02*
X14449267Y-9531688D01*
X16192768Y-9302742D02*
X14520430Y-9511784D01*
X16197708Y-9302176D02*
X16192768Y-9302742D01*
X16202078Y-9301753D02*
X16197708Y-9302176D01*
X16206338Y-9301419D02*
X16202078Y-9301753D01*
X16210698Y-9301152D02*
X16206338Y-9301419D01*
X21411678Y-9301178D02*
X21407308Y-9300977D01*
X25227038Y-9777293D02*
X21429078Y-9302736D01*
X21402938Y-9300853D02*
X21398158Y-9300807D01*
X16219428Y-9300847D02*
X16215108Y-9300960D01*
X28125138Y-10172113D02*
X28119838Y-10171333D01*
X16223908Y-9300807D02*
X16219428Y-9300847D01*
X21407308Y-9300977D02*
X21402938Y-9300853D01*
X21429078Y-9302736D02*
X21424808Y-9302240D01*
X28133738Y-10173623D02*
X28129338Y-10172823D01*
X21398158Y-9300807D02*
X16223908Y-9300807D01*
X21415998Y-9301453D02*
X21411678Y-9301178D01*
X21420408Y-9301808D02*
X21415998Y-9301453D01*
X21424808Y-9302240D02*
X21420408Y-9301808D01*
X25229538Y-9777620D02*
X25227038Y-9777293D01*
X28129338Y-10172823D02*
X28125138Y-10172113D01*
X16215108Y-9300960D02*
X16210698Y-9301152D01*
X28119838Y-10171333D02*
X25229538Y-9777620D01*
X28137938Y-10174493D02*
X28133738Y-10173623D01*
X26628538Y-19253693D02*
X26631638Y-19250493D01*
X26595238Y-19281693D02*
X26598738Y-19279093D01*
X26643338Y-19237493D02*
X26646138Y-19234193D01*
X26631638Y-19250493D02*
X26634638Y-19247393D01*
X26648838Y-19230793D02*
X26651438Y-19227293D01*
X26646138Y-19234193D02*
X26648838Y-19230793D01*
X26637538Y-19244193D02*
X26640438Y-19240893D01*
X26622338Y-19259693D02*
X26625438Y-19256693D01*
X26591538Y-19284093D02*
X26595238Y-19281693D01*
X26654038Y-19223793D02*
X26656638Y-19220193D01*
X26584238Y-19288893D02*
X26587938Y-19286493D01*
X26634638Y-19247393D02*
X26637538Y-19244193D01*
X26651438Y-19227293D02*
X26654038Y-19223793D01*
X26602238Y-19276493D02*
X26605738Y-19273793D01*
X26615838Y-19265493D02*
X26619038Y-19262693D01*
X26612438Y-19268393D02*
X26615838Y-19265493D01*
X26587938Y-19286493D02*
X26591538Y-19284093D01*
X26605738Y-19273793D02*
X26609138Y-19271193D01*
X26609138Y-19271193D02*
X26612438Y-19268393D01*
X26598738Y-19279093D02*
X26602238Y-19276493D01*
X26625438Y-19256693D02*
X26628538Y-19253693D01*
X26619038Y-19262693D02*
X26622338Y-19259693D01*
X26640438Y-19240893D02*
X26643338Y-19237493D01*
X28300238Y-10290243D02*
X28298038Y-10286573D01*
X28302538Y-10294063D02*
X28300238Y-10290243D01*
X28317838Y-10325423D02*
X28316138Y-10321343D01*
X28330538Y-10367063D02*
X28329538Y-10362743D01*
X28304638Y-10297833D02*
X28302538Y-10294063D01*
X28322338Y-10337613D02*
X28320938Y-10333523D01*
X28310638Y-10309353D02*
X28308738Y-10305583D01*
X28326338Y-10350073D02*
X28325038Y-10345973D01*
X28320938Y-10333523D02*
X28319438Y-10329433D01*
X28327438Y-10354353D02*
X28326338Y-10350073D01*
X28312638Y-10313413D02*
X28310638Y-10309353D01*
X28332938Y-10379903D02*
X28332238Y-10375643D01*
X28314338Y-10317313D02*
X28312638Y-10313413D01*
X28308738Y-10305583D02*
X28306738Y-10301653D01*
X28306738Y-10301653D02*
X28304638Y-10297833D01*
X28323738Y-10341793D02*
X28322338Y-10337613D01*
X28329538Y-10362743D02*
X28328538Y-10358583D01*
X28316138Y-10321343D02*
X28314338Y-10317313D01*
X28325038Y-10345973D02*
X28323738Y-10341793D01*
X28328538Y-10358583D02*
X28327438Y-10354353D01*
X28319438Y-10329433D02*
X28317838Y-10325423D01*
X28331438Y-10371323D02*
X28330538Y-10367063D01*
X28332238Y-10375643D02*
X28331438Y-10371323D01*
X28332938Y-16283863D02*
X28333538Y-16279613D01*
X28332238Y-16288203D02*
X28332938Y-16283863D01*
X28335338Y-10401553D02*
X28335038Y-10397263D01*
X28335938Y-10414643D02*
X28335838Y-10410323D01*
X28335938Y-16249163D02*
X28336038Y-16244823D01*
X28333538Y-16279613D02*
X28334138Y-16275203D01*
X28335438Y-16262183D02*
X28335638Y-16257893D01*
X28335638Y-16257893D02*
X28335838Y-16253493D01*
X28334138Y-10388553D02*
X28333538Y-10384233D01*
X28335038Y-10397263D02*
X28334638Y-10392943D01*
X28335638Y-10405913D02*
X28335338Y-10401553D01*
X28331438Y-16292523D02*
X28332238Y-16288203D01*
X28333538Y-10384233D02*
X28332938Y-10379903D01*
X28330538Y-16296723D02*
X28331438Y-16292523D01*
X28334638Y-10392943D02*
X28334138Y-10388553D01*
X28335838Y-10410323D02*
X28335638Y-10405913D01*
X28336038Y-10419123D02*
X28335938Y-10414643D01*
X28336038Y-16244823D02*
X28336038Y-10419123D01*
X28335038Y-16266553D02*
X28335438Y-16262183D01*
X28329638Y-16301043D02*
X28330538Y-16296723D01*
X28334638Y-16270953D02*
X28335038Y-16266553D01*
X28335838Y-16253493D02*
X28335938Y-16249163D01*
X28334138Y-16275203D02*
X28334638Y-16270953D01*
X28320938Y-16330223D02*
X28322338Y-16326213D01*
X28306738Y-16362133D02*
X28308838Y-16358263D01*
X28317838Y-16338453D02*
X28319438Y-16334423D01*
X28308838Y-16358263D02*
X28310738Y-16354403D01*
X26656638Y-19220193D02*
X26659038Y-19216693D01*
X28312638Y-16350443D02*
X28314438Y-16346453D01*
X26666138Y-19205593D02*
X26668338Y-19201893D01*
X28314438Y-16346453D02*
X28316138Y-16342463D01*
X26668338Y-19201893D02*
X28302538Y-16369843D01*
X26661438Y-19212993D02*
X26663838Y-19209293D01*
X28327438Y-16309563D02*
X28328638Y-16305173D01*
X28302538Y-16369843D02*
X28304638Y-16366003D01*
X28322338Y-16326213D02*
X28323838Y-16322013D01*
X28319438Y-16334423D02*
X28320938Y-16330223D01*
X28310738Y-16354403D02*
X28312638Y-16350443D01*
X26659038Y-19216693D02*
X26661438Y-19212993D01*
X28328638Y-16305173D02*
X28329638Y-16301043D01*
X28326338Y-16313683D02*
X28327438Y-16309563D01*
X28325038Y-16317893D02*
X28326338Y-16313683D01*
X28316138Y-16342463D02*
X28317838Y-16338453D01*
X28323838Y-16322013D02*
X28325038Y-16317893D01*
X26663838Y-19209293D02*
X26666138Y-19205593D01*
X28304638Y-16366003D02*
X28306738Y-16362133D01*
X26330538Y-19295493D02*
X26334438Y-19297593D01*
X26416938Y-19324393D02*
X26421338Y-19324993D01*
X26334438Y-19297593D02*
X26338338Y-19299593D01*
X22906948Y-17321173D02*
X23017428Y-17383093D01*
X26434338Y-19326293D02*
X26438738Y-19326493D01*
X26443038Y-19326693D02*
X26447438Y-19326793D01*
X26395538Y-19320493D02*
X26399838Y-19321393D01*
X22272408Y-17031413D02*
X22353858Y-17062753D01*
X21857668Y-16896313D02*
X21941538Y-16920423D01*
X21773388Y-16873663D02*
X21857668Y-16896313D01*
X22673798Y-17202153D02*
X22752198Y-17240473D01*
X26338338Y-19299593D02*
X26342238Y-19301593D01*
X26326838Y-19293393D02*
X26330538Y-19295493D01*
X22024968Y-16946003D02*
X22107938Y-16973033D01*
X26451838Y-19326893D02*
X26456238Y-19326793D01*
X26346138Y-19303493D02*
X26350038Y-19305193D01*
X26421338Y-19324993D02*
X26425738Y-19325493D01*
X26399838Y-19321393D02*
X26404138Y-19322293D01*
X22752198Y-17240473D02*
X22829928Y-17280153D01*
X21941538Y-16920423D02*
X22024968Y-16946003D01*
X26412738Y-19323793D02*
X26416938Y-19324393D01*
X21432728Y-16797863D02*
X21518378Y-16814583D01*
X26429938Y-19325893D02*
X26434338Y-19326293D01*
X22353858Y-17062753D02*
X22434738Y-17095503D01*
X26447438Y-19326793D02*
X26451838Y-19326893D01*
X22829928Y-17280153D02*
X22906948Y-17321173D01*
X26391338Y-19319493D02*
X26395538Y-19320493D01*
X26404138Y-19322293D02*
X26408438Y-19323093D01*
X26378738Y-19315993D02*
X26382938Y-19317193D01*
X26354138Y-19306993D02*
X26358138Y-19308693D01*
X22190428Y-17001503D02*
X22272408Y-17031413D01*
X23017428Y-17383093D02*
X26326838Y-19293393D01*
X22515048Y-17129663D02*
X22594738Y-17165213D01*
X22434738Y-17095503D02*
X22515048Y-17129663D01*
X22594738Y-17165213D02*
X22673798Y-17202153D01*
X22107938Y-16973033D02*
X22190428Y-17001503D01*
X26350038Y-19305193D02*
X26354138Y-19306993D01*
X21688738Y-16852483D02*
X21773388Y-16873663D01*
X26408438Y-19323093D02*
X26412738Y-19323793D01*
X21603718Y-16832783D02*
X21688738Y-16852483D01*
X26438738Y-19326493D02*
X26443038Y-19326693D01*
X26382938Y-19317193D02*
X26387038Y-19318293D01*
X26358138Y-19308693D02*
X26362138Y-19310293D01*
X26366238Y-19311793D02*
X26370438Y-19313293D01*
X26374538Y-19314593D02*
X26378738Y-19315993D01*
X26362138Y-19310293D02*
X26366238Y-19311793D01*
X26387038Y-19318293D02*
X26391338Y-19319493D01*
X21518378Y-16814583D02*
X21603718Y-16832783D01*
X26425738Y-19325493D02*
X26429938Y-19325893D01*
X26370438Y-19313293D02*
X26374538Y-19314593D01*
X26342238Y-19301593D02*
X26346138Y-19303493D01*
X14478398Y-16645673D02*
X14482496Y-16646883D01*
X21087608Y-16746013D02*
X21174218Y-16756713D01*
X14516658Y-16654153D02*
X14520968Y-16654713D01*
X14474214Y-16644353D02*
X14478398Y-16645673D01*
X14441777Y-16631243D02*
X14445834Y-16633173D01*
X14461857Y-16639973D02*
X14465945Y-16641503D01*
X14411586Y-16613793D02*
X14415325Y-16616273D01*
X20652498Y-16715253D02*
X20739708Y-16718363D01*
X14465945Y-16641503D02*
X14470036Y-16642953D01*
X14525360Y-16655213D02*
X14529687Y-16655633D01*
X14542773Y-16656433D02*
X14549102Y-16656573D01*
X14426484Y-16623103D02*
X14430249Y-16625233D01*
X14408103Y-16611403D02*
X14411586Y-16613793D01*
X14449736Y-16634953D02*
X14453761Y-16636703D01*
X14512319Y-16653503D02*
X14516658Y-16654153D01*
X21174218Y-16756713D02*
X21260618Y-16768923D01*
X14495161Y-16650163D02*
X14499481Y-16651123D01*
X21000828Y-16736823D02*
X21087608Y-16746013D01*
X20913898Y-16729153D02*
X21000828Y-16736823D01*
X20739708Y-16718363D02*
X20826848Y-16723003D01*
X14533970Y-16655973D02*
X14538360Y-16656233D01*
X14508061Y-16652783D02*
X14512319Y-16653503D01*
X14503739Y-16651983D02*
X14508061Y-16652783D01*
X14499481Y-16651123D02*
X14503739Y-16651983D01*
X14491000Y-16649163D02*
X14495161Y-16650163D01*
X14430249Y-16625233D02*
X14434071Y-16627313D01*
X14453761Y-16636703D02*
X14457838Y-16638393D01*
X14438002Y-16629353D02*
X14441777Y-16631243D01*
X14470036Y-16642953D02*
X14474214Y-16644353D01*
X20826848Y-16723003D02*
X20913898Y-16729153D01*
X20565248Y-16713663D02*
X20652498Y-16715253D01*
X14538360Y-16656233D02*
X14542773Y-16656433D01*
X14457838Y-16638393D02*
X14461857Y-16639973D01*
X14422662Y-16620853D02*
X14426484Y-16623103D01*
X14418989Y-16618603D02*
X14422662Y-16620853D01*
X21346798Y-16782643D02*
X21432728Y-16797863D01*
X21260618Y-16768923D02*
X21346798Y-16782643D01*
X14434071Y-16627313D02*
X14438002Y-16629353D01*
X14549102Y-16656573D02*
X20565248Y-16713663D01*
X14482496Y-16646883D02*
X14486776Y-16648073D01*
X14520968Y-16654713D02*
X14525360Y-16655213D01*
X14529687Y-16655633D02*
X14533970Y-16655973D01*
X14415325Y-16616273D02*
X14418989Y-16618603D01*
X14486776Y-16648073D02*
X14491000Y-16649163D01*
X14445834Y-16633173D02*
X14449736Y-16634953D01*
X14404469Y-16608813D02*
X14408103Y-16611403D01*
X26486538Y-19324393D02*
X26490838Y-19323793D01*
X26460538Y-19326693D02*
X26464938Y-19326493D01*
X26482338Y-19324993D02*
X26486538Y-19324393D01*
X26469238Y-19326293D02*
X26473638Y-19325893D01*
X26473638Y-19325893D02*
X26477938Y-19325493D01*
X26464938Y-19326493D02*
X26469238Y-19326293D01*
X26477938Y-19325493D02*
X26482338Y-19324993D01*
X26456238Y-19326793D02*
X26460538Y-19326693D01*
D11*
X27298184Y-14703788D02*
X27418184Y-14823788D01*
X27418184Y-14703788D02*
X27298184Y-14823788D01*
X27298184Y-14703788D02*
X27418184Y-14823788D01*
X27418184Y-14703788D02*
X27298184Y-14823788D01*
X27998184Y-14703788D02*
X28118184Y-14823788D01*
X28118184Y-14703788D02*
X27998184Y-14823788D01*
X27998184Y-14703788D02*
X28118184Y-14823788D01*
X28118184Y-14703788D02*
X27998184Y-14823788D01*
X14579024Y-10239413D02*
G75*
G03*
X14579024Y-10239413I-85090J0D01*
G01*
X14579024Y-12144413D02*
G75*
G03*
X14579024Y-12144413I-85090J0D01*
G01*
X14579024Y-14049413D02*
G75*
G03*
X14579024Y-14049413I-85090J0D01*
G01*
X14579024Y-15954413D02*
G75*
G03*
X14579024Y-15954413I-85090J0D01*
G01*
X15595024Y-10239413D02*
G75*
G03*
X15595024Y-10239413I-85090J0D01*
G01*
X15595024Y-12144413D02*
G75*
G03*
X15595024Y-12144413I-85090J0D01*
G01*
X15595024Y-14049413D02*
G75*
G03*
X15595024Y-14049413I-85090J0D01*
G01*
X15595024Y-15954413D02*
G75*
G03*
X15595024Y-15954413I-85090J0D01*
G01*
X16484024Y-10001288D02*
G75*
G03*
X16484024Y-10001288I-85090J0D01*
G01*
X16484024Y-11906300D02*
G75*
G03*
X16484024Y-11906300I-85090J0D01*
G01*
X16484024Y-13811288D02*
G75*
G03*
X16484024Y-13811288I-85090J0D01*
G01*
X16484024Y-15716288D02*
G75*
G03*
X16484024Y-15716288I-85090J0D01*
G01*
X17500024Y-10001288D02*
G75*
G03*
X17500024Y-10001288I-85090J0D01*
G01*
X17500024Y-11906300D02*
G75*
G03*
X17500024Y-11906300I-85090J0D01*
G01*
X17500024Y-13811288D02*
G75*
G03*
X17500024Y-13811288I-85090J0D01*
G01*
X17500024Y-15716288D02*
G75*
G03*
X17500024Y-15716288I-85090J0D01*
G01*
X18389024Y-10239413D02*
G75*
G03*
X18389024Y-10239413I-85090J0D01*
G01*
X18389024Y-12144413D02*
G75*
G03*
X18389024Y-12144413I-85090J0D01*
G01*
X18389024Y-14049413D02*
G75*
G03*
X18389024Y-14049413I-85090J0D01*
G01*
X18389024Y-15954413D02*
G75*
G03*
X18389024Y-15954413I-85090J0D01*
G01*
X19405024Y-10239413D02*
G75*
G03*
X19405024Y-10239413I-85090J0D01*
G01*
X19405024Y-12144413D02*
G75*
G03*
X19405024Y-12144413I-85090J0D01*
G01*
X19405024Y-14049413D02*
G75*
G03*
X19405024Y-14049413I-85090J0D01*
G01*
X19405024Y-15954413D02*
G75*
G03*
X19405024Y-15954413I-85090J0D01*
G01*
X20294024Y-10001288D02*
G75*
G03*
X20294024Y-10001288I-85090J0D01*
G01*
X20294024Y-11906288D02*
G75*
G03*
X20294024Y-11906288I-85090J0D01*
G01*
X20294024Y-13811288D02*
G75*
G03*
X20294024Y-13811288I-85090J0D01*
G01*
X20294024Y-15716288D02*
G75*
G03*
X20294024Y-15716288I-85090J0D01*
G01*
X21310024Y-10001288D02*
G75*
G03*
X21310024Y-10001288I-85090J0D01*
G01*
X21310024Y-11906288D02*
G75*
G03*
X21310024Y-11906288I-85090J0D01*
G01*
X21310024Y-13811288D02*
G75*
G03*
X21310024Y-13811288I-85090J0D01*
G01*
X21310024Y-15716288D02*
G75*
G03*
X21310024Y-15716288I-85090J0D01*
G01*
X22199024Y-10239413D02*
G75*
G03*
X22199024Y-10239413I-85090J0D01*
G01*
X22199024Y-12144413D02*
G75*
G03*
X22199024Y-12144413I-85090J0D01*
G01*
X22199024Y-14049413D02*
G75*
G03*
X22199024Y-14049413I-85090J0D01*
G01*
X22199024Y-15954413D02*
G75*
G03*
X22199024Y-15954413I-85090J0D01*
G01*
X23215024Y-10239413D02*
G75*
G03*
X23215024Y-10239413I-85090J0D01*
G01*
X23215024Y-12144413D02*
G75*
G03*
X23215024Y-12144413I-85090J0D01*
G01*
X23215024Y-14049413D02*
G75*
G03*
X23215024Y-14049413I-85090J0D01*
G01*
X23215024Y-15954413D02*
G75*
G03*
X23215024Y-15954413I-85090J0D01*
G01*
X24104024Y-10477538D02*
G75*
G03*
X24104024Y-10477538I-85090J0D01*
G01*
X24104024Y-12382538D02*
G75*
G03*
X24104024Y-12382538I-85090J0D01*
G01*
X24104024Y-14287538D02*
G75*
G03*
X24104024Y-14287538I-85090J0D01*
G01*
X24706663Y-17538270D02*
G75*
G03*
X24706663Y-17538270I-85090J0D01*
G01*
X25120024Y-10477538D02*
G75*
G03*
X25120024Y-10477538I-85090J0D01*
G01*
X25120024Y-12382538D02*
G75*
G03*
X25120024Y-12382538I-85090J0D01*
G01*
X25120024Y-14287538D02*
G75*
G03*
X25120024Y-14287538I-85090J0D01*
G01*
X25214663Y-16658388D02*
G75*
G03*
X25214663Y-16658388I-85090J0D01*
G01*
X26356442Y-18490770D02*
G75*
G03*
X26356442Y-18490770I-85090J0D01*
G01*
X26864442Y-17610888D02*
G75*
G03*
X26864442Y-17610888I-85090J0D01*
G01*
X15954442Y-10114418D02*
X15954442Y-10364418D01*
X15829442Y-10239418D02*
X16079442Y-10239418D01*
X15954442Y-15591316D02*
X15954442Y-15841316D01*
X15829442Y-15716316D02*
X16079442Y-15716316D01*
X19764458Y-12733804D02*
X19764458Y-12983804D01*
X19639458Y-12858804D02*
X19889458Y-12858804D01*
X21669466Y-15591316D02*
X21669466Y-15841316D01*
X21544466Y-15716316D02*
X21794466Y-15716316D01*
X23574474Y-10352544D02*
X23574474Y-10602544D01*
X23449474Y-10477544D02*
X23699474Y-10477544D01*
X25700501Y-17449616D02*
X25700501Y-17699616D01*
X25575501Y-17574616D02*
X25825501Y-17574616D01*
X26431986Y-14638812D02*
X26431986Y-14888812D01*
X26306986Y-14763812D02*
X26556986Y-14763812D01*
X14727001Y-10091480D02*
X14727001Y-9879346D01*
X14514867Y-9879346D01*
X14514867Y-10091480D01*
X14727001Y-10091480D01*
X14727001Y-11996480D02*
X14727001Y-11784346D01*
X14514867Y-11784346D01*
X14514867Y-11996480D01*
X14727001Y-11996480D01*
X14727001Y-13901480D02*
X14727001Y-13689346D01*
X14514867Y-13689346D01*
X14514867Y-13901480D01*
X14727001Y-13901480D01*
X14727001Y-15806480D02*
X14727001Y-15594346D01*
X14514867Y-15594346D01*
X14514867Y-15806480D01*
X14727001Y-15806480D01*
X14854001Y-9837480D02*
X14854001Y-9625346D01*
X14641867Y-9625346D01*
X14641867Y-9837480D01*
X14854001Y-9837480D01*
X14854001Y-11742480D02*
X14854001Y-11530346D01*
X14641867Y-11530346D01*
X14641867Y-11742480D01*
X14854001Y-11742480D01*
X14854001Y-13647480D02*
X14854001Y-13435346D01*
X14641867Y-13435346D01*
X14641867Y-13647480D01*
X14854001Y-13647480D01*
X14854001Y-15552480D02*
X14854001Y-15340346D01*
X14641867Y-15340346D01*
X14641867Y-15552480D01*
X14854001Y-15552480D01*
X15362001Y-9837480D02*
X15362001Y-9625346D01*
X15149867Y-9625346D01*
X15149867Y-9837480D01*
X15362001Y-9837480D01*
X15362001Y-11742480D02*
X15362001Y-11530346D01*
X15149867Y-11530346D01*
X15149867Y-11742480D01*
X15362001Y-11742480D01*
X15362001Y-13647480D02*
X15362001Y-13435346D01*
X15149867Y-13435346D01*
X15149867Y-13647480D01*
X15362001Y-13647480D01*
X15362001Y-15552480D02*
X15362001Y-15340346D01*
X15149867Y-15340346D01*
X15149867Y-15552480D01*
X15362001Y-15552480D01*
X15489001Y-10091480D02*
X15489001Y-9879346D01*
X15276867Y-9879346D01*
X15276867Y-10091480D01*
X15489001Y-10091480D01*
X15489001Y-11996480D02*
X15489001Y-11784346D01*
X15276867Y-11784346D01*
X15276867Y-11996480D01*
X15489001Y-11996480D01*
X15489001Y-13901480D02*
X15489001Y-13689346D01*
X15276867Y-13689346D01*
X15276867Y-13901480D01*
X15489001Y-13901480D01*
X15489001Y-15806480D02*
X15489001Y-15594346D01*
X15276867Y-15594346D01*
X15276867Y-15806480D01*
X15489001Y-15806480D01*
X16632001Y-9853355D02*
X16632001Y-9641221D01*
X16419867Y-9641221D01*
X16419867Y-9853355D01*
X16632001Y-9853355D01*
X16632001Y-11758367D02*
X16632001Y-11546233D01*
X16419867Y-11546233D01*
X16419867Y-11758367D01*
X16632001Y-11758367D01*
X16632001Y-13663355D02*
X16632001Y-13451221D01*
X16419867Y-13451221D01*
X16419867Y-13663355D01*
X16632001Y-13663355D01*
X16632001Y-15568355D02*
X16632001Y-15356221D01*
X16419867Y-15356221D01*
X16419867Y-15568355D01*
X16632001Y-15568355D01*
X16759001Y-9599355D02*
X16759001Y-9387221D01*
X16546867Y-9387221D01*
X16546867Y-9599355D01*
X16759001Y-9599355D01*
X16759001Y-11504367D02*
X16759001Y-11292233D01*
X16546867Y-11292233D01*
X16546867Y-11504367D01*
X16759001Y-11504367D01*
X16759001Y-13409355D02*
X16759001Y-13197221D01*
X16546867Y-13197221D01*
X16546867Y-13409355D01*
X16759001Y-13409355D01*
X16759001Y-15314355D02*
X16759001Y-15102221D01*
X16546867Y-15102221D01*
X16546867Y-15314355D01*
X16759001Y-15314355D01*
X17267001Y-9599355D02*
X17267001Y-9387221D01*
X17054867Y-9387221D01*
X17054867Y-9599355D01*
X17267001Y-9599355D01*
X17267001Y-11504367D02*
X17267001Y-11292233D01*
X17054867Y-11292233D01*
X17054867Y-11504367D01*
X17267001Y-11504367D01*
X17267001Y-13409355D02*
X17267001Y-13197221D01*
X17054867Y-13197221D01*
X17054867Y-13409355D01*
X17267001Y-13409355D01*
X17267001Y-15314355D02*
X17267001Y-15102221D01*
X17054867Y-15102221D01*
X17054867Y-15314355D01*
X17267001Y-15314355D01*
X17394001Y-9853355D02*
X17394001Y-9641221D01*
X17181867Y-9641221D01*
X17181867Y-9853355D01*
X17394001Y-9853355D01*
X17394001Y-11758367D02*
X17394001Y-11546233D01*
X17181867Y-11546233D01*
X17181867Y-11758367D01*
X17394001Y-11758367D01*
X17394001Y-13663355D02*
X17394001Y-13451221D01*
X17181867Y-13451221D01*
X17181867Y-13663355D01*
X17394001Y-13663355D01*
X17394001Y-15568355D02*
X17394001Y-15356221D01*
X17181867Y-15356221D01*
X17181867Y-15568355D01*
X17394001Y-15568355D01*
X18537001Y-10091480D02*
X18537001Y-9879346D01*
X18324867Y-9879346D01*
X18324867Y-10091480D01*
X18537001Y-10091480D01*
X18537001Y-11996480D02*
X18537001Y-11784346D01*
X18324867Y-11784346D01*
X18324867Y-11996480D01*
X18537001Y-11996480D01*
X18537001Y-13901480D02*
X18537001Y-13689346D01*
X18324867Y-13689346D01*
X18324867Y-13901480D01*
X18537001Y-13901480D01*
X18537001Y-15806480D02*
X18537001Y-15594346D01*
X18324867Y-15594346D01*
X18324867Y-15806480D01*
X18537001Y-15806480D01*
X18664001Y-9837480D02*
X18664001Y-9625346D01*
X18451867Y-9625346D01*
X18451867Y-9837480D01*
X18664001Y-9837480D01*
X18664001Y-11742480D02*
X18664001Y-11530346D01*
X18451867Y-11530346D01*
X18451867Y-11742480D01*
X18664001Y-11742480D01*
X18664001Y-13647480D02*
X18664001Y-13435346D01*
X18451867Y-13435346D01*
X18451867Y-13647480D01*
X18664001Y-13647480D01*
X18664001Y-15552480D02*
X18664001Y-15340346D01*
X18451867Y-15340346D01*
X18451867Y-15552480D01*
X18664001Y-15552480D01*
X19172001Y-9837480D02*
X19172001Y-9625346D01*
X18959867Y-9625346D01*
X18959867Y-9837480D01*
X19172001Y-9837480D01*
X19172001Y-11742480D02*
X19172001Y-11530346D01*
X18959867Y-11530346D01*
X18959867Y-11742480D01*
X19172001Y-11742480D01*
X19172001Y-13647480D02*
X19172001Y-13435346D01*
X18959867Y-13435346D01*
X18959867Y-13647480D01*
X19172001Y-13647480D01*
X19172001Y-15552480D02*
X19172001Y-15340346D01*
X18959867Y-15340346D01*
X18959867Y-15552480D01*
X19172001Y-15552480D01*
X19299001Y-10091480D02*
X19299001Y-9879346D01*
X19086867Y-9879346D01*
X19086867Y-10091480D01*
X19299001Y-10091480D01*
X19299001Y-11996480D02*
X19299001Y-11784346D01*
X19086867Y-11784346D01*
X19086867Y-11996480D01*
X19299001Y-11996480D01*
X19299001Y-13901480D02*
X19299001Y-13689346D01*
X19086867Y-13689346D01*
X19086867Y-13901480D01*
X19299001Y-13901480D01*
X19299001Y-15806480D02*
X19299001Y-15594346D01*
X19086867Y-15594346D01*
X19086867Y-15806480D01*
X19299001Y-15806480D01*
X20442001Y-9853355D02*
X20442001Y-9641221D01*
X20229867Y-9641221D01*
X20229867Y-9853355D01*
X20442001Y-9853355D01*
X20442001Y-11758355D02*
X20442001Y-11546221D01*
X20229867Y-11546221D01*
X20229867Y-11758355D01*
X20442001Y-11758355D01*
X20442001Y-13663355D02*
X20442001Y-13451221D01*
X20229867Y-13451221D01*
X20229867Y-13663355D01*
X20442001Y-13663355D01*
X20442001Y-15568355D02*
X20442001Y-15356221D01*
X20229867Y-15356221D01*
X20229867Y-15568355D01*
X20442001Y-15568355D01*
X20569001Y-9599355D02*
X20569001Y-9387221D01*
X20356867Y-9387221D01*
X20356867Y-9599355D01*
X20569001Y-9599355D01*
X20569001Y-11504355D02*
X20569001Y-11292221D01*
X20356867Y-11292221D01*
X20356867Y-11504355D01*
X20569001Y-11504355D01*
X20569001Y-13409355D02*
X20569001Y-13197221D01*
X20356867Y-13197221D01*
X20356867Y-13409355D01*
X20569001Y-13409355D01*
X20569001Y-15314355D02*
X20569001Y-15102221D01*
X20356867Y-15102221D01*
X20356867Y-15314355D01*
X20569001Y-15314355D01*
X21077001Y-9599355D02*
X21077001Y-9387221D01*
X20864867Y-9387221D01*
X20864867Y-9599355D01*
X21077001Y-9599355D01*
X21077001Y-11504355D02*
X21077001Y-11292221D01*
X20864867Y-11292221D01*
X20864867Y-11504355D01*
X21077001Y-11504355D01*
X21077001Y-13409355D02*
X21077001Y-13197221D01*
X20864867Y-13197221D01*
X20864867Y-13409355D01*
X21077001Y-13409355D01*
X21077001Y-15314355D02*
X21077001Y-15102221D01*
X20864867Y-15102221D01*
X20864867Y-15314355D01*
X21077001Y-15314355D01*
X21204001Y-9853355D02*
X21204001Y-9641221D01*
X20991867Y-9641221D01*
X20991867Y-9853355D01*
X21204001Y-9853355D01*
X21204001Y-11758355D02*
X21204001Y-11546221D01*
X20991867Y-11546221D01*
X20991867Y-11758355D01*
X21204001Y-11758355D01*
X21204001Y-13663355D02*
X21204001Y-13451221D01*
X20991867Y-13451221D01*
X20991867Y-13663355D01*
X21204001Y-13663355D01*
X21204001Y-15568355D02*
X21204001Y-15356221D01*
X20991867Y-15356221D01*
X20991867Y-15568355D01*
X21204001Y-15568355D01*
X22347001Y-10091480D02*
X22347001Y-9879346D01*
X22134867Y-9879346D01*
X22134867Y-10091480D01*
X22347001Y-10091480D01*
X22347001Y-11996480D02*
X22347001Y-11784346D01*
X22134867Y-11784346D01*
X22134867Y-11996480D01*
X22347001Y-11996480D01*
X22347001Y-13901480D02*
X22347001Y-13689346D01*
X22134867Y-13689346D01*
X22134867Y-13901480D01*
X22347001Y-13901480D01*
X22347001Y-15806480D02*
X22347001Y-15594346D01*
X22134867Y-15594346D01*
X22134867Y-15806480D01*
X22347001Y-15806480D01*
X22474001Y-9837480D02*
X22474001Y-9625346D01*
X22261867Y-9625346D01*
X22261867Y-9837480D01*
X22474001Y-9837480D01*
X22474001Y-11742480D02*
X22474001Y-11530346D01*
X22261867Y-11530346D01*
X22261867Y-11742480D01*
X22474001Y-11742480D01*
X22474001Y-13647480D02*
X22474001Y-13435346D01*
X22261867Y-13435346D01*
X22261867Y-13647480D01*
X22474001Y-13647480D01*
X22474001Y-15552480D02*
X22474001Y-15340346D01*
X22261867Y-15340346D01*
X22261867Y-15552480D01*
X22474001Y-15552480D01*
X22982001Y-9837480D02*
X22982001Y-9625346D01*
X22769867Y-9625346D01*
X22769867Y-9837480D01*
X22982001Y-9837480D01*
X22982001Y-11742480D02*
X22982001Y-11530346D01*
X22769867Y-11530346D01*
X22769867Y-11742480D01*
X22982001Y-11742480D01*
X22982001Y-13647480D02*
X22982001Y-13435346D01*
X22769867Y-13435346D01*
X22769867Y-13647480D01*
X22982001Y-13647480D01*
X22982001Y-15552480D02*
X22982001Y-15340346D01*
X22769867Y-15340346D01*
X22769867Y-15552480D01*
X22982001Y-15552480D01*
X23109001Y-10091480D02*
X23109001Y-9879346D01*
X22896867Y-9879346D01*
X22896867Y-10091480D01*
X23109001Y-10091480D01*
X23109001Y-11996480D02*
X23109001Y-11784346D01*
X22896867Y-11784346D01*
X22896867Y-11996480D01*
X23109001Y-11996480D01*
X23109001Y-13901480D02*
X23109001Y-13689346D01*
X22896867Y-13689346D01*
X22896867Y-13901480D01*
X23109001Y-13901480D01*
X23109001Y-15806480D02*
X23109001Y-15594346D01*
X22896867Y-15594346D01*
X22896867Y-15806480D01*
X23109001Y-15806480D01*
X24252001Y-10329605D02*
X24252001Y-10117471D01*
X24039867Y-10117471D01*
X24039867Y-10329605D01*
X24252001Y-10329605D01*
X24252001Y-12234605D02*
X24252001Y-12022471D01*
X24039867Y-12022471D01*
X24039867Y-12234605D01*
X24252001Y-12234605D01*
X24252001Y-14139605D02*
X24252001Y-13927471D01*
X24039867Y-13927471D01*
X24039867Y-14139605D01*
X24252001Y-14139605D01*
X24379001Y-10075605D02*
X24379001Y-9863471D01*
X24166867Y-9863471D01*
X24166867Y-10075605D01*
X24379001Y-10075605D01*
X24379001Y-11980605D02*
X24379001Y-11768471D01*
X24166867Y-11768471D01*
X24166867Y-11980605D01*
X24379001Y-11980605D01*
X24379001Y-13885605D02*
X24379001Y-13673471D01*
X24166867Y-13673471D01*
X24166867Y-13885605D01*
X24379001Y-13885605D01*
X24414699Y-17170367D02*
X24414699Y-16958233D01*
X24202565Y-16958233D01*
X24202565Y-17170367D01*
X24414699Y-17170367D01*
X24571170Y-17407352D02*
X24571170Y-17195218D01*
X24359036Y-17195218D01*
X24359036Y-17407352D01*
X24571170Y-17407352D01*
X24668699Y-16730426D02*
X24668699Y-16518292D01*
X24456565Y-16518292D01*
X24456565Y-16730426D01*
X24668699Y-16730426D01*
X24887001Y-10075605D02*
X24887001Y-9863471D01*
X24674867Y-9863471D01*
X24674867Y-10075605D01*
X24887001Y-10075605D01*
X24887001Y-11980605D02*
X24887001Y-11768471D01*
X24674867Y-11768471D01*
X24674867Y-11980605D01*
X24887001Y-11980605D01*
X24887001Y-13885605D02*
X24887001Y-13673471D01*
X24674867Y-13673471D01*
X24674867Y-13885605D01*
X24887001Y-13885605D01*
X24952170Y-16747440D02*
X24952170Y-16535306D01*
X24740036Y-16535306D01*
X24740036Y-16747440D01*
X24952170Y-16747440D01*
X25014001Y-10329605D02*
X25014001Y-10117471D01*
X24801867Y-10117471D01*
X24801867Y-10329605D01*
X25014001Y-10329605D01*
X25014001Y-12234605D02*
X25014001Y-12022471D01*
X24801867Y-12022471D01*
X24801867Y-12234605D01*
X25014001Y-12234605D01*
X25014001Y-14139605D02*
X25014001Y-13927471D01*
X24801867Y-13927471D01*
X24801867Y-14139605D01*
X25014001Y-14139605D01*
X26064478Y-18122867D02*
X26064478Y-17910733D01*
X25852344Y-17910733D01*
X25852344Y-18122867D01*
X26064478Y-18122867D01*
X26220948Y-18359852D02*
X26220948Y-18147718D01*
X26008814Y-18147718D01*
X26008814Y-18359852D01*
X26220948Y-18359852D01*
X26318478Y-17682926D02*
X26318478Y-17470792D01*
X26106344Y-17470792D01*
X26106344Y-17682926D01*
X26318478Y-17682926D01*
X26601948Y-17699941D02*
X26601948Y-17487807D01*
X26389814Y-17487807D01*
X26389814Y-17699941D01*
X26601948Y-17699941D01*
X15001934Y-10438803D02*
X15201324Y-10239413D01*
X15001934Y-10040023D01*
X14802544Y-10239413D01*
X15001934Y-10438803D01*
X15001934Y-12343803D02*
X15201324Y-12144413D01*
X15001934Y-11945023D01*
X14802544Y-12144413D01*
X15001934Y-12343803D01*
X15001934Y-14248803D02*
X15201324Y-14049413D01*
X15001934Y-13850023D01*
X14802544Y-14049413D01*
X15001934Y-14248803D01*
X15001934Y-16153803D02*
X15201324Y-15954413D01*
X15001934Y-15755023D01*
X14802544Y-15954413D01*
X15001934Y-16153803D01*
X16906934Y-10200678D02*
X17106324Y-10001288D01*
X16906934Y-9801898D01*
X16707544Y-10001288D01*
X16906934Y-10200678D01*
X16906934Y-12105690D02*
X17106324Y-11906300D01*
X16906934Y-11706910D01*
X16707544Y-11906300D01*
X16906934Y-12105690D01*
X16906934Y-14010678D02*
X17106324Y-13811288D01*
X16906934Y-13611898D01*
X16707544Y-13811288D01*
X16906934Y-14010678D01*
X16906934Y-15915678D02*
X17106324Y-15716288D01*
X16906934Y-15516898D01*
X16707544Y-15716288D01*
X16906934Y-15915678D01*
X18811934Y-10438803D02*
X19011324Y-10239413D01*
X18811934Y-10040023D01*
X18612544Y-10239413D01*
X18811934Y-10438803D01*
X18811934Y-12343803D02*
X19011324Y-12144413D01*
X18811934Y-11945023D01*
X18612544Y-12144413D01*
X18811934Y-12343803D01*
X18811934Y-14248803D02*
X19011324Y-14049413D01*
X18811934Y-13850023D01*
X18612544Y-14049413D01*
X18811934Y-14248803D01*
X18811934Y-16153803D02*
X19011324Y-15954413D01*
X18811934Y-15755023D01*
X18612544Y-15954413D01*
X18811934Y-16153803D01*
X20716934Y-10200678D02*
X20916324Y-10001288D01*
X20716934Y-9801898D01*
X20517544Y-10001288D01*
X20716934Y-10200678D01*
X20716934Y-12105678D02*
X20916324Y-11906288D01*
X20716934Y-11706898D01*
X20517544Y-11906288D01*
X20716934Y-12105678D01*
X20716934Y-14010678D02*
X20916324Y-13811288D01*
X20716934Y-13611898D01*
X20517544Y-13811288D01*
X20716934Y-14010678D01*
X20716934Y-15915678D02*
X20916324Y-15716288D01*
X20716934Y-15516898D01*
X20517544Y-15716288D01*
X20716934Y-15915678D01*
X22621934Y-10438803D02*
X22821324Y-10239413D01*
X22621934Y-10040023D01*
X22422544Y-10239413D01*
X22621934Y-10438803D01*
X22621934Y-12343803D02*
X22821324Y-12144413D01*
X22621934Y-11945023D01*
X22422544Y-12144413D01*
X22621934Y-12343803D01*
X22621934Y-14248803D02*
X22821324Y-14049413D01*
X22621934Y-13850023D01*
X22422544Y-14049413D01*
X22621934Y-14248803D01*
X22621934Y-16153803D02*
X22821324Y-15954413D01*
X22621934Y-15755023D01*
X22422544Y-15954413D01*
X22621934Y-16153803D01*
X24526934Y-10676928D02*
X24726324Y-10477538D01*
X24526934Y-10278148D01*
X24327544Y-10477538D01*
X24526934Y-10676928D01*
X24526934Y-12581928D02*
X24726324Y-12382538D01*
X24526934Y-12183148D01*
X24327544Y-12382538D01*
X24526934Y-12581928D01*
X24526934Y-14486928D02*
X24726324Y-14287538D01*
X24526934Y-14088148D01*
X24327544Y-14287538D01*
X24526934Y-14486928D01*
X24875573Y-17297719D02*
X25074963Y-17098329D01*
X24875573Y-16898939D01*
X24676183Y-17098329D01*
X24875573Y-17297719D01*
X26525352Y-18250219D02*
X26724742Y-18050829D01*
X26525352Y-17851439D01*
X26325962Y-18050829D01*
X26525352Y-18250219D01*
X27146990Y-15478816D02*
X27621990Y-15953816D01*
X27621990Y-15478816D02*
X27146990Y-15953816D01*
X27621990Y-15716316D02*
G75*
G03*
X27621990Y-15716316I-237500J0D01*
G01*
D12*
X14580380Y-19800107D02*
X14580380Y-19500107D01*
X14651809Y-19500107D01*
X14694666Y-19514393D01*
X14723238Y-19542965D01*
X14737523Y-19571536D01*
X14751809Y-19628679D01*
X14751809Y-19671536D01*
X14737523Y-19728679D01*
X14723238Y-19757250D01*
X14694666Y-19785822D01*
X14651809Y-19800107D01*
X14580380Y-19800107D01*
X14880380Y-19800107D02*
X14880380Y-19600107D01*
X14880380Y-19657250D02*
X14894666Y-19628679D01*
X14908952Y-19614393D01*
X14937523Y-19600107D01*
X14966095Y-19600107D01*
X15066095Y-19800107D02*
X15066095Y-19600107D01*
X15066095Y-19500107D02*
X15051809Y-19514393D01*
X15066095Y-19528679D01*
X15080380Y-19514393D01*
X15066095Y-19500107D01*
X15066095Y-19528679D01*
X15251809Y-19800107D02*
X15223238Y-19785822D01*
X15208952Y-19757250D01*
X15208952Y-19500107D01*
X15408952Y-19800107D02*
X15380380Y-19785822D01*
X15366095Y-19757250D01*
X15366095Y-19500107D01*
X15751809Y-19800107D02*
X15751809Y-19500107D01*
X15851809Y-19714393D01*
X15951809Y-19500107D01*
X15951809Y-19800107D01*
X16223238Y-19800107D02*
X16223238Y-19642965D01*
X16208952Y-19614393D01*
X16180380Y-19600107D01*
X16123238Y-19600107D01*
X16094666Y-19614393D01*
X16223238Y-19785822D02*
X16194666Y-19800107D01*
X16123238Y-19800107D01*
X16094666Y-19785822D01*
X16080380Y-19757250D01*
X16080380Y-19728679D01*
X16094666Y-19700107D01*
X16123238Y-19685822D01*
X16194666Y-19685822D01*
X16223238Y-19671536D01*
X16366095Y-19600107D02*
X16366095Y-19900107D01*
X16366095Y-19614393D02*
X16394666Y-19600107D01*
X16451809Y-19600107D01*
X16480380Y-19614393D01*
X16494666Y-19628679D01*
X16508952Y-19657250D01*
X16508952Y-19742965D01*
X16494666Y-19771536D01*
X16480380Y-19785822D01*
X16451809Y-19800107D01*
X16394666Y-19800107D01*
X16366095Y-19785822D01*
X16637523Y-19771536D02*
X16651809Y-19785822D01*
X16637523Y-19800107D01*
X16623238Y-19785822D01*
X16637523Y-19771536D01*
X16637523Y-19800107D01*
X16637523Y-19614393D02*
X16651809Y-19628679D01*
X16637523Y-19642965D01*
X16623238Y-19628679D01*
X16637523Y-19614393D01*
X16637523Y-19642965D01*
X14173952Y-20234393D02*
X14293952Y-20354393D01*
X14293952Y-20234393D02*
X14173952Y-20354393D01*
X14737523Y-20430107D02*
X14566095Y-20430107D01*
X14651809Y-20430107D02*
X14651809Y-20130107D01*
X14623238Y-20172965D01*
X14594666Y-20201536D01*
X14566095Y-20215822D01*
X14866095Y-20401536D02*
X14880380Y-20415822D01*
X14866095Y-20430107D01*
X14851809Y-20415822D01*
X14866095Y-20401536D01*
X14866095Y-20430107D01*
X14994666Y-20158679D02*
X15008952Y-20144393D01*
X15037523Y-20130107D01*
X15108952Y-20130107D01*
X15137523Y-20144393D01*
X15151809Y-20158679D01*
X15166095Y-20187250D01*
X15166095Y-20215822D01*
X15151809Y-20258679D01*
X14980380Y-20430107D01*
X15166095Y-20430107D01*
X15351809Y-20130107D02*
X15380380Y-20130107D01*
X15408952Y-20144393D01*
X15423238Y-20158679D01*
X15437523Y-20187250D01*
X15451809Y-20244393D01*
X15451809Y-20315822D01*
X15437523Y-20372965D01*
X15423238Y-20401536D01*
X15408952Y-20415822D01*
X15380380Y-20430107D01*
X15351809Y-20430107D01*
X15323238Y-20415822D01*
X15308952Y-20401536D01*
X15294666Y-20372965D01*
X15280380Y-20315822D01*
X15280380Y-20244393D01*
X15294666Y-20187250D01*
X15308952Y-20158679D01*
X15323238Y-20144393D01*
X15351809Y-20130107D01*
X15580380Y-20430107D02*
X15580380Y-20230107D01*
X15580380Y-20258679D02*
X15594666Y-20244393D01*
X15623238Y-20230107D01*
X15666095Y-20230107D01*
X15694666Y-20244393D01*
X15708952Y-20272965D01*
X15708952Y-20430107D01*
X15708952Y-20272965D02*
X15723238Y-20244393D01*
X15751809Y-20230107D01*
X15794666Y-20230107D01*
X15823238Y-20244393D01*
X15837523Y-20272965D01*
X15837523Y-20430107D01*
X15980380Y-20430107D02*
X15980380Y-20230107D01*
X15980380Y-20258679D02*
X15994666Y-20244393D01*
X16023238Y-20230107D01*
X16066095Y-20230107D01*
X16094666Y-20244393D01*
X16108952Y-20272965D01*
X16108952Y-20430107D01*
X16108952Y-20272965D02*
X16123238Y-20244393D01*
X16151809Y-20230107D01*
X16194666Y-20230107D01*
X16223238Y-20244393D01*
X16237523Y-20272965D01*
X16237523Y-20430107D01*
X16823238Y-20115822D02*
X16566095Y-20501536D01*
X17208952Y-20130107D02*
X17237523Y-20130107D01*
X17266095Y-20144393D01*
X17280380Y-20158679D01*
X17294666Y-20187250D01*
X17308952Y-20244393D01*
X17308952Y-20315822D01*
X17294666Y-20372965D01*
X17280380Y-20401536D01*
X17266095Y-20415822D01*
X17237523Y-20430107D01*
X17208952Y-20430107D01*
X17180380Y-20415822D01*
X17166095Y-20401536D01*
X17151809Y-20372965D01*
X17137523Y-20315822D01*
X17137523Y-20244393D01*
X17151809Y-20187250D01*
X17166095Y-20158679D01*
X17180380Y-20144393D01*
X17208952Y-20130107D01*
X17437523Y-20401536D02*
X17451809Y-20415822D01*
X17437523Y-20430107D01*
X17423238Y-20415822D01*
X17437523Y-20401536D01*
X17437523Y-20430107D01*
X17637523Y-20130107D02*
X17666095Y-20130107D01*
X17694666Y-20144393D01*
X17708952Y-20158679D01*
X17723238Y-20187250D01*
X17737523Y-20244393D01*
X17737523Y-20315822D01*
X17723238Y-20372965D01*
X17708952Y-20401536D01*
X17694666Y-20415822D01*
X17666095Y-20430107D01*
X17637523Y-20430107D01*
X17608952Y-20415822D01*
X17594666Y-20401536D01*
X17580380Y-20372965D01*
X17566095Y-20315822D01*
X17566095Y-20244393D01*
X17580380Y-20187250D01*
X17594666Y-20158679D01*
X17608952Y-20144393D01*
X17637523Y-20130107D01*
X17994666Y-20230107D02*
X17994666Y-20430107D01*
X17923238Y-20115822D02*
X17851809Y-20330107D01*
X18037523Y-20330107D01*
X18123238Y-20130107D02*
X18323238Y-20130107D01*
X18194666Y-20430107D01*
X18423238Y-20130107D02*
X18423238Y-20187250D01*
X18537523Y-20130107D02*
X18537523Y-20187250D01*
X18980380Y-20544393D02*
X18966095Y-20530107D01*
X18937523Y-20487250D01*
X18923238Y-20458679D01*
X18908952Y-20415822D01*
X18894666Y-20344393D01*
X18894666Y-20287250D01*
X18908952Y-20215822D01*
X18923238Y-20172965D01*
X18937523Y-20144393D01*
X18966095Y-20101536D01*
X18980380Y-20087250D01*
X19223238Y-20230107D02*
X19223238Y-20430107D01*
X19151809Y-20115822D02*
X19080380Y-20330107D01*
X19266095Y-20330107D01*
X19608952Y-20430107D02*
X19608952Y-20130107D01*
X19737523Y-20430107D02*
X19737523Y-20272965D01*
X19723238Y-20244393D01*
X19694666Y-20230107D01*
X19651809Y-20230107D01*
X19623238Y-20244393D01*
X19608952Y-20258679D01*
X19923238Y-20430107D02*
X19894666Y-20415822D01*
X19880380Y-20401536D01*
X19866095Y-20372965D01*
X19866095Y-20287250D01*
X19880380Y-20258679D01*
X19894666Y-20244393D01*
X19923238Y-20230107D01*
X19966095Y-20230107D01*
X19994666Y-20244393D01*
X20008952Y-20258679D01*
X20023238Y-20287250D01*
X20023238Y-20372965D01*
X20008952Y-20401536D01*
X19994666Y-20415822D01*
X19966095Y-20430107D01*
X19923238Y-20430107D01*
X20194666Y-20430107D02*
X20166095Y-20415822D01*
X20151809Y-20387250D01*
X20151809Y-20130107D01*
X20423238Y-20415822D02*
X20394666Y-20430107D01*
X20337523Y-20430107D01*
X20308952Y-20415822D01*
X20294666Y-20387250D01*
X20294666Y-20272965D01*
X20308952Y-20244393D01*
X20337523Y-20230107D01*
X20394666Y-20230107D01*
X20423238Y-20244393D01*
X20437523Y-20272965D01*
X20437523Y-20301536D01*
X20294666Y-20330107D01*
X20551809Y-20415822D02*
X20580380Y-20430107D01*
X20637523Y-20430107D01*
X20666095Y-20415822D01*
X20680380Y-20387250D01*
X20680380Y-20372965D01*
X20666095Y-20344393D01*
X20637523Y-20330107D01*
X20594666Y-20330107D01*
X20566095Y-20315822D01*
X20551809Y-20287250D01*
X20551809Y-20272965D01*
X20566095Y-20244393D01*
X20594666Y-20230107D01*
X20637523Y-20230107D01*
X20666095Y-20244393D01*
X20780380Y-20544393D02*
X20794666Y-20530107D01*
X20823238Y-20487250D01*
X20837523Y-20458679D01*
X20851809Y-20415822D01*
X20866095Y-20344393D01*
X20866095Y-20287250D01*
X20851809Y-20215822D01*
X20837523Y-20172965D01*
X20823238Y-20144393D01*
X20794666Y-20101536D01*
X20780380Y-20087250D01*
X21323238Y-20544393D02*
X21308952Y-20530107D01*
X21280380Y-20487250D01*
X21266095Y-20458679D01*
X21251809Y-20415822D01*
X21237523Y-20344393D01*
X21237523Y-20287250D01*
X21251809Y-20215822D01*
X21266095Y-20172965D01*
X21280380Y-20144393D01*
X21308952Y-20101536D01*
X21323238Y-20087250D01*
X21437523Y-20230107D02*
X21437523Y-20430107D01*
X21437523Y-20258679D02*
X21451809Y-20244393D01*
X21480380Y-20230107D01*
X21523238Y-20230107D01*
X21551809Y-20244393D01*
X21566095Y-20272965D01*
X21566095Y-20430107D01*
X21751809Y-20430107D02*
X21723238Y-20415822D01*
X21708952Y-20401536D01*
X21694666Y-20372965D01*
X21694666Y-20287250D01*
X21708952Y-20258679D01*
X21723238Y-20244393D01*
X21751809Y-20230107D01*
X21794666Y-20230107D01*
X21823238Y-20244393D01*
X21837523Y-20258679D01*
X21851809Y-20287250D01*
X21851809Y-20372965D01*
X21837523Y-20401536D01*
X21823238Y-20415822D01*
X21794666Y-20430107D01*
X21751809Y-20430107D01*
X21937523Y-20230107D02*
X22051809Y-20230107D01*
X21980380Y-20130107D02*
X21980380Y-20387250D01*
X21994666Y-20415822D01*
X22023238Y-20430107D01*
X22051809Y-20430107D01*
X22380380Y-20230107D02*
X22380380Y-20530107D01*
X22380380Y-20244393D02*
X22408952Y-20230107D01*
X22466095Y-20230107D01*
X22494666Y-20244393D01*
X22508952Y-20258679D01*
X22523238Y-20287250D01*
X22523238Y-20372965D01*
X22508952Y-20401536D01*
X22494666Y-20415822D01*
X22466095Y-20430107D01*
X22408952Y-20430107D01*
X22380380Y-20415822D01*
X22694666Y-20430107D02*
X22666095Y-20415822D01*
X22651809Y-20387250D01*
X22651809Y-20130107D01*
X22937523Y-20430107D02*
X22937523Y-20272965D01*
X22923238Y-20244393D01*
X22894666Y-20230107D01*
X22837523Y-20230107D01*
X22808952Y-20244393D01*
X22937523Y-20415822D02*
X22908952Y-20430107D01*
X22837523Y-20430107D01*
X22808952Y-20415822D01*
X22794666Y-20387250D01*
X22794666Y-20358679D01*
X22808952Y-20330107D01*
X22837523Y-20315822D01*
X22908952Y-20315822D01*
X22937523Y-20301536D01*
X23037523Y-20230107D02*
X23151809Y-20230107D01*
X23080380Y-20130107D02*
X23080380Y-20387250D01*
X23094666Y-20415822D01*
X23123238Y-20430107D01*
X23151809Y-20430107D01*
X23366095Y-20415822D02*
X23337523Y-20430107D01*
X23280380Y-20430107D01*
X23251809Y-20415822D01*
X23237523Y-20387250D01*
X23237523Y-20272965D01*
X23251809Y-20244393D01*
X23280380Y-20230107D01*
X23337523Y-20230107D01*
X23366095Y-20244393D01*
X23380380Y-20272965D01*
X23380380Y-20301536D01*
X23237523Y-20330107D01*
X23637523Y-20430107D02*
X23637523Y-20130107D01*
X23637523Y-20415822D02*
X23608952Y-20430107D01*
X23551809Y-20430107D01*
X23523238Y-20415822D01*
X23508952Y-20401536D01*
X23494666Y-20372965D01*
X23494666Y-20287250D01*
X23508952Y-20258679D01*
X23523238Y-20244393D01*
X23551809Y-20230107D01*
X23608952Y-20230107D01*
X23637523Y-20244393D01*
X23751809Y-20544393D02*
X23766095Y-20530107D01*
X23794666Y-20487250D01*
X23808952Y-20458679D01*
X23823238Y-20415822D01*
X23837523Y-20344393D01*
X23837523Y-20287250D01*
X23823238Y-20215822D01*
X23808952Y-20172965D01*
X23794666Y-20144393D01*
X23766095Y-20101536D01*
X23751809Y-20087250D01*
X14293952Y-20690393D02*
G75*
G03*
X14293952Y-20690393I-85090J0D01*
G01*
X14737523Y-20826107D02*
X14566095Y-20826107D01*
X14651809Y-20826107D02*
X14651809Y-20526107D01*
X14623238Y-20568965D01*
X14594666Y-20597536D01*
X14566095Y-20611822D01*
X14866095Y-20797536D02*
X14880380Y-20811822D01*
X14866095Y-20826107D01*
X14851809Y-20811822D01*
X14866095Y-20797536D01*
X14866095Y-20826107D01*
X14980380Y-20526107D02*
X15180380Y-20526107D01*
X15051809Y-20826107D01*
X15351809Y-20526107D02*
X15380380Y-20526107D01*
X15408952Y-20540393D01*
X15423238Y-20554679D01*
X15437523Y-20583250D01*
X15451809Y-20640393D01*
X15451809Y-20711822D01*
X15437523Y-20768965D01*
X15423238Y-20797536D01*
X15408952Y-20811822D01*
X15380380Y-20826107D01*
X15351809Y-20826107D01*
X15323238Y-20811822D01*
X15308952Y-20797536D01*
X15294666Y-20768965D01*
X15280380Y-20711822D01*
X15280380Y-20640393D01*
X15294666Y-20583250D01*
X15308952Y-20554679D01*
X15323238Y-20540393D01*
X15351809Y-20526107D01*
X15580380Y-20826107D02*
X15580380Y-20626107D01*
X15580380Y-20654679D02*
X15594666Y-20640393D01*
X15623238Y-20626107D01*
X15666095Y-20626107D01*
X15694666Y-20640393D01*
X15708952Y-20668965D01*
X15708952Y-20826107D01*
X15708952Y-20668965D02*
X15723238Y-20640393D01*
X15751809Y-20626107D01*
X15794666Y-20626107D01*
X15823238Y-20640393D01*
X15837523Y-20668965D01*
X15837523Y-20826107D01*
X15980380Y-20826107D02*
X15980380Y-20626107D01*
X15980380Y-20654679D02*
X15994666Y-20640393D01*
X16023238Y-20626107D01*
X16066095Y-20626107D01*
X16094666Y-20640393D01*
X16108952Y-20668965D01*
X16108952Y-20826107D01*
X16108952Y-20668965D02*
X16123238Y-20640393D01*
X16151809Y-20626107D01*
X16194666Y-20626107D01*
X16223238Y-20640393D01*
X16237523Y-20668965D01*
X16237523Y-20826107D01*
X16823238Y-20511822D02*
X16566095Y-20897536D01*
X17208952Y-20526107D02*
X17237523Y-20526107D01*
X17266095Y-20540393D01*
X17280380Y-20554679D01*
X17294666Y-20583250D01*
X17308952Y-20640393D01*
X17308952Y-20711822D01*
X17294666Y-20768965D01*
X17280380Y-20797536D01*
X17266095Y-20811822D01*
X17237523Y-20826107D01*
X17208952Y-20826107D01*
X17180380Y-20811822D01*
X17166095Y-20797536D01*
X17151809Y-20768965D01*
X17137523Y-20711822D01*
X17137523Y-20640393D01*
X17151809Y-20583250D01*
X17166095Y-20554679D01*
X17180380Y-20540393D01*
X17208952Y-20526107D01*
X17437523Y-20797536D02*
X17451809Y-20811822D01*
X17437523Y-20826107D01*
X17423238Y-20811822D01*
X17437523Y-20797536D01*
X17437523Y-20826107D01*
X17637523Y-20526107D02*
X17666095Y-20526107D01*
X17694666Y-20540393D01*
X17708952Y-20554679D01*
X17723238Y-20583250D01*
X17737523Y-20640393D01*
X17737523Y-20711822D01*
X17723238Y-20768965D01*
X17708952Y-20797536D01*
X17694666Y-20811822D01*
X17666095Y-20826107D01*
X17637523Y-20826107D01*
X17608952Y-20811822D01*
X17594666Y-20797536D01*
X17580380Y-20768965D01*
X17566095Y-20711822D01*
X17566095Y-20640393D01*
X17580380Y-20583250D01*
X17594666Y-20554679D01*
X17608952Y-20540393D01*
X17637523Y-20526107D01*
X17994666Y-20526107D02*
X17937523Y-20526107D01*
X17908952Y-20540393D01*
X17894666Y-20554679D01*
X17866095Y-20597536D01*
X17851809Y-20654679D01*
X17851809Y-20768965D01*
X17866095Y-20797536D01*
X17880380Y-20811822D01*
X17908952Y-20826107D01*
X17966095Y-20826107D01*
X17994666Y-20811822D01*
X18008952Y-20797536D01*
X18023238Y-20768965D01*
X18023238Y-20697536D01*
X18008952Y-20668965D01*
X17994666Y-20654679D01*
X17966095Y-20640393D01*
X17908952Y-20640393D01*
X17880380Y-20654679D01*
X17866095Y-20668965D01*
X17851809Y-20697536D01*
X18123238Y-20526107D02*
X18323238Y-20526107D01*
X18194666Y-20826107D01*
X18423238Y-20526107D02*
X18423238Y-20583250D01*
X18537523Y-20526107D02*
X18537523Y-20583250D01*
X18980380Y-20940393D02*
X18966095Y-20926107D01*
X18937523Y-20883250D01*
X18923238Y-20854679D01*
X18908952Y-20811822D01*
X18894666Y-20740393D01*
X18894666Y-20683250D01*
X18908952Y-20611822D01*
X18923238Y-20568965D01*
X18937523Y-20540393D01*
X18966095Y-20497536D01*
X18980380Y-20483250D01*
X19237523Y-20526107D02*
X19094666Y-20526107D01*
X19080380Y-20668965D01*
X19094666Y-20654679D01*
X19123238Y-20640393D01*
X19194666Y-20640393D01*
X19223238Y-20654679D01*
X19237523Y-20668965D01*
X19251809Y-20697536D01*
X19251809Y-20768965D01*
X19237523Y-20797536D01*
X19223238Y-20811822D01*
X19194666Y-20826107D01*
X19123238Y-20826107D01*
X19094666Y-20811822D01*
X19080380Y-20797536D01*
X19437523Y-20526107D02*
X19466095Y-20526107D01*
X19494666Y-20540393D01*
X19508952Y-20554679D01*
X19523238Y-20583250D01*
X19537523Y-20640393D01*
X19537523Y-20711822D01*
X19523238Y-20768965D01*
X19508952Y-20797536D01*
X19494666Y-20811822D01*
X19466095Y-20826107D01*
X19437523Y-20826107D01*
X19408952Y-20811822D01*
X19394666Y-20797536D01*
X19380380Y-20768965D01*
X19366095Y-20711822D01*
X19366095Y-20640393D01*
X19380380Y-20583250D01*
X19394666Y-20554679D01*
X19408952Y-20540393D01*
X19437523Y-20526107D01*
X19894666Y-20826107D02*
X19894666Y-20526107D01*
X20023238Y-20826107D02*
X20023238Y-20668965D01*
X20008952Y-20640393D01*
X19980380Y-20626107D01*
X19937523Y-20626107D01*
X19908952Y-20640393D01*
X19894666Y-20654679D01*
X20208952Y-20826107D02*
X20180380Y-20811822D01*
X20166095Y-20797536D01*
X20151809Y-20768965D01*
X20151809Y-20683250D01*
X20166095Y-20654679D01*
X20180380Y-20640393D01*
X20208952Y-20626107D01*
X20251809Y-20626107D01*
X20280380Y-20640393D01*
X20294666Y-20654679D01*
X20308952Y-20683250D01*
X20308952Y-20768965D01*
X20294666Y-20797536D01*
X20280380Y-20811822D01*
X20251809Y-20826107D01*
X20208952Y-20826107D01*
X20480380Y-20826107D02*
X20451809Y-20811822D01*
X20437523Y-20783250D01*
X20437523Y-20526107D01*
X20708952Y-20811822D02*
X20680380Y-20826107D01*
X20623238Y-20826107D01*
X20594666Y-20811822D01*
X20580380Y-20783250D01*
X20580380Y-20668965D01*
X20594666Y-20640393D01*
X20623238Y-20626107D01*
X20680380Y-20626107D01*
X20708952Y-20640393D01*
X20723238Y-20668965D01*
X20723238Y-20697536D01*
X20580380Y-20726107D01*
X20837523Y-20811822D02*
X20866095Y-20826107D01*
X20923238Y-20826107D01*
X20951809Y-20811822D01*
X20966095Y-20783250D01*
X20966095Y-20768965D01*
X20951809Y-20740393D01*
X20923238Y-20726107D01*
X20880380Y-20726107D01*
X20851809Y-20711822D01*
X20837523Y-20683250D01*
X20837523Y-20668965D01*
X20851809Y-20640393D01*
X20880380Y-20626107D01*
X20923238Y-20626107D01*
X20951809Y-20640393D01*
X21066095Y-20940393D02*
X21080380Y-20926107D01*
X21108952Y-20883250D01*
X21123238Y-20854679D01*
X21137523Y-20811822D01*
X21151809Y-20740393D01*
X21151809Y-20683250D01*
X21137523Y-20611822D01*
X21123238Y-20568965D01*
X21108952Y-20540393D01*
X21080380Y-20497536D01*
X21066095Y-20483250D01*
X21608952Y-20940393D02*
X21594666Y-20926107D01*
X21566095Y-20883250D01*
X21551809Y-20854679D01*
X21537523Y-20811822D01*
X21523238Y-20740393D01*
X21523238Y-20683250D01*
X21537523Y-20611822D01*
X21551809Y-20568965D01*
X21566095Y-20540393D01*
X21594666Y-20497536D01*
X21608952Y-20483250D01*
X21723238Y-20626107D02*
X21723238Y-20826107D01*
X21723238Y-20654679D02*
X21737523Y-20640393D01*
X21766095Y-20626107D01*
X21808952Y-20626107D01*
X21837523Y-20640393D01*
X21851809Y-20668965D01*
X21851809Y-20826107D01*
X22037523Y-20826107D02*
X22008952Y-20811822D01*
X21994666Y-20797536D01*
X21980380Y-20768965D01*
X21980380Y-20683250D01*
X21994666Y-20654679D01*
X22008952Y-20640393D01*
X22037523Y-20626107D01*
X22080380Y-20626107D01*
X22108952Y-20640393D01*
X22123238Y-20654679D01*
X22137523Y-20683250D01*
X22137523Y-20768965D01*
X22123238Y-20797536D01*
X22108952Y-20811822D01*
X22080380Y-20826107D01*
X22037523Y-20826107D01*
X22223238Y-20626107D02*
X22337523Y-20626107D01*
X22266095Y-20526107D02*
X22266095Y-20783250D01*
X22280380Y-20811822D01*
X22308952Y-20826107D01*
X22337523Y-20826107D01*
X22666095Y-20626107D02*
X22666095Y-20926107D01*
X22666095Y-20640393D02*
X22694666Y-20626107D01*
X22751809Y-20626107D01*
X22780380Y-20640393D01*
X22794666Y-20654679D01*
X22808952Y-20683250D01*
X22808952Y-20768965D01*
X22794666Y-20797536D01*
X22780380Y-20811822D01*
X22751809Y-20826107D01*
X22694666Y-20826107D01*
X22666095Y-20811822D01*
X22980380Y-20826107D02*
X22951809Y-20811822D01*
X22937523Y-20783250D01*
X22937523Y-20526107D01*
X23223238Y-20826107D02*
X23223238Y-20668965D01*
X23208952Y-20640393D01*
X23180380Y-20626107D01*
X23123238Y-20626107D01*
X23094666Y-20640393D01*
X23223238Y-20811822D02*
X23194666Y-20826107D01*
X23123238Y-20826107D01*
X23094666Y-20811822D01*
X23080380Y-20783250D01*
X23080380Y-20754679D01*
X23094666Y-20726107D01*
X23123238Y-20711822D01*
X23194666Y-20711822D01*
X23223238Y-20697536D01*
X23323238Y-20626107D02*
X23437523Y-20626107D01*
X23366095Y-20526107D02*
X23366095Y-20783250D01*
X23380380Y-20811822D01*
X23408952Y-20826107D01*
X23437523Y-20826107D01*
X23651809Y-20811822D02*
X23623238Y-20826107D01*
X23566095Y-20826107D01*
X23537523Y-20811822D01*
X23523238Y-20783250D01*
X23523238Y-20668965D01*
X23537523Y-20640393D01*
X23566095Y-20626107D01*
X23623238Y-20626107D01*
X23651809Y-20640393D01*
X23666095Y-20668965D01*
X23666095Y-20697536D01*
X23523238Y-20726107D01*
X23923238Y-20826107D02*
X23923238Y-20526107D01*
X23923238Y-20811822D02*
X23894666Y-20826107D01*
X23837523Y-20826107D01*
X23808952Y-20811822D01*
X23794666Y-20797536D01*
X23780380Y-20768965D01*
X23780380Y-20683250D01*
X23794666Y-20654679D01*
X23808952Y-20640393D01*
X23837523Y-20626107D01*
X23894666Y-20626107D01*
X23923238Y-20640393D01*
X24037523Y-20940393D02*
X24051809Y-20926107D01*
X24080380Y-20883250D01*
X24094666Y-20854679D01*
X24108952Y-20811822D01*
X24123238Y-20740393D01*
X24123238Y-20683250D01*
X24108952Y-20611822D01*
X24094666Y-20568965D01*
X24080380Y-20540393D01*
X24051809Y-20497536D01*
X24037523Y-20483250D01*
X14168952Y-20961393D02*
X14168952Y-21211393D01*
X14043952Y-21086393D02*
X14293952Y-21086393D01*
X14566095Y-20950679D02*
X14580380Y-20936393D01*
X14608952Y-20922107D01*
X14680380Y-20922107D01*
X14708952Y-20936393D01*
X14723238Y-20950679D01*
X14737523Y-20979250D01*
X14737523Y-21007822D01*
X14723238Y-21050679D01*
X14551809Y-21222107D01*
X14737523Y-21222107D01*
X14866095Y-21193536D02*
X14880380Y-21207822D01*
X14866095Y-21222107D01*
X14851809Y-21207822D01*
X14866095Y-21193536D01*
X14866095Y-21222107D01*
X15151809Y-20922107D02*
X15008952Y-20922107D01*
X14994666Y-21064965D01*
X15008952Y-21050679D01*
X15037523Y-21036393D01*
X15108952Y-21036393D01*
X15137523Y-21050679D01*
X15151809Y-21064965D01*
X15166095Y-21093536D01*
X15166095Y-21164965D01*
X15151809Y-21193536D01*
X15137523Y-21207822D01*
X15108952Y-21222107D01*
X15037523Y-21222107D01*
X15008952Y-21207822D01*
X14994666Y-21193536D01*
X15351809Y-20922107D02*
X15380380Y-20922107D01*
X15408952Y-20936393D01*
X15423238Y-20950679D01*
X15437523Y-20979250D01*
X15451809Y-21036393D01*
X15451809Y-21107822D01*
X15437523Y-21164965D01*
X15423238Y-21193536D01*
X15408952Y-21207822D01*
X15380380Y-21222107D01*
X15351809Y-21222107D01*
X15323238Y-21207822D01*
X15308952Y-21193536D01*
X15294666Y-21164965D01*
X15280380Y-21107822D01*
X15280380Y-21036393D01*
X15294666Y-20979250D01*
X15308952Y-20950679D01*
X15323238Y-20936393D01*
X15351809Y-20922107D01*
X15580380Y-21222107D02*
X15580380Y-21022107D01*
X15580380Y-21050679D02*
X15594666Y-21036393D01*
X15623238Y-21022107D01*
X15666095Y-21022107D01*
X15694666Y-21036393D01*
X15708952Y-21064965D01*
X15708952Y-21222107D01*
X15708952Y-21064965D02*
X15723238Y-21036393D01*
X15751809Y-21022107D01*
X15794666Y-21022107D01*
X15823238Y-21036393D01*
X15837523Y-21064965D01*
X15837523Y-21222107D01*
X15980380Y-21222107D02*
X15980380Y-21022107D01*
X15980380Y-21050679D02*
X15994666Y-21036393D01*
X16023238Y-21022107D01*
X16066095Y-21022107D01*
X16094666Y-21036393D01*
X16108952Y-21064965D01*
X16108952Y-21222107D01*
X16108952Y-21064965D02*
X16123238Y-21036393D01*
X16151809Y-21022107D01*
X16194666Y-21022107D01*
X16223238Y-21036393D01*
X16237523Y-21064965D01*
X16237523Y-21222107D01*
X16823238Y-20907822D02*
X16566095Y-21293536D01*
X17208952Y-20922107D02*
X17237523Y-20922107D01*
X17266095Y-20936393D01*
X17280380Y-20950679D01*
X17294666Y-20979250D01*
X17308952Y-21036393D01*
X17308952Y-21107822D01*
X17294666Y-21164965D01*
X17280380Y-21193536D01*
X17266095Y-21207822D01*
X17237523Y-21222107D01*
X17208952Y-21222107D01*
X17180380Y-21207822D01*
X17166095Y-21193536D01*
X17151809Y-21164965D01*
X17137523Y-21107822D01*
X17137523Y-21036393D01*
X17151809Y-20979250D01*
X17166095Y-20950679D01*
X17180380Y-20936393D01*
X17208952Y-20922107D01*
X17437523Y-21193536D02*
X17451809Y-21207822D01*
X17437523Y-21222107D01*
X17423238Y-21207822D01*
X17437523Y-21193536D01*
X17437523Y-21222107D01*
X17637523Y-20922107D02*
X17666095Y-20922107D01*
X17694666Y-20936393D01*
X17708952Y-20950679D01*
X17723238Y-20979250D01*
X17737523Y-21036393D01*
X17737523Y-21107822D01*
X17723238Y-21164965D01*
X17708952Y-21193536D01*
X17694666Y-21207822D01*
X17666095Y-21222107D01*
X17637523Y-21222107D01*
X17608952Y-21207822D01*
X17594666Y-21193536D01*
X17580380Y-21164965D01*
X17566095Y-21107822D01*
X17566095Y-21036393D01*
X17580380Y-20979250D01*
X17594666Y-20950679D01*
X17608952Y-20936393D01*
X17637523Y-20922107D01*
X17880380Y-21222107D02*
X17937523Y-21222107D01*
X17966095Y-21207822D01*
X17980380Y-21193536D01*
X18008952Y-21150679D01*
X18023238Y-21093536D01*
X18023238Y-20979250D01*
X18008952Y-20950679D01*
X17994666Y-20936393D01*
X17966095Y-20922107D01*
X17908952Y-20922107D01*
X17880380Y-20936393D01*
X17866095Y-20950679D01*
X17851809Y-20979250D01*
X17851809Y-21050679D01*
X17866095Y-21079250D01*
X17880380Y-21093536D01*
X17908952Y-21107822D01*
X17966095Y-21107822D01*
X17994666Y-21093536D01*
X18008952Y-21079250D01*
X18023238Y-21050679D01*
X18194666Y-21050679D02*
X18166095Y-21036393D01*
X18151809Y-21022107D01*
X18137523Y-20993536D01*
X18137523Y-20979250D01*
X18151809Y-20950679D01*
X18166095Y-20936393D01*
X18194666Y-20922107D01*
X18251809Y-20922107D01*
X18280380Y-20936393D01*
X18294666Y-20950679D01*
X18308952Y-20979250D01*
X18308952Y-20993536D01*
X18294666Y-21022107D01*
X18280380Y-21036393D01*
X18251809Y-21050679D01*
X18194666Y-21050679D01*
X18166095Y-21064965D01*
X18151809Y-21079250D01*
X18137523Y-21107822D01*
X18137523Y-21164965D01*
X18151809Y-21193536D01*
X18166095Y-21207822D01*
X18194666Y-21222107D01*
X18251809Y-21222107D01*
X18280380Y-21207822D01*
X18294666Y-21193536D01*
X18308952Y-21164965D01*
X18308952Y-21107822D01*
X18294666Y-21079250D01*
X18280380Y-21064965D01*
X18251809Y-21050679D01*
X18423238Y-20922107D02*
X18423238Y-20979250D01*
X18537523Y-20922107D02*
X18537523Y-20979250D01*
X18980380Y-21336393D02*
X18966095Y-21322107D01*
X18937523Y-21279250D01*
X18923238Y-21250679D01*
X18908952Y-21207822D01*
X18894666Y-21136393D01*
X18894666Y-21079250D01*
X18908952Y-21007822D01*
X18923238Y-20964965D01*
X18937523Y-20936393D01*
X18966095Y-20893536D01*
X18980380Y-20879250D01*
X19066095Y-20922107D02*
X19266095Y-20922107D01*
X19137523Y-21222107D01*
X19608952Y-21222107D02*
X19608952Y-20922107D01*
X19737523Y-21222107D02*
X19737523Y-21064965D01*
X19723238Y-21036393D01*
X19694666Y-21022107D01*
X19651809Y-21022107D01*
X19623238Y-21036393D01*
X19608952Y-21050679D01*
X19923238Y-21222107D02*
X19894666Y-21207822D01*
X19880380Y-21193536D01*
X19866095Y-21164965D01*
X19866095Y-21079250D01*
X19880380Y-21050679D01*
X19894666Y-21036393D01*
X19923238Y-21022107D01*
X19966095Y-21022107D01*
X19994666Y-21036393D01*
X20008952Y-21050679D01*
X20023238Y-21079250D01*
X20023238Y-21164965D01*
X20008952Y-21193536D01*
X19994666Y-21207822D01*
X19966095Y-21222107D01*
X19923238Y-21222107D01*
X20194666Y-21222107D02*
X20166095Y-21207822D01*
X20151809Y-21179250D01*
X20151809Y-20922107D01*
X20423238Y-21207822D02*
X20394666Y-21222107D01*
X20337523Y-21222107D01*
X20308952Y-21207822D01*
X20294666Y-21179250D01*
X20294666Y-21064965D01*
X20308952Y-21036393D01*
X20337523Y-21022107D01*
X20394666Y-21022107D01*
X20423238Y-21036393D01*
X20437523Y-21064965D01*
X20437523Y-21093536D01*
X20294666Y-21122107D01*
X20551809Y-21207822D02*
X20580380Y-21222107D01*
X20637523Y-21222107D01*
X20666095Y-21207822D01*
X20680380Y-21179250D01*
X20680380Y-21164965D01*
X20666095Y-21136393D01*
X20637523Y-21122107D01*
X20594666Y-21122107D01*
X20566095Y-21107822D01*
X20551809Y-21079250D01*
X20551809Y-21064965D01*
X20566095Y-21036393D01*
X20594666Y-21022107D01*
X20637523Y-21022107D01*
X20666095Y-21036393D01*
X20780380Y-21336393D02*
X20794666Y-21322107D01*
X20823238Y-21279250D01*
X20837523Y-21250679D01*
X20851809Y-21207822D01*
X20866095Y-21136393D01*
X20866095Y-21079250D01*
X20851809Y-21007822D01*
X20837523Y-20964965D01*
X20823238Y-20936393D01*
X20794666Y-20893536D01*
X20780380Y-20879250D01*
X21323238Y-21336393D02*
X21308952Y-21322107D01*
X21280380Y-21279250D01*
X21266095Y-21250679D01*
X21251809Y-21207822D01*
X21237523Y-21136393D01*
X21237523Y-21079250D01*
X21251809Y-21007822D01*
X21266095Y-20964965D01*
X21280380Y-20936393D01*
X21308952Y-20893536D01*
X21323238Y-20879250D01*
X21437523Y-21022107D02*
X21437523Y-21222107D01*
X21437523Y-21050679D02*
X21451809Y-21036393D01*
X21480380Y-21022107D01*
X21523238Y-21022107D01*
X21551809Y-21036393D01*
X21566095Y-21064965D01*
X21566095Y-21222107D01*
X21751809Y-21222107D02*
X21723238Y-21207822D01*
X21708952Y-21193536D01*
X21694666Y-21164965D01*
X21694666Y-21079250D01*
X21708952Y-21050679D01*
X21723238Y-21036393D01*
X21751809Y-21022107D01*
X21794666Y-21022107D01*
X21823238Y-21036393D01*
X21837523Y-21050679D01*
X21851809Y-21079250D01*
X21851809Y-21164965D01*
X21837523Y-21193536D01*
X21823238Y-21207822D01*
X21794666Y-21222107D01*
X21751809Y-21222107D01*
X21937523Y-21022107D02*
X22051809Y-21022107D01*
X21980380Y-20922107D02*
X21980380Y-21179250D01*
X21994666Y-21207822D01*
X22023238Y-21222107D01*
X22051809Y-21222107D01*
X22380380Y-21022107D02*
X22380380Y-21322107D01*
X22380380Y-21036393D02*
X22408952Y-21022107D01*
X22466095Y-21022107D01*
X22494666Y-21036393D01*
X22508952Y-21050679D01*
X22523238Y-21079250D01*
X22523238Y-21164965D01*
X22508952Y-21193536D01*
X22494666Y-21207822D01*
X22466095Y-21222107D01*
X22408952Y-21222107D01*
X22380380Y-21207822D01*
X22694666Y-21222107D02*
X22666095Y-21207822D01*
X22651809Y-21179250D01*
X22651809Y-20922107D01*
X22937523Y-21222107D02*
X22937523Y-21064965D01*
X22923238Y-21036393D01*
X22894666Y-21022107D01*
X22837523Y-21022107D01*
X22808952Y-21036393D01*
X22937523Y-21207822D02*
X22908952Y-21222107D01*
X22837523Y-21222107D01*
X22808952Y-21207822D01*
X22794666Y-21179250D01*
X22794666Y-21150679D01*
X22808952Y-21122107D01*
X22837523Y-21107822D01*
X22908952Y-21107822D01*
X22937523Y-21093536D01*
X23037523Y-21022107D02*
X23151809Y-21022107D01*
X23080380Y-20922107D02*
X23080380Y-21179250D01*
X23094666Y-21207822D01*
X23123238Y-21222107D01*
X23151809Y-21222107D01*
X23366095Y-21207822D02*
X23337523Y-21222107D01*
X23280380Y-21222107D01*
X23251809Y-21207822D01*
X23237523Y-21179250D01*
X23237523Y-21064965D01*
X23251809Y-21036393D01*
X23280380Y-21022107D01*
X23337523Y-21022107D01*
X23366095Y-21036393D01*
X23380380Y-21064965D01*
X23380380Y-21093536D01*
X23237523Y-21122107D01*
X23637523Y-21222107D02*
X23637523Y-20922107D01*
X23637523Y-21207822D02*
X23608952Y-21222107D01*
X23551809Y-21222107D01*
X23523238Y-21207822D01*
X23508952Y-21193536D01*
X23494666Y-21164965D01*
X23494666Y-21079250D01*
X23508952Y-21050679D01*
X23523238Y-21036393D01*
X23551809Y-21022107D01*
X23608952Y-21022107D01*
X23637523Y-21036393D01*
X23751809Y-21336393D02*
X23766095Y-21322107D01*
X23794666Y-21279250D01*
X23808952Y-21250679D01*
X23823238Y-21207822D01*
X23837523Y-21136393D01*
X23837523Y-21079250D01*
X23823238Y-21007822D01*
X23808952Y-20964965D01*
X23794666Y-20936393D01*
X23766095Y-20893536D01*
X23751809Y-20879250D01*
X14250019Y-21588460D02*
X14250019Y-21376326D01*
X14037885Y-21376326D01*
X14037885Y-21588460D01*
X14250019Y-21588460D01*
X14551809Y-21318107D02*
X14737523Y-21318107D01*
X14637523Y-21432393D01*
X14680380Y-21432393D01*
X14708952Y-21446679D01*
X14723238Y-21460965D01*
X14737523Y-21489536D01*
X14737523Y-21560965D01*
X14723238Y-21589536D01*
X14708952Y-21603822D01*
X14680380Y-21618107D01*
X14594666Y-21618107D01*
X14566095Y-21603822D01*
X14551809Y-21589536D01*
X14866095Y-21589536D02*
X14880380Y-21603822D01*
X14866095Y-21618107D01*
X14851809Y-21603822D01*
X14866095Y-21589536D01*
X14866095Y-21618107D01*
X15066095Y-21318107D02*
X15094666Y-21318107D01*
X15123238Y-21332393D01*
X15137523Y-21346679D01*
X15151809Y-21375250D01*
X15166095Y-21432393D01*
X15166095Y-21503822D01*
X15151809Y-21560965D01*
X15137523Y-21589536D01*
X15123238Y-21603822D01*
X15094666Y-21618107D01*
X15066095Y-21618107D01*
X15037523Y-21603822D01*
X15023238Y-21589536D01*
X15008952Y-21560965D01*
X14994666Y-21503822D01*
X14994666Y-21432393D01*
X15008952Y-21375250D01*
X15023238Y-21346679D01*
X15037523Y-21332393D01*
X15066095Y-21318107D01*
X15351809Y-21318107D02*
X15380380Y-21318107D01*
X15408952Y-21332393D01*
X15423238Y-21346679D01*
X15437523Y-21375250D01*
X15451809Y-21432393D01*
X15451809Y-21503822D01*
X15437523Y-21560965D01*
X15423238Y-21589536D01*
X15408952Y-21603822D01*
X15380380Y-21618107D01*
X15351809Y-21618107D01*
X15323238Y-21603822D01*
X15308952Y-21589536D01*
X15294666Y-21560965D01*
X15280380Y-21503822D01*
X15280380Y-21432393D01*
X15294666Y-21375250D01*
X15308952Y-21346679D01*
X15323238Y-21332393D01*
X15351809Y-21318107D01*
X15580380Y-21618107D02*
X15580380Y-21418107D01*
X15580380Y-21446679D02*
X15594666Y-21432393D01*
X15623238Y-21418107D01*
X15666095Y-21418107D01*
X15694666Y-21432393D01*
X15708952Y-21460965D01*
X15708952Y-21618107D01*
X15708952Y-21460965D02*
X15723238Y-21432393D01*
X15751809Y-21418107D01*
X15794666Y-21418107D01*
X15823238Y-21432393D01*
X15837523Y-21460965D01*
X15837523Y-21618107D01*
X15980380Y-21618107D02*
X15980380Y-21418107D01*
X15980380Y-21446679D02*
X15994666Y-21432393D01*
X16023238Y-21418107D01*
X16066095Y-21418107D01*
X16094666Y-21432393D01*
X16108952Y-21460965D01*
X16108952Y-21618107D01*
X16108952Y-21460965D02*
X16123238Y-21432393D01*
X16151809Y-21418107D01*
X16194666Y-21418107D01*
X16223238Y-21432393D01*
X16237523Y-21460965D01*
X16237523Y-21618107D01*
X16823238Y-21303822D02*
X16566095Y-21689536D01*
X17208952Y-21318107D02*
X17237523Y-21318107D01*
X17266095Y-21332393D01*
X17280380Y-21346679D01*
X17294666Y-21375250D01*
X17308952Y-21432393D01*
X17308952Y-21503822D01*
X17294666Y-21560965D01*
X17280380Y-21589536D01*
X17266095Y-21603822D01*
X17237523Y-21618107D01*
X17208952Y-21618107D01*
X17180380Y-21603822D01*
X17166095Y-21589536D01*
X17151809Y-21560965D01*
X17137523Y-21503822D01*
X17137523Y-21432393D01*
X17151809Y-21375250D01*
X17166095Y-21346679D01*
X17180380Y-21332393D01*
X17208952Y-21318107D01*
X17437523Y-21589536D02*
X17451809Y-21603822D01*
X17437523Y-21618107D01*
X17423238Y-21603822D01*
X17437523Y-21589536D01*
X17437523Y-21618107D01*
X17737523Y-21618107D02*
X17566095Y-21618107D01*
X17651809Y-21618107D02*
X17651809Y-21318107D01*
X17623238Y-21360965D01*
X17594666Y-21389536D01*
X17566095Y-21403822D01*
X18023238Y-21618107D02*
X17851809Y-21618107D01*
X17937523Y-21618107D02*
X17937523Y-21318107D01*
X17908952Y-21360965D01*
X17880380Y-21389536D01*
X17851809Y-21403822D01*
X18194666Y-21446679D02*
X18166095Y-21432393D01*
X18151809Y-21418107D01*
X18137523Y-21389536D01*
X18137523Y-21375250D01*
X18151809Y-21346679D01*
X18166095Y-21332393D01*
X18194666Y-21318107D01*
X18251809Y-21318107D01*
X18280380Y-21332393D01*
X18294666Y-21346679D01*
X18308952Y-21375250D01*
X18308952Y-21389536D01*
X18294666Y-21418107D01*
X18280380Y-21432393D01*
X18251809Y-21446679D01*
X18194666Y-21446679D01*
X18166095Y-21460965D01*
X18151809Y-21475250D01*
X18137523Y-21503822D01*
X18137523Y-21560965D01*
X18151809Y-21589536D01*
X18166095Y-21603822D01*
X18194666Y-21618107D01*
X18251809Y-21618107D01*
X18280380Y-21603822D01*
X18294666Y-21589536D01*
X18308952Y-21560965D01*
X18308952Y-21503822D01*
X18294666Y-21475250D01*
X18280380Y-21460965D01*
X18251809Y-21446679D01*
X18423238Y-21318107D02*
X18423238Y-21375250D01*
X18537523Y-21318107D02*
X18537523Y-21375250D01*
X18980380Y-21732393D02*
X18966095Y-21718107D01*
X18937523Y-21675250D01*
X18923238Y-21646679D01*
X18908952Y-21603822D01*
X18894666Y-21532393D01*
X18894666Y-21475250D01*
X18908952Y-21403822D01*
X18923238Y-21360965D01*
X18937523Y-21332393D01*
X18966095Y-21289536D01*
X18980380Y-21275250D01*
X19251809Y-21618107D02*
X19080380Y-21618107D01*
X19166095Y-21618107D02*
X19166095Y-21318107D01*
X19137523Y-21360965D01*
X19108952Y-21389536D01*
X19080380Y-21403822D01*
X19437523Y-21318107D02*
X19466095Y-21318107D01*
X19494666Y-21332393D01*
X19508952Y-21346679D01*
X19523238Y-21375250D01*
X19537523Y-21432393D01*
X19537523Y-21503822D01*
X19523238Y-21560965D01*
X19508952Y-21589536D01*
X19494666Y-21603822D01*
X19466095Y-21618107D01*
X19437523Y-21618107D01*
X19408952Y-21603822D01*
X19394666Y-21589536D01*
X19380380Y-21560965D01*
X19366095Y-21503822D01*
X19366095Y-21432393D01*
X19380380Y-21375250D01*
X19394666Y-21346679D01*
X19408952Y-21332393D01*
X19437523Y-21318107D01*
X19723238Y-21318107D02*
X19751809Y-21318107D01*
X19780380Y-21332393D01*
X19794666Y-21346679D01*
X19808952Y-21375250D01*
X19823238Y-21432393D01*
X19823238Y-21503822D01*
X19808952Y-21560965D01*
X19794666Y-21589536D01*
X19780380Y-21603822D01*
X19751809Y-21618107D01*
X19723238Y-21618107D01*
X19694666Y-21603822D01*
X19680380Y-21589536D01*
X19666095Y-21560965D01*
X19651809Y-21503822D01*
X19651809Y-21432393D01*
X19666095Y-21375250D01*
X19680380Y-21346679D01*
X19694666Y-21332393D01*
X19723238Y-21318107D01*
X20180380Y-21618107D02*
X20180380Y-21318107D01*
X20308952Y-21618107D02*
X20308952Y-21460965D01*
X20294666Y-21432393D01*
X20266095Y-21418107D01*
X20223238Y-21418107D01*
X20194666Y-21432393D01*
X20180380Y-21446679D01*
X20494666Y-21618107D02*
X20466095Y-21603822D01*
X20451809Y-21589536D01*
X20437523Y-21560965D01*
X20437523Y-21475250D01*
X20451809Y-21446679D01*
X20466095Y-21432393D01*
X20494666Y-21418107D01*
X20537523Y-21418107D01*
X20566095Y-21432393D01*
X20580380Y-21446679D01*
X20594666Y-21475250D01*
X20594666Y-21560965D01*
X20580380Y-21589536D01*
X20566095Y-21603822D01*
X20537523Y-21618107D01*
X20494666Y-21618107D01*
X20766095Y-21618107D02*
X20737523Y-21603822D01*
X20723238Y-21575250D01*
X20723238Y-21318107D01*
X20994666Y-21603822D02*
X20966095Y-21618107D01*
X20908952Y-21618107D01*
X20880380Y-21603822D01*
X20866095Y-21575250D01*
X20866095Y-21460965D01*
X20880380Y-21432393D01*
X20908952Y-21418107D01*
X20966095Y-21418107D01*
X20994666Y-21432393D01*
X21008952Y-21460965D01*
X21008952Y-21489536D01*
X20866095Y-21518107D01*
X21123238Y-21603822D02*
X21151809Y-21618107D01*
X21208952Y-21618107D01*
X21237523Y-21603822D01*
X21251809Y-21575250D01*
X21251809Y-21560965D01*
X21237523Y-21532393D01*
X21208952Y-21518107D01*
X21166095Y-21518107D01*
X21137523Y-21503822D01*
X21123238Y-21475250D01*
X21123238Y-21460965D01*
X21137523Y-21432393D01*
X21166095Y-21418107D01*
X21208952Y-21418107D01*
X21237523Y-21432393D01*
X21351809Y-21732393D02*
X21366095Y-21718107D01*
X21394666Y-21675250D01*
X21408952Y-21646679D01*
X21423238Y-21603822D01*
X21437523Y-21532393D01*
X21437523Y-21475250D01*
X21423238Y-21403822D01*
X21408952Y-21360965D01*
X21394666Y-21332393D01*
X21366095Y-21289536D01*
X21351809Y-21275250D01*
X21894666Y-21732393D02*
X21880380Y-21718107D01*
X21851809Y-21675250D01*
X21837523Y-21646679D01*
X21823238Y-21603822D01*
X21808952Y-21532393D01*
X21808952Y-21475250D01*
X21823238Y-21403822D01*
X21837523Y-21360965D01*
X21851809Y-21332393D01*
X21880380Y-21289536D01*
X21894666Y-21275250D01*
X22008952Y-21418107D02*
X22008952Y-21618107D01*
X22008952Y-21446679D02*
X22023238Y-21432393D01*
X22051809Y-21418107D01*
X22094666Y-21418107D01*
X22123238Y-21432393D01*
X22137523Y-21460965D01*
X22137523Y-21618107D01*
X22323238Y-21618107D02*
X22294666Y-21603822D01*
X22280380Y-21589536D01*
X22266095Y-21560965D01*
X22266095Y-21475250D01*
X22280380Y-21446679D01*
X22294666Y-21432393D01*
X22323238Y-21418107D01*
X22366095Y-21418107D01*
X22394666Y-21432393D01*
X22408952Y-21446679D01*
X22423238Y-21475250D01*
X22423238Y-21560965D01*
X22408952Y-21589536D01*
X22394666Y-21603822D01*
X22366095Y-21618107D01*
X22323238Y-21618107D01*
X22508952Y-21418107D02*
X22623238Y-21418107D01*
X22551809Y-21318107D02*
X22551809Y-21575250D01*
X22566095Y-21603822D01*
X22594666Y-21618107D01*
X22623238Y-21618107D01*
X22951809Y-21418107D02*
X22951809Y-21718107D01*
X22951809Y-21432393D02*
X22980380Y-21418107D01*
X23037523Y-21418107D01*
X23066095Y-21432393D01*
X23080380Y-21446679D01*
X23094666Y-21475250D01*
X23094666Y-21560965D01*
X23080380Y-21589536D01*
X23066095Y-21603822D01*
X23037523Y-21618107D01*
X22980380Y-21618107D01*
X22951809Y-21603822D01*
X23266095Y-21618107D02*
X23237523Y-21603822D01*
X23223238Y-21575250D01*
X23223238Y-21318107D01*
X23508952Y-21618107D02*
X23508952Y-21460965D01*
X23494666Y-21432393D01*
X23466095Y-21418107D01*
X23408952Y-21418107D01*
X23380380Y-21432393D01*
X23508952Y-21603822D02*
X23480380Y-21618107D01*
X23408952Y-21618107D01*
X23380380Y-21603822D01*
X23366095Y-21575250D01*
X23366095Y-21546679D01*
X23380380Y-21518107D01*
X23408952Y-21503822D01*
X23480380Y-21503822D01*
X23508952Y-21489536D01*
X23608952Y-21418107D02*
X23723238Y-21418107D01*
X23651809Y-21318107D02*
X23651809Y-21575250D01*
X23666095Y-21603822D01*
X23694666Y-21618107D01*
X23723238Y-21618107D01*
X23937523Y-21603822D02*
X23908952Y-21618107D01*
X23851809Y-21618107D01*
X23823238Y-21603822D01*
X23808952Y-21575250D01*
X23808952Y-21460965D01*
X23823238Y-21432393D01*
X23851809Y-21418107D01*
X23908952Y-21418107D01*
X23937523Y-21432393D01*
X23951809Y-21460965D01*
X23951809Y-21489536D01*
X23808952Y-21518107D01*
X24208952Y-21618107D02*
X24208952Y-21318107D01*
X24208952Y-21603822D02*
X24180380Y-21618107D01*
X24123238Y-21618107D01*
X24094666Y-21603822D01*
X24080380Y-21589536D01*
X24066095Y-21560965D01*
X24066095Y-21475250D01*
X24080380Y-21446679D01*
X24094666Y-21432393D01*
X24123238Y-21418107D01*
X24180380Y-21418107D01*
X24208952Y-21432393D01*
X24323238Y-21732393D02*
X24337523Y-21718107D01*
X24366095Y-21675250D01*
X24380380Y-21646679D01*
X24394666Y-21603822D01*
X24408952Y-21532393D01*
X24408952Y-21475250D01*
X24394666Y-21403822D01*
X24380380Y-21360965D01*
X24366095Y-21332393D01*
X24337523Y-21289536D01*
X24323238Y-21275250D01*
X14094562Y-22111783D02*
X14293952Y-21912393D01*
X14094562Y-21713003D01*
X13895172Y-21912393D01*
X14094562Y-22111783D01*
X14551809Y-21748107D02*
X14737523Y-21748107D01*
X14637523Y-21862393D01*
X14680380Y-21862393D01*
X14708952Y-21876679D01*
X14723238Y-21890965D01*
X14737523Y-21919536D01*
X14737523Y-21990965D01*
X14723238Y-22019536D01*
X14708952Y-22033822D01*
X14680380Y-22048107D01*
X14594666Y-22048107D01*
X14566095Y-22033822D01*
X14551809Y-22019536D01*
X14866095Y-22019536D02*
X14880380Y-22033822D01*
X14866095Y-22048107D01*
X14851809Y-22033822D01*
X14866095Y-22019536D01*
X14866095Y-22048107D01*
X15023238Y-22048107D02*
X15080380Y-22048107D01*
X15108952Y-22033822D01*
X15123238Y-22019536D01*
X15151809Y-21976679D01*
X15166095Y-21919536D01*
X15166095Y-21805250D01*
X15151809Y-21776679D01*
X15137523Y-21762393D01*
X15108952Y-21748107D01*
X15051809Y-21748107D01*
X15023238Y-21762393D01*
X15008952Y-21776679D01*
X14994666Y-21805250D01*
X14994666Y-21876679D01*
X15008952Y-21905250D01*
X15023238Y-21919536D01*
X15051809Y-21933822D01*
X15108952Y-21933822D01*
X15137523Y-21919536D01*
X15151809Y-21905250D01*
X15166095Y-21876679D01*
X15308952Y-22048107D02*
X15366095Y-22048107D01*
X15394666Y-22033822D01*
X15408952Y-22019536D01*
X15437523Y-21976679D01*
X15451809Y-21919536D01*
X15451809Y-21805250D01*
X15437523Y-21776679D01*
X15423238Y-21762393D01*
X15394666Y-21748107D01*
X15337523Y-21748107D01*
X15308952Y-21762393D01*
X15294666Y-21776679D01*
X15280380Y-21805250D01*
X15280380Y-21876679D01*
X15294666Y-21905250D01*
X15308952Y-21919536D01*
X15337523Y-21933822D01*
X15394666Y-21933822D01*
X15423238Y-21919536D01*
X15437523Y-21905250D01*
X15451809Y-21876679D01*
X15580380Y-22048107D02*
X15580380Y-21848107D01*
X15580380Y-21876679D02*
X15594666Y-21862393D01*
X15623238Y-21848107D01*
X15666095Y-21848107D01*
X15694666Y-21862393D01*
X15708952Y-21890965D01*
X15708952Y-22048107D01*
X15708952Y-21890965D02*
X15723238Y-21862393D01*
X15751809Y-21848107D01*
X15794666Y-21848107D01*
X15823238Y-21862393D01*
X15837523Y-21890965D01*
X15837523Y-22048107D01*
X15980380Y-22048107D02*
X15980380Y-21848107D01*
X15980380Y-21876679D02*
X15994666Y-21862393D01*
X16023238Y-21848107D01*
X16066095Y-21848107D01*
X16094666Y-21862393D01*
X16108952Y-21890965D01*
X16108952Y-22048107D01*
X16108952Y-21890965D02*
X16123238Y-21862393D01*
X16151809Y-21848107D01*
X16194666Y-21848107D01*
X16223238Y-21862393D01*
X16237523Y-21890965D01*
X16237523Y-22048107D01*
X16823238Y-21733822D02*
X16566095Y-22119536D01*
X17208952Y-21748107D02*
X17237523Y-21748107D01*
X17266095Y-21762393D01*
X17280380Y-21776679D01*
X17294666Y-21805250D01*
X17308952Y-21862393D01*
X17308952Y-21933822D01*
X17294666Y-21990965D01*
X17280380Y-22019536D01*
X17266095Y-22033822D01*
X17237523Y-22048107D01*
X17208952Y-22048107D01*
X17180380Y-22033822D01*
X17166095Y-22019536D01*
X17151809Y-21990965D01*
X17137523Y-21933822D01*
X17137523Y-21862393D01*
X17151809Y-21805250D01*
X17166095Y-21776679D01*
X17180380Y-21762393D01*
X17208952Y-21748107D01*
X17437523Y-22019536D02*
X17451809Y-22033822D01*
X17437523Y-22048107D01*
X17423238Y-22033822D01*
X17437523Y-22019536D01*
X17437523Y-22048107D01*
X17737523Y-22048107D02*
X17566095Y-22048107D01*
X17651809Y-22048107D02*
X17651809Y-21748107D01*
X17623238Y-21790965D01*
X17594666Y-21819536D01*
X17566095Y-21833822D01*
X18008952Y-21748107D02*
X17866095Y-21748107D01*
X17851809Y-21890965D01*
X17866095Y-21876679D01*
X17894666Y-21862393D01*
X17966095Y-21862393D01*
X17994666Y-21876679D01*
X18008952Y-21890965D01*
X18023238Y-21919536D01*
X18023238Y-21990965D01*
X18008952Y-22019536D01*
X17994666Y-22033822D01*
X17966095Y-22048107D01*
X17894666Y-22048107D01*
X17866095Y-22033822D01*
X17851809Y-22019536D01*
X18123238Y-21748107D02*
X18323238Y-21748107D01*
X18194666Y-22048107D01*
X18423238Y-21748107D02*
X18423238Y-21805250D01*
X18537523Y-21748107D02*
X18537523Y-21805250D01*
X18980380Y-22162393D02*
X18966095Y-22148107D01*
X18937523Y-22105250D01*
X18923238Y-22076679D01*
X18908952Y-22033822D01*
X18894666Y-21962393D01*
X18894666Y-21905250D01*
X18908952Y-21833822D01*
X18923238Y-21790965D01*
X18937523Y-21762393D01*
X18966095Y-21719536D01*
X18980380Y-21705250D01*
X19080380Y-21776679D02*
X19094666Y-21762393D01*
X19123238Y-21748107D01*
X19194666Y-21748107D01*
X19223238Y-21762393D01*
X19237523Y-21776679D01*
X19251809Y-21805250D01*
X19251809Y-21833822D01*
X19237523Y-21876679D01*
X19066095Y-22048107D01*
X19251809Y-22048107D01*
X19523238Y-21748107D02*
X19380380Y-21748107D01*
X19366095Y-21890965D01*
X19380380Y-21876679D01*
X19408952Y-21862393D01*
X19480380Y-21862393D01*
X19508952Y-21876679D01*
X19523238Y-21890965D01*
X19537523Y-21919536D01*
X19537523Y-21990965D01*
X19523238Y-22019536D01*
X19508952Y-22033822D01*
X19480380Y-22048107D01*
X19408952Y-22048107D01*
X19380380Y-22033822D01*
X19366095Y-22019536D01*
X19894666Y-22048107D02*
X19894666Y-21748107D01*
X20023238Y-22048107D02*
X20023238Y-21890965D01*
X20008952Y-21862393D01*
X19980380Y-21848107D01*
X19937523Y-21848107D01*
X19908952Y-21862393D01*
X19894666Y-21876679D01*
X20208952Y-22048107D02*
X20180380Y-22033822D01*
X20166095Y-22019536D01*
X20151809Y-21990965D01*
X20151809Y-21905250D01*
X20166095Y-21876679D01*
X20180380Y-21862393D01*
X20208952Y-21848107D01*
X20251809Y-21848107D01*
X20280380Y-21862393D01*
X20294666Y-21876679D01*
X20308952Y-21905250D01*
X20308952Y-21990965D01*
X20294666Y-22019536D01*
X20280380Y-22033822D01*
X20251809Y-22048107D01*
X20208952Y-22048107D01*
X20480380Y-22048107D02*
X20451809Y-22033822D01*
X20437523Y-22005250D01*
X20437523Y-21748107D01*
X20708952Y-22033822D02*
X20680380Y-22048107D01*
X20623238Y-22048107D01*
X20594666Y-22033822D01*
X20580380Y-22005250D01*
X20580380Y-21890965D01*
X20594666Y-21862393D01*
X20623238Y-21848107D01*
X20680380Y-21848107D01*
X20708952Y-21862393D01*
X20723238Y-21890965D01*
X20723238Y-21919536D01*
X20580380Y-21948107D01*
X20837523Y-22033822D02*
X20866095Y-22048107D01*
X20923238Y-22048107D01*
X20951809Y-22033822D01*
X20966095Y-22005250D01*
X20966095Y-21990965D01*
X20951809Y-21962393D01*
X20923238Y-21948107D01*
X20880380Y-21948107D01*
X20851809Y-21933822D01*
X20837523Y-21905250D01*
X20837523Y-21890965D01*
X20851809Y-21862393D01*
X20880380Y-21848107D01*
X20923238Y-21848107D01*
X20951809Y-21862393D01*
X21066095Y-22162393D02*
X21080380Y-22148107D01*
X21108952Y-22105250D01*
X21123238Y-22076679D01*
X21137523Y-22033822D01*
X21151809Y-21962393D01*
X21151809Y-21905250D01*
X21137523Y-21833822D01*
X21123238Y-21790965D01*
X21108952Y-21762393D01*
X21080380Y-21719536D01*
X21066095Y-21705250D01*
X21608952Y-22162393D02*
X21594666Y-22148107D01*
X21566095Y-22105250D01*
X21551809Y-22076679D01*
X21537523Y-22033822D01*
X21523238Y-21962393D01*
X21523238Y-21905250D01*
X21537523Y-21833822D01*
X21551809Y-21790965D01*
X21566095Y-21762393D01*
X21594666Y-21719536D01*
X21608952Y-21705250D01*
X21723238Y-21848107D02*
X21723238Y-22048107D01*
X21723238Y-21876679D02*
X21737523Y-21862393D01*
X21766095Y-21848107D01*
X21808952Y-21848107D01*
X21837523Y-21862393D01*
X21851809Y-21890965D01*
X21851809Y-22048107D01*
X22037523Y-22048107D02*
X22008952Y-22033822D01*
X21994666Y-22019536D01*
X21980380Y-21990965D01*
X21980380Y-21905250D01*
X21994666Y-21876679D01*
X22008952Y-21862393D01*
X22037523Y-21848107D01*
X22080380Y-21848107D01*
X22108952Y-21862393D01*
X22123238Y-21876679D01*
X22137523Y-21905250D01*
X22137523Y-21990965D01*
X22123238Y-22019536D01*
X22108952Y-22033822D01*
X22080380Y-22048107D01*
X22037523Y-22048107D01*
X22223238Y-21848107D02*
X22337523Y-21848107D01*
X22266095Y-21748107D02*
X22266095Y-22005250D01*
X22280380Y-22033822D01*
X22308952Y-22048107D01*
X22337523Y-22048107D01*
X22666095Y-21848107D02*
X22666095Y-22148107D01*
X22666095Y-21862393D02*
X22694666Y-21848107D01*
X22751809Y-21848107D01*
X22780380Y-21862393D01*
X22794666Y-21876679D01*
X22808952Y-21905250D01*
X22808952Y-21990965D01*
X22794666Y-22019536D01*
X22780380Y-22033822D01*
X22751809Y-22048107D01*
X22694666Y-22048107D01*
X22666095Y-22033822D01*
X22980380Y-22048107D02*
X22951809Y-22033822D01*
X22937523Y-22005250D01*
X22937523Y-21748107D01*
X23223238Y-22048107D02*
X23223238Y-21890965D01*
X23208952Y-21862393D01*
X23180380Y-21848107D01*
X23123238Y-21848107D01*
X23094666Y-21862393D01*
X23223238Y-22033822D02*
X23194666Y-22048107D01*
X23123238Y-22048107D01*
X23094666Y-22033822D01*
X23080380Y-22005250D01*
X23080380Y-21976679D01*
X23094666Y-21948107D01*
X23123238Y-21933822D01*
X23194666Y-21933822D01*
X23223238Y-21919536D01*
X23323238Y-21848107D02*
X23437523Y-21848107D01*
X23366095Y-21748107D02*
X23366095Y-22005250D01*
X23380380Y-22033822D01*
X23408952Y-22048107D01*
X23437523Y-22048107D01*
X23651809Y-22033822D02*
X23623238Y-22048107D01*
X23566095Y-22048107D01*
X23537523Y-22033822D01*
X23523238Y-22005250D01*
X23523238Y-21890965D01*
X23537523Y-21862393D01*
X23566095Y-21848107D01*
X23623238Y-21848107D01*
X23651809Y-21862393D01*
X23666095Y-21890965D01*
X23666095Y-21919536D01*
X23523238Y-21948107D01*
X23923238Y-22048107D02*
X23923238Y-21748107D01*
X23923238Y-22033822D02*
X23894666Y-22048107D01*
X23837523Y-22048107D01*
X23808952Y-22033822D01*
X23794666Y-22019536D01*
X23780380Y-21990965D01*
X23780380Y-21905250D01*
X23794666Y-21876679D01*
X23808952Y-21862393D01*
X23837523Y-21848107D01*
X23894666Y-21848107D01*
X23923238Y-21862393D01*
X24037523Y-22162393D02*
X24051809Y-22148107D01*
X24080380Y-22105250D01*
X24094666Y-22076679D01*
X24108952Y-22033822D01*
X24123238Y-21962393D01*
X24123238Y-21905250D01*
X24108952Y-21833822D01*
X24094666Y-21790965D01*
X24080380Y-21762393D01*
X24051809Y-21719536D01*
X24037523Y-21705250D01*
X13818952Y-22203673D02*
X14293952Y-22678673D01*
X14293952Y-22203673D02*
X13818952Y-22678673D01*
X14293952Y-22441173D02*
G75*
G03*
X14293952Y-22441173I-237500J0D01*
G01*
X14708952Y-22376887D02*
X14708952Y-22576887D01*
X14637523Y-22262602D02*
X14566095Y-22476887D01*
X14751809Y-22476887D01*
X14866095Y-22548316D02*
X14880380Y-22562602D01*
X14866095Y-22576887D01*
X14851809Y-22562602D01*
X14866095Y-22548316D01*
X14866095Y-22576887D01*
X14980380Y-22276887D02*
X15180380Y-22276887D01*
X15051809Y-22576887D01*
X15437523Y-22276887D02*
X15294666Y-22276887D01*
X15280380Y-22419744D01*
X15294666Y-22405459D01*
X15323238Y-22391173D01*
X15394666Y-22391173D01*
X15423238Y-22405459D01*
X15437523Y-22419744D01*
X15451809Y-22448316D01*
X15451809Y-22519744D01*
X15437523Y-22548316D01*
X15423238Y-22562602D01*
X15394666Y-22576887D01*
X15323238Y-22576887D01*
X15294666Y-22562602D01*
X15280380Y-22548316D01*
X15580380Y-22576887D02*
X15580380Y-22376887D01*
X15580380Y-22405459D02*
X15594666Y-22391173D01*
X15623238Y-22376887D01*
X15666095Y-22376887D01*
X15694666Y-22391173D01*
X15708952Y-22419744D01*
X15708952Y-22576887D01*
X15708952Y-22419744D02*
X15723238Y-22391173D01*
X15751809Y-22376887D01*
X15794666Y-22376887D01*
X15823238Y-22391173D01*
X15837523Y-22419744D01*
X15837523Y-22576887D01*
X15980380Y-22576887D02*
X15980380Y-22376887D01*
X15980380Y-22405459D02*
X15994666Y-22391173D01*
X16023238Y-22376887D01*
X16066095Y-22376887D01*
X16094666Y-22391173D01*
X16108952Y-22419744D01*
X16108952Y-22576887D01*
X16108952Y-22419744D02*
X16123238Y-22391173D01*
X16151809Y-22376887D01*
X16194666Y-22376887D01*
X16223238Y-22391173D01*
X16237523Y-22419744D01*
X16237523Y-22576887D01*
X16823238Y-22262602D02*
X16566095Y-22648316D01*
X17208952Y-22276887D02*
X17237523Y-22276887D01*
X17266095Y-22291173D01*
X17280380Y-22305459D01*
X17294666Y-22334030D01*
X17308952Y-22391173D01*
X17308952Y-22462602D01*
X17294666Y-22519744D01*
X17280380Y-22548316D01*
X17266095Y-22562602D01*
X17237523Y-22576887D01*
X17208952Y-22576887D01*
X17180380Y-22562602D01*
X17166095Y-22548316D01*
X17151809Y-22519744D01*
X17137523Y-22462602D01*
X17137523Y-22391173D01*
X17151809Y-22334030D01*
X17166095Y-22305459D01*
X17180380Y-22291173D01*
X17208952Y-22276887D01*
X17437523Y-22548316D02*
X17451809Y-22562602D01*
X17437523Y-22576887D01*
X17423238Y-22562602D01*
X17437523Y-22548316D01*
X17437523Y-22576887D01*
X17737523Y-22576887D02*
X17566095Y-22576887D01*
X17651809Y-22576887D02*
X17651809Y-22276887D01*
X17623238Y-22319745D01*
X17594666Y-22348316D01*
X17566095Y-22362602D01*
X17908952Y-22405459D02*
X17880380Y-22391173D01*
X17866095Y-22376887D01*
X17851809Y-22348316D01*
X17851809Y-22334030D01*
X17866095Y-22305459D01*
X17880380Y-22291173D01*
X17908952Y-22276887D01*
X17966095Y-22276887D01*
X17994666Y-22291173D01*
X18008952Y-22305459D01*
X18023238Y-22334030D01*
X18023238Y-22348316D01*
X18008952Y-22376887D01*
X17994666Y-22391173D01*
X17966095Y-22405459D01*
X17908952Y-22405459D01*
X17880380Y-22419744D01*
X17866095Y-22434030D01*
X17851809Y-22462602D01*
X17851809Y-22519744D01*
X17866095Y-22548316D01*
X17880380Y-22562602D01*
X17908952Y-22576887D01*
X17966095Y-22576887D01*
X17994666Y-22562602D01*
X18008952Y-22548316D01*
X18023238Y-22519744D01*
X18023238Y-22462602D01*
X18008952Y-22434030D01*
X17994666Y-22419744D01*
X17966095Y-22405459D01*
X18123238Y-22276887D02*
X18323238Y-22276887D01*
X18194666Y-22576887D01*
X18423238Y-22276887D02*
X18423238Y-22334030D01*
X18537523Y-22276887D02*
X18537523Y-22334030D01*
X18980380Y-22691173D02*
X18966095Y-22676887D01*
X18937523Y-22634030D01*
X18923238Y-22605459D01*
X18908952Y-22562602D01*
X18894666Y-22491173D01*
X18894666Y-22434030D01*
X18908952Y-22362602D01*
X18923238Y-22319745D01*
X18937523Y-22291173D01*
X18966095Y-22248316D01*
X18980380Y-22234030D01*
X19251809Y-22576887D02*
X19080380Y-22576887D01*
X19166095Y-22576887D02*
X19166095Y-22276887D01*
X19137523Y-22319745D01*
X19108952Y-22348316D01*
X19080380Y-22362602D01*
X19608952Y-22576887D02*
X19608952Y-22276887D01*
X19737523Y-22576887D02*
X19737523Y-22419744D01*
X19723238Y-22391173D01*
X19694666Y-22376887D01*
X19651809Y-22376887D01*
X19623238Y-22391173D01*
X19608952Y-22405459D01*
X19923238Y-22576887D02*
X19894666Y-22562602D01*
X19880380Y-22548316D01*
X19866095Y-22519744D01*
X19866095Y-22434030D01*
X19880380Y-22405459D01*
X19894666Y-22391173D01*
X19923238Y-22376887D01*
X19966095Y-22376887D01*
X19994666Y-22391173D01*
X20008952Y-22405459D01*
X20023238Y-22434030D01*
X20023238Y-22519744D01*
X20008952Y-22548316D01*
X19994666Y-22562602D01*
X19966095Y-22576887D01*
X19923238Y-22576887D01*
X20194666Y-22576887D02*
X20166095Y-22562602D01*
X20151809Y-22534030D01*
X20151809Y-22276887D01*
X20423238Y-22562602D02*
X20394666Y-22576887D01*
X20337523Y-22576887D01*
X20308952Y-22562602D01*
X20294666Y-22534030D01*
X20294666Y-22419744D01*
X20308952Y-22391173D01*
X20337523Y-22376887D01*
X20394666Y-22376887D01*
X20423238Y-22391173D01*
X20437523Y-22419744D01*
X20437523Y-22448316D01*
X20294666Y-22476887D01*
X20537523Y-22691173D02*
X20551809Y-22676887D01*
X20580380Y-22634030D01*
X20594666Y-22605459D01*
X20608952Y-22562602D01*
X20623238Y-22491173D01*
X20623238Y-22434030D01*
X20608952Y-22362602D01*
X20594666Y-22319745D01*
X20580380Y-22291173D01*
X20551809Y-22248316D01*
X20537523Y-22234030D01*
X21080380Y-22691173D02*
X21066095Y-22676887D01*
X21037523Y-22634030D01*
X21023238Y-22605459D01*
X21008952Y-22562602D01*
X20994666Y-22491173D01*
X20994666Y-22434030D01*
X21008952Y-22362602D01*
X21023238Y-22319745D01*
X21037523Y-22291173D01*
X21066095Y-22248316D01*
X21080380Y-22234030D01*
X21194666Y-22376887D02*
X21194666Y-22576887D01*
X21194666Y-22405459D02*
X21208952Y-22391173D01*
X21237523Y-22376887D01*
X21280380Y-22376887D01*
X21308952Y-22391173D01*
X21323238Y-22419744D01*
X21323238Y-22576887D01*
X21508952Y-22576887D02*
X21480380Y-22562602D01*
X21466095Y-22548316D01*
X21451809Y-22519744D01*
X21451809Y-22434030D01*
X21466095Y-22405459D01*
X21480380Y-22391173D01*
X21508952Y-22376887D01*
X21551809Y-22376887D01*
X21580380Y-22391173D01*
X21594666Y-22405459D01*
X21608952Y-22434030D01*
X21608952Y-22519744D01*
X21594666Y-22548316D01*
X21580380Y-22562602D01*
X21551809Y-22576887D01*
X21508952Y-22576887D01*
X21694666Y-22376887D02*
X21808952Y-22376887D01*
X21737523Y-22276887D02*
X21737523Y-22534030D01*
X21751809Y-22562602D01*
X21780380Y-22576887D01*
X21808952Y-22576887D01*
X22137523Y-22376887D02*
X22137523Y-22676887D01*
X22137523Y-22391173D02*
X22166095Y-22376887D01*
X22223238Y-22376887D01*
X22251809Y-22391173D01*
X22266095Y-22405459D01*
X22280380Y-22434030D01*
X22280380Y-22519744D01*
X22266095Y-22548316D01*
X22251809Y-22562602D01*
X22223238Y-22576887D01*
X22166095Y-22576887D01*
X22137523Y-22562602D01*
X22451809Y-22576887D02*
X22423238Y-22562602D01*
X22408952Y-22534030D01*
X22408952Y-22276887D01*
X22694666Y-22576887D02*
X22694666Y-22419744D01*
X22680380Y-22391173D01*
X22651809Y-22376887D01*
X22594666Y-22376887D01*
X22566095Y-22391173D01*
X22694666Y-22562602D02*
X22666095Y-22576887D01*
X22594666Y-22576887D01*
X22566095Y-22562602D01*
X22551809Y-22534030D01*
X22551809Y-22505459D01*
X22566095Y-22476887D01*
X22594666Y-22462602D01*
X22666095Y-22462602D01*
X22694666Y-22448316D01*
X22794666Y-22376887D02*
X22908952Y-22376887D01*
X22837523Y-22276887D02*
X22837523Y-22534030D01*
X22851809Y-22562602D01*
X22880380Y-22576887D01*
X22908952Y-22576887D01*
X23123238Y-22562602D02*
X23094666Y-22576887D01*
X23037523Y-22576887D01*
X23008952Y-22562602D01*
X22994666Y-22534030D01*
X22994666Y-22419744D01*
X23008952Y-22391173D01*
X23037523Y-22376887D01*
X23094666Y-22376887D01*
X23123238Y-22391173D01*
X23137523Y-22419744D01*
X23137523Y-22448316D01*
X22994666Y-22476887D01*
X23394666Y-22576887D02*
X23394666Y-22276887D01*
X23394666Y-22562602D02*
X23366095Y-22576887D01*
X23308952Y-22576887D01*
X23280380Y-22562602D01*
X23266095Y-22548316D01*
X23251809Y-22519744D01*
X23251809Y-22434030D01*
X23266095Y-22405459D01*
X23280380Y-22391173D01*
X23308952Y-22376887D01*
X23366095Y-22376887D01*
X23394666Y-22391173D01*
X23508952Y-22691173D02*
X23523238Y-22676887D01*
X23551809Y-22634030D01*
X23566095Y-22605459D01*
X23580380Y-22562602D01*
X23594666Y-22491173D01*
X23594666Y-22434030D01*
X23580380Y-22362602D01*
X23566095Y-22319745D01*
X23551809Y-22291173D01*
X23523238Y-22248316D01*
X23508952Y-22234030D01*
M02*
