<?xml version="1.0" standalone="no"?>
<!DOCTYPE svg PUBLIC "-//W3C//DTD SVG 1.1//EN" "http://www.w3.org/Graphics/SVG/1.1/DTD/svg11.dtd">
<svg width="141mm" height="101mm" viewBox="2 2 141 101" xmlns="http://www.w3.org/2000/svg" version="1.1">
<title>OpenSCAD Model</title>
<path d="
M 124.068,102.78 L 124.111,102.779 L 124.155,102.777 L 124.198,102.775 L 124.242,102.771 L 124.285,102.767
 L 124.329,102.762 L 124.371,102.756 L 124.414,102.75 L 124.458,102.743 L 124.5,102.735 L 124.544,102.726
 L 124.587,102.717 L 124.628,102.707 L 124.671,102.695 L 124.713,102.684 L 124.754,102.672 L 124.796,102.658
 L 124.838,102.644 L 124.879,102.63 L 124.919,102.615 L 124.96,102.599 L 125,102.582 L 125.04,102.565
 L 125.08,102.546 L 125.121,102.527 L 125.158,102.508 L 125.197,102.488 L 125.236,102.467 L 125.273,102.446
 L 125.312,102.423 L 125.348,102.401 L 125.385,102.377 L 125.421,102.353 L 125.458,102.329 L 125.493,102.303
 L 125.528,102.277 L 125.563,102.25 L 125.597,102.224 L 125.63,102.196 L 125.664,102.167 L 125.696,102.139
 L 125.729,102.109 L 125.76,102.079 L 125.791,102.049 L 125.822,102.017 L 125.852,101.986 L 125.881,101.954
 L 125.91,101.921 L 125.939,101.887 L 125.967,101.854 L 125.994,101.82 L 126.02,101.785 L 126.046,101.75
 L 126.072,101.714 L 126.096,101.679 L 126.12,101.642 L 126.144,101.605 L 126.167,101.568 L 126.189,101.531
 L 142.531,73.2105 L 142.552,73.1721 L 142.573,73.1334 L 142.594,73.0947 L 142.613,73.0561 L 142.632,73.0165
 L 142.65,72.9766 L 142.667,72.9367 L 142.684,72.8966 L 142.7,72.8563 L 142.715,72.8143 L 142.729,72.7742
 L 142.744,72.7322 L 142.756,72.691 L 142.769,72.6489 L 142.78,72.6077 L 142.792,72.5638 L 142.802,72.5225
 L 142.811,72.4793 L 142.82,72.4373 L 142.828,72.3941 L 142.835,72.3507 L 142.841,72.3082 L 142.847,72.2641
 L 142.852,72.2216 L 142.856,72.1776 L 142.86,72.1339 L 142.862,72.091 L 142.864,72.047 L 142.865,72.0037
 L 142.866,71.9603 L 142.866,13.7033 L 142.865,13.6585 L 142.864,13.6153 L 142.862,13.5712 L 142.859,13.5276
 L 142.856,13.4847 L 142.852,13.4415 L 142.847,13.3976 L 142.841,13.3544 L 142.835,13.3111 L 142.828,13.2685
 L 142.82,13.2253 L 142.811,13.1827 L 142.801,13.1395 L 142.791,13.0979 L 142.78,13.0556 L 142.769,13.0128
 L 142.756,12.9718 L 142.743,12.93 L 142.729,12.8882 L 142.715,12.8473 L 142.7,12.8064 L 142.684,12.7663
 L 142.667,12.7255 L 142.649,12.6852 L 142.632,12.6462 L 142.612,12.6056 L 142.593,12.5679 L 142.573,12.5286
 L 142.552,12.4904 L 142.531,12.4527 L 142.508,12.4145 L 142.486,12.3778 L 142.462,12.3411 L 142.438,12.3037
 L 142.414,12.2689 L 142.388,12.2326 L 142.363,12.1985 L 142.336,12.1632 L 142.308,12.129 L 142.281,12.0954
 L 142.252,12.0622 L 142.223,12.0294 L 142.194,11.9972 L 142.164,11.9661 L 142.133,11.9346 L 142.102,11.9037
 L 142.071,11.8742 L 142.039,11.8447 L 142.006,11.8157 L 141.973,11.7873 L 141.939,11.7596 L 141.905,11.7324
 L 141.87,11.7053 L 141.835,11.6801 L 141.799,11.6542 L 141.764,11.6302 L 141.727,11.6055 L 141.69,11.5822
 L 141.654,11.5597 L 141.615,11.5371 L 141.578,11.5158 L 141.539,11.4951 L 141.5,11.4746 L 141.462,11.4558
 L 141.422,11.4365 L 141.383,11.4187 L 141.343,11.4012 L 141.302,11.3843 L 141.262,11.3684 L 141.221,11.3532
 L 141.18,11.3387 L 141.138,11.3247 L 141.096,11.3115 L 141.055,11.2994 L 141.012,11.2875 L 140.97,11.2766
 L 140.929,11.2666 L 140.885,11.257 L 140.843,11.2483 L 140.799,11.2403 L 140.757,11.2332 L 140.704,11.2254
 L 111.801,7.28827 L 111.776,7.285 L 73.7964,2.53943 L 73.7537,2.53447 L 73.7097,2.53015 L 73.6656,2.5266
 L 73.6224,2.52385 L 73.5787,2.52184 L 73.535,2.5206 L 73.4872,2.52014 L 21.7447,2.52014 L 21.6999,2.52054
 L 21.6567,2.52167 L 21.6126,2.52359 L 21.569,2.52626 L 21.5264,2.5296 L 21.4827,2.53383 L 21.4333,2.53949
 L 4.70992,4.62991 L 4.66716,4.63565 L 4.62312,4.64232 L 4.5804,4.64957 L 4.53822,4.65749 L 4.49527,4.66631
 L 4.4527,4.67586 L 4.40977,4.68626 L 4.36815,4.69713 L 4.32584,4.70895 L 4.2834,4.72162 L 4.24251,4.73462
 L 4.20096,4.74861 L 4.15968,4.76334 L 4.1189,4.77869 L 4.07921,4.7944 L 4.03796,4.81161 L 3.99829,4.82895
 L 3.95847,4.84721 L 3.92006,4.86565 L 3.87991,4.88576 L 3.84184,4.90569 L 3.80345,4.92664 L 3.76509,4.94846
 L 3.72786,4.97049 L 3.69122,4.99306 L 3.65396,5.01691 L 3.61755,5.04112 L 3.58186,5.06577 L 3.54619,5.09132
 L 3.51111,5.1174 L 3.4765,5.14409 L 3.44289,5.17094 L 3.40852,5.19937 L 3.37602,5.22726 L 3.34323,5.25641
 L 3.31104,5.28604 L 3.28006,5.31557 L 3.24858,5.34665 L 3.21774,5.37816 L 3.18816,5.40945 L 3.15848,5.442
 L 3.12996,5.47438 L 3.10146,5.50792 L 3.07379,5.54161 L 3.04649,5.57608 L 3.02075,5.60977 L 2.99402,5.64609
 L 2.96944,5.68068 L 2.9444,5.71729 L 2.92044,5.75365 L 2.89738,5.79004 L 2.87405,5.82829 L 2.85248,5.86511
 L 2.83109,5.90312 L 2.81013,5.94188 L 2.79012,5.98058 L 2.77087,6.01935 L 2.75214,6.05887 L 2.73404,6.0988
 L 2.71674,6.13885 L 2.69994,6.17966 L 2.6844,6.21933 L 2.66896,6.26093 L 2.6545,6.30202 L 2.6411,6.34242
 L 2.62753,6.38573 L 2.61559,6.42641 L 2.6039,6.46892 L 2.59308,6.51111 L 2.58304,6.55334 L 2.57368,6.59595
 L 2.565,6.63911 L 2.5571,6.6823 L 2.55011,6.72466 L 2.54376,6.76768 L 2.53807,6.81171 L 2.53331,6.85443
 L 2.52919,6.8981 L 2.52585,6.94197 L 2.52328,6.98503 L 2.5215,7.02841 L 2.52043,7.07253 L 2.52014,7.11119
 L 2.52014,73.577 L 2.52054,73.6217 L 2.52167,73.665 L 2.52359,73.7091 L 2.52626,73.7527 L 2.52962,73.7955
 L 2.5338,73.8388 L 2.53879,73.8827 L 2.54446,73.9258 L 2.55095,73.9692 L 2.55807,74.0118 L 2.56609,74.055
 L 2.57475,74.0976 L 2.58434,74.1408 L 2.59433,74.1824 L 2.60526,74.2246 L 2.61713,74.2674 L 2.62926,74.3084
 L 2.64246,74.3503 L 2.65642,74.392 L 2.67091,74.433 L 2.68619,74.4738 L 2.70203,74.514 L 2.71892,74.5548
 L 2.73642,74.595 L 2.75421,74.6341 L 2.77356,74.6746 L 2.79237,74.7124 L 2.81284,74.7517 L 2.83359,74.7899
 L 2.85489,74.8276 L 2.87741,74.8658 L 2.89992,74.9025 L 2.92325,74.9391 L 2.948,74.9765 L 2.97194,75.0114
 L 2.99786,75.0477 L 3.02309,75.0818 L 3.05014,75.1171 L 3.07735,75.1513 L 3.10507,75.1849 L 3.13342,75.2181
 L 3.16241,75.2509 L 3.19193,75.2831 L 3.22144,75.3142 L 3.25238,75.3456 L 3.28384,75.3766 L 3.31496,75.4061
 L 3.34717,75.4356 L 3.37993,75.4646 L 3.41313,75.493 L 3.44676,75.5207 L 3.48096,75.5479 L 3.51622,75.5749
 L 3.55031,75.6002 L 3.58665,75.6261 L 3.62148,75.65 L 3.65887,75.6748 L 3.69551,75.6981 L 3.73224,75.7206
 L 3.77046,75.7431 L 3.80811,75.7644 L 3.84633,75.7852 L 3.88564,75.8056 L 3.92339,75.8245 L 3.96396,75.8438
 L 4.00298,75.8616 L 4.04323,75.8791 L 4.084,75.896 L 4.12419,75.9118 L 4.16507,75.9271 L 4.20598,75.9416
 L 4.24776,75.9556 L 4.2896,75.9688 L 4.33058,75.9809 L 4.37338,75.9928 L 4.41562,76.0037 L 4.45723,76.0137
 L 4.50043,76.0233 L 4.54301,76.0319 L 4.58623,76.0399 L 4.62881,76.0471 L 4.6722,76.0536 L 4.7153,76.0592
 L 4.75922,76.0642 L 4.80249,76.0684 L 4.84532,76.0718 L 4.88922,76.0744 L 4.93335,76.0764 L 4.99664,76.0778
 L 65.1581,76.6487 L 66.0306,76.6646 L 66.9027,76.6957 L 67.7741,76.7421 L 68.6446,76.8036 L 69.5139,76.8803
 L 70.3817,76.9722 L 71.2478,77.0792 L 72.1118,77.2013 L 72.9736,77.3385 L 73.8329,77.4907 L 74.6894,77.6579
 L 75.5428,77.8399 L 76.393,78.0369 L 77.2395,78.2487 L 78.0823,78.4752 L 78.921,78.7163 L 79.7553,78.9721
 L 80.585,79.2424 L 81.4099,79.5271 L 82.2297,79.8262 L 83.0442,80.1396 L 83.853,80.4671 L 84.6561,80.8087
 L 85.453,81.1642 L 86.2436,81.5336 L 87.0276,81.9168 L 87.8049,82.3136 L 88.5751,82.7238 L 89.6799,83.343
 L 122.774,102.446 L 122.811,102.467 L 122.85,102.488 L 122.889,102.508 L 122.928,102.528 L 122.967,102.547
 L 123.006,102.564 L 123.047,102.582 L 123.087,102.599 L 123.127,102.615 L 123.168,102.63 L 123.21,102.645
 L 123.251,102.658 L 123.293,102.672 L 123.335,102.684 L 123.376,102.695 L 123.419,102.707 L 123.461,102.717
 L 123.504,102.726 L 123.547,102.735 L 123.59,102.743 L 123.633,102.75 L 123.675,102.756 L 123.719,102.762
 L 123.763,102.767 L 123.805,102.771 L 123.849,102.775 L 123.893,102.777 L 123.936,102.779 L 123.98,102.78
 L 124.024,102.781 z
" stroke="black" fill="lightgray" stroke-width="0.5"/>
</svg>
